<svg width="292" height="112" viewBox="0 0 292 112" fill="none" xmlns="http://www.w3.org/2000/svg">
<path d="M0 90.6139V72.6073L45.4072 1.47855H61.0209V26.4026H51.7801L23.155 71.4455V72.2904H87.681V90.6139H0ZM52.205 109.624V85.1221L52.6298 77.1485V1.47855H74.1916V109.624H52.205Z" fill="#212121"/>
<path d="M145.648 112C136.514 111.965 128.654 109.729 122.068 105.294C115.518 100.858 110.473 94.4334 106.933 86.0198C103.427 77.6062 101.693 67.4851 101.728 55.6568C101.728 43.8636 103.481 33.813 106.986 25.5049C110.526 17.1969 115.571 10.8779 122.121 6.54786C128.707 2.18262 136.549 0 145.648 0C154.747 0 162.572 2.18262 169.122 6.54786C175.707 10.9131 180.77 17.2497 184.311 25.5578C187.851 33.8306 189.604 43.8636 189.568 55.6568C189.568 67.5203 187.798 77.659 184.258 86.0726C180.752 94.4863 175.725 100.911 169.175 105.347C162.625 109.782 154.783 112 145.648 112ZM145.648 93.0429C151.879 93.0429 156.854 89.9274 160.571 83.6964C164.289 77.4653 166.13 68.1188 166.095 55.6568C166.095 47.4543 165.245 40.6249 163.545 35.1683C161.881 29.7118 159.509 25.6106 156.429 22.8647C153.384 20.1188 149.791 18.7459 145.648 18.7459C139.452 18.7459 134.496 21.8262 130.778 27.9868C127.06 34.1474 125.184 43.3707 125.149 55.6568C125.149 63.9648 125.981 70.8999 127.645 76.462C129.344 81.989 131.734 86.143 134.814 88.9241C137.894 91.67 141.506 93.0429 145.648 93.0429Z" fill="#212121"/>
<path d="M204.319 90.6139V72.6073L249.726 1.47855H265.34V26.4026H256.099L227.474 71.4455V72.2904H292V90.6139H204.319ZM256.524 109.624V85.1221L256.949 77.1485V1.47855H278.511V109.624H256.524Z" fill="#212121"/>
</svg>
