<svg width="505" height="350" viewBox="0 0 505 443" fill="none" xmlns="http://www.w3.org/2000/svg">
<g clip-path="url(#clip0_12068_39073)">
<path d="M470.12 349.039C448.15 393.421 412.333 431.918 370.055 438.712C327.458 445.526 278.401 420.636 232.175 410.338C186.288 400.34 142.893 404.635 102.885 391.062C63.1779 377.147 26.5164 345.071 13.1253 305.129C-0.265824 265.187 9.95227 217.681 20.8339 170.457C32.0321 123.212 44.2291 76.5478 74.9213 53.7774C105.613 31.007 155.123 32.1131 196.816 36.592C238.209 41.4071 272.122 49.9028 318.172 52.1858C363.921 54.8095 422.108 50.8818 456.036 75.1014C489.982 99.644 499.333 152.038 499.942 203.365C500.551 254.693 492.109 304.978 470.12 349.039Z" fill="#2F1B7C"/>
<path d="M417.162 130.974C418.58 131.679 420.3 131.1 421.005 129.682C421.709 128.264 421.13 126.543 419.712 125.839C418.294 125.134 416.574 125.713 415.869 127.131C415.165 128.549 415.744 130.27 417.162 130.974Z" fill="#A9A5FC"/>
<path d="M413.954 269.472C418.208 271.585 423.37 269.849 425.483 265.595C427.596 261.34 425.86 256.179 421.606 254.066C417.351 251.953 412.189 253.689 410.077 257.943C407.964 262.197 409.699 267.359 413.954 269.472Z" fill="#A9A5FC"/>
<path d="M414.917 357.516C415.927 358.018 417.153 357.606 417.655 356.596C418.157 355.585 417.745 354.359 416.734 353.857C415.723 353.355 414.497 353.767 413.996 354.778C413.494 355.789 413.906 357.015 414.917 357.516Z" fill="#A9A5FC"/>
<path d="M189.959 87.1982C191.603 88.0143 193.596 87.3438 194.412 85.7007C195.228 84.0575 194.558 82.0638 192.915 81.2477C191.272 80.4316 189.278 81.1021 188.462 82.7453C187.646 84.3885 188.316 86.3821 189.959 87.1982Z" fill="#A9A5FC"/>
<path d="M114.714 173.959C116.766 174.978 119.255 174.141 120.274 172.089C121.293 170.038 120.456 167.548 118.404 166.529C116.353 165.51 113.863 166.347 112.844 168.399C111.825 170.451 112.663 172.94 114.714 173.959Z" fill="#A9A5FC"/>
<path d="M41.2428 180.277C42.9018 181.101 44.9146 180.424 45.7386 178.765C46.5625 177.106 45.8856 175.093 44.2266 174.269C42.5676 173.445 40.5547 174.122 39.7307 175.781C38.9068 177.44 39.5837 179.453 41.2428 180.277Z" fill="#A9A5FC"/>
<path d="M84.3949 322.295C88.1354 324.153 92.6736 322.627 94.5313 318.886C96.389 315.146 94.8627 310.608 91.1223 308.75C87.3818 306.892 82.8436 308.418 80.9859 312.159C79.1282 315.899 80.6545 320.438 84.3949 322.295Z" fill="#A9A5FC"/>
<path d="M252.45 384.963C253.327 385.399 254.39 385.041 254.825 384.164C255.261 383.288 254.903 382.225 254.026 381.789C253.15 381.354 252.087 381.711 251.651 382.588C251.216 383.464 251.574 384.528 252.45 384.963Z" fill="#A9A5FC"/>
<path fill-rule="evenodd" clip-rule="evenodd" d="M346.842 208.646V89.7185C346.842 40.1684 306.673 0 257.123 0C207.573 0 167.404 40.1684 167.404 89.7185V208.646H195.238V89.7185C195.238 55.5404 222.945 27.8335 257.123 27.8335C291.301 27.8335 319.008 55.5404 319.008 89.7185V208.646H346.842Z" fill="#ECE7FD"/>
<path fill-rule="evenodd" clip-rule="evenodd" d="M257.124 27.8341L257.324 27.8345C291.413 27.9451 319.009 55.6094 319.009 89.7191V208.646H328.182C328.182 208.646 328.182 144.405 328.182 89.7191C328.182 60.0839 299.828 21.3096 257.124 21.3096C225.945 21.3096 186.822 42.9696 186.822 89.7191C186.822 144.405 186.822 208.646 186.822 208.646H195.239V89.7191C195.239 55.5411 222.946 27.8341 257.124 27.8341Z" fill="#BBB1DE"/>
<path fill-rule="evenodd" clip-rule="evenodd" d="M173.358 208.646C173.358 208.646 173.358 208.646 173.358 89.7185C173.358 47.5125 204.844 4.67566 258.14 4.67566C304.964 4.67566 339.455 43.0233 342.922 89.7185V208.646H346.842V89.7185C346.842 40.1684 306.673 0 257.123 0C207.573 0 167.404 40.1684 167.404 89.7185V208.646H173.358Z" fill="#FFFFFD"/>
<path fill-rule="evenodd" clip-rule="evenodd" d="M363.245 198.236C363.245 192.854 358.876 188.485 353.494 188.485H160.751C155.369 188.485 151 192.854 151 198.236V341.248C151 346.629 155.369 350.999 160.751 350.999H353.494C358.876 350.999 363.245 346.629 363.245 341.248V198.236Z" fill="#886DE4"/>
<path fill-rule="evenodd" clip-rule="evenodd" d="M175.478 188.487H160.751C155.369 188.487 151 192.856 151 198.237V341.249C151 346.631 155.369 351 160.751 351H175.478C176.34 351 177.04 350.3 177.04 349.437V190.049C177.04 189.187 176.34 188.487 175.478 188.487Z" fill="#A692EB"/>
<path fill-rule="evenodd" clip-rule="evenodd" d="M246.709 262.713C243.18 259.717 240.939 255.249 240.939 250.261C240.939 241.249 248.256 233.932 257.268 233.932C266.28 233.932 273.597 241.249 273.597 250.261C273.597 255.361 271.254 259.918 267.587 262.913L273.597 286.954H240.648L246.709 262.713Z" fill="#212121"/>
</g>
<defs>
<clipPath id="clip0_12068_39073">
<rect width="505" height="443" fill="white"/>
</clipPath>
</defs>
</svg>
