<svg width="52" height="52" viewBox="0 0 52 52" fill="none" xmlns="http://www.w3.org/2000/svg">
<path d="M25.9991 17.3345V26.0012M25.9991 34.6678H26.0208M22.999 6.26655L5.17841 37.0476C4.18997 38.7549 3.69575 39.6085 3.76879 40.3092C3.8325 40.9203 4.15267 41.4756 4.64962 41.8369C5.21936 42.2512 6.20576 42.2512 8.17856 42.2512H43.8197C45.7925 42.2512 46.7789 42.2512 47.3487 41.8369C47.8456 41.4756 48.1658 40.9203 48.2295 40.3092C48.3025 39.6085 47.8083 38.7549 46.8199 37.0476L28.9993 6.26654C28.0144 4.56536 27.5219 3.71477 26.8795 3.42908C26.319 3.17989 25.6793 3.17989 25.1188 3.42908C24.4763 3.71477 23.9839 4.56536 22.999 6.26655Z" stroke="#F5D549" stroke-width="2" stroke-linecap="round" stroke-linejoin="round"/>
</svg>
