<svg width="37" height="46" viewBox="0 0 37 46" fill="none" xmlns="http://www.w3.org/2000/svg">
<path d="M7.97435 30.3906L16.7733 8.52014L25.5124 30.3906H7.97435ZM5.81949 35.4698H27.607L31.079 44.015C31.3577 44.7723 31.8965 45.1504 32.6947 45.1504H35.2687C36.1459 45.1504 36.5852 44.832 36.5852 44.194C36.5852 44.1148 36.5652 43.9553 36.5256 43.7164C36.4856 43.6369 36.4456 43.5575 36.406 43.477L19.1675 1.8869C19.0874 1.68851 18.9476 1.45935 18.7484 1.19983C18.5485 0.941135 18.1894 0.811378 17.6713 0.811378H15.9352C15.3761 0.811378 15.0074 0.941135 14.8282 1.19983C14.6483 1.45935 14.5183 1.68851 14.4387 1.8869C14.3192 2.16639 14.099 2.69396 13.7803 3.47045C13.4608 4.24736 12.9517 5.46325 12.2543 7.11584C11.5554 8.76947 10.5575 11.1399 9.26143 14.2267C7.96414 17.3146 6.32836 21.2181 4.35327 25.9386C3.18554 28.7297 1.86033 31.9076 0.378906 35.4713" fill="#212121"/>
</svg>
