<svg width="100" height="100" viewBox="0 0 100 100" fill="none" xmlns="http://www.w3.org/2000/svg">
<circle cx="50" cy="50" r="50" fill="#212121"/>
<circle cx="50" cy="50" r="48.7903" stroke="white" stroke-opacity="0.32" stroke-width="2.41935"/>
<path d="M6.0367 48.7407L11.2636 47.3325L11.269 47.2616L6.31507 45.0794L6.37344 44.3117L12.2517 46.9918L12.1942 47.7477L5.97834 49.5084L6.0367 48.7407Z" fill="white"/>
<path d="M14.0678 38.2983C13.9341 38.7157 13.7266 39.0462 13.4454 39.2898C13.163 39.531 12.8291 39.6801 12.444 39.737C12.0575 39.7915 11.6425 39.7477 11.1988 39.6055C10.7551 39.4634 10.39 39.2573 10.1034 38.9872C9.81549 38.7146 9.62329 38.4022 9.52676 38.05C9.42896 37.6953 9.44269 37.3224 9.56796 36.9314C9.64023 36.7058 9.7492 36.495 9.89487 36.2992C10.0405 36.1033 10.2269 35.9422 10.4539 35.8159C10.679 35.6891 10.9469 35.6163 11.2576 35.5977C11.5683 35.5791 11.9258 35.6345 12.33 35.764L12.612 35.8543L11.5423 39.1932L10.9671 39.0089L11.8199 36.3468C11.5755 36.2685 11.3417 36.2475 11.1187 36.2839C10.8962 36.3183 10.7009 36.4071 10.5327 36.5501C10.3652 36.6913 10.2429 36.8822 10.1658 37.1229C10.0809 37.388 10.0732 37.6384 10.1428 37.8742C10.2111 38.1075 10.333 38.3093 10.5085 38.4796C10.6841 38.6498 10.8912 38.7732 11.13 38.8497L11.5135 38.9725C11.8406 39.0773 12.136 39.1098 12.3996 39.0698C12.662 39.0274 12.8849 38.9237 13.0684 38.7586C13.25 38.5929 13.3838 38.3756 13.47 38.1068C13.526 37.9319 13.5521 37.7662 13.5484 37.6095C13.5434 37.4504 13.5077 37.3031 13.4412 37.1678C13.3728 37.0319 13.2724 36.9117 13.1401 36.8071L13.5265 36.2219C13.7229 36.3595 13.8783 36.5346 13.9925 36.7474C14.1049 36.9596 14.1695 37.198 14.1863 37.4625C14.2013 37.7264 14.1618 38.005 14.0678 38.2983Z" fill="white"/>
<path d="M16.3893 32.4606L12.4156 30.2476L12.7441 29.6577L13.3443 29.992L13.3673 29.9506C13.2111 29.7687 13.1245 29.5488 13.1077 29.2908C13.0909 29.0329 13.1488 28.785 13.2814 28.547C13.3063 28.5021 13.3384 28.4466 13.3776 28.3802C13.4168 28.3139 13.4477 28.2645 13.4704 28.2319L14.0913 28.5777C14.0746 28.5955 14.0404 28.6386 13.9887 28.707C13.9363 28.7728 13.8875 28.8461 13.8424 28.9272C13.7348 29.1204 13.6793 29.3154 13.6758 29.5123C13.6716 29.7066 13.7157 29.887 13.8081 30.0538C13.8998 30.2178 14.0353 30.3498 14.2147 30.4497L16.7293 31.8501L16.3893 32.4606Z" fill="white"/>
<path d="M20.0817 26.7201L16.5173 23.8948L16.9514 23.3471L20.5158 26.1725L20.0817 26.7201ZM16.144 23.1454C16.0593 23.2522 15.95 23.3154 15.816 23.3351C15.6832 23.3533 15.5657 23.3219 15.4636 23.241C15.3615 23.16 15.3042 23.0529 15.2915 22.9194C15.2801 22.7844 15.3168 22.6636 15.4014 22.5568C15.486 22.4501 15.5947 22.3876 15.7275 22.3694C15.8615 22.3497 15.9796 22.3803 16.0817 22.4613C16.1838 22.5422 16.2405 22.6502 16.2519 22.7852C16.2646 22.9186 16.2286 23.0387 16.144 23.1454Z" fill="white"/>
<path d="M22.1419 17.9343L22.5406 18.3723L20.7274 20.0228L20.3288 19.5848L22.1419 17.9343ZM23.9335 22.454L20.4493 18.6262C20.2739 18.4335 20.1729 18.2317 20.1465 18.0209C20.1201 17.81 20.1499 17.6067 20.236 17.4109C20.322 17.2151 20.4453 17.0441 20.6059 16.8979C20.7329 16.7823 20.8459 16.6982 20.9448 16.6456C21.0437 16.5929 21.1208 16.5574 21.1762 16.539L21.4339 17.1213C21.3997 17.1365 21.3532 17.1587 21.2945 17.1881C21.2373 17.2162 21.1715 17.2641 21.097 17.3319C20.9262 17.4873 20.842 17.6427 20.8445 17.7979C20.8485 17.9518 20.9262 18.112 21.0777 18.2784L24.4503 21.9836L23.9335 22.454Z" fill="white"/>
<path d="M29.0347 18.3942L26.556 14.5806L27.1419 14.1998L29.6207 18.0134L29.0347 18.3942ZM26.4408 13.7514C26.3266 13.8256 26.2028 13.8507 26.0695 13.8267C25.9378 13.8016 25.8365 13.7345 25.7655 13.6252C25.6945 13.516 25.6743 13.3961 25.7048 13.2656C25.737 13.134 25.8102 13.0311 25.9244 12.9569C26.0386 12.8827 26.1616 12.8581 26.2932 12.8832C26.4266 12.9072 26.5287 12.9738 26.5997 13.083C26.6707 13.1923 26.6901 13.3127 26.6579 13.4443C26.6274 13.5748 26.555 13.6772 26.4408 13.7514Z" fill="white"/>
<path d="M35.4833 15.0583C35.0899 15.2229 34.7124 15.2717 34.3505 15.2048C33.9887 15.1379 33.6631 14.9735 33.3738 14.7115C33.0844 14.4495 32.8521 14.1091 32.6769 13.6902C32.4986 13.2641 32.4196 12.8552 32.4398 12.4637C32.4611 12.0696 32.5744 11.7216 32.7797 11.4195C32.9861 11.1149 33.2787 10.8834 33.6575 10.7249C33.9525 10.6015 34.2413 10.5449 34.5237 10.5551C34.8062 10.5653 35.0642 10.6371 35.2976 10.7706C35.531 10.904 35.7208 11.0943 35.867 11.3413L35.2223 11.611C35.0931 11.4403 34.913 11.3167 34.6819 11.24C34.4519 11.1608 34.1948 11.1806 33.9107 11.2995C33.6594 11.4046 33.4665 11.5624 33.3319 11.7727C33.1984 11.9805 33.1284 12.2249 33.1218 12.5058C33.1163 12.7842 33.1798 13.0818 33.3124 13.3987C33.448 13.7228 33.6171 13.9838 33.8197 14.1815C34.0241 14.3785 34.2479 14.5042 34.4911 14.5586C34.7361 14.6123 34.9861 14.5859 35.241 14.4792C35.4086 14.4091 35.5484 14.3163 35.6607 14.2009C35.7729 14.0855 35.8535 13.9533 35.9024 13.8045C35.9514 13.6556 35.9639 13.4963 35.94 13.3265L36.5847 13.0568C36.6519 13.3197 36.6551 13.5805 36.5943 13.8392C36.5345 14.0953 36.4115 14.3308 36.2254 14.5456C36.0403 14.7579 35.7929 14.9288 35.4833 15.0583Z" fill="white"/>
<path d="M42.8026 12.8535C42.519 12.9052 42.2519 12.8986 42.0014 12.8339C41.7504 12.7672 41.5384 12.6443 41.3654 12.4651C41.1919 12.284 41.0787 12.0478 41.0256 11.7564C40.9789 11.5001 40.9916 11.2831 41.0636 11.1054C41.1352 10.9258 41.2472 10.775 41.3996 10.653C41.5519 10.5309 41.726 10.429 41.9218 10.3472C42.1192 10.2631 42.3193 10.1885 42.5222 10.1235C42.7877 10.039 43.0034 9.97266 43.1692 9.92442C43.3365 9.87387 43.455 9.8192 43.5246 9.76038C43.5961 9.70121 43.6217 9.61627 43.6016 9.50557L43.5973 9.48226C43.545 9.19482 43.4257 8.98579 43.2393 8.85518C43.055 8.72421 42.8045 8.68755 42.4879 8.74519C42.1597 8.80495 41.9154 8.92367 41.7552 9.10134C41.5949 9.27901 41.4917 9.45632 41.4457 9.63325L40.7507 9.51901C40.8177 9.22589 40.9345 8.9859 41.1012 8.79905C41.2694 8.6099 41.4636 8.46418 41.6837 8.36189C41.9055 8.2573 42.129 8.18449 42.3543 8.14347C42.498 8.1173 42.6663 8.10472 42.8591 8.10573C43.0535 8.10445 43.2476 8.14033 43.4415 8.21338C43.6374 8.28608 43.8128 8.41767 43.9679 8.60814C44.123 8.79862 44.2329 9.07157 44.2976 9.42699L44.8344 12.3752L44.1469 12.5004L44.0365 11.8945L44.0016 11.9008C43.9727 12.0064 43.9139 12.1245 43.8253 12.255C43.7367 12.3855 43.6091 12.506 43.4427 12.6166C43.2762 12.7272 43.0628 12.8062 42.8026 12.8535ZM42.795 12.2168C43.0669 12.1673 43.2863 12.0722 43.4533 11.9314C43.6223 11.7903 43.739 11.6266 43.8034 11.4403C43.8697 11.2536 43.8859 11.0671 43.8519 10.8806L43.7374 10.2514C43.7146 10.2916 43.6563 10.3353 43.5626 10.3825C43.4704 10.4274 43.3622 10.4722 43.2379 10.5169C43.1152 10.5593 42.9951 10.5992 42.8775 10.6367C42.7615 10.6719 42.6675 10.701 42.5954 10.7242C42.421 10.78 42.2609 10.8483 42.115 10.929C41.9708 11.0075 41.8605 11.1068 41.784 11.2271C41.7092 11.345 41.6877 11.4914 41.7195 11.6662C41.763 11.9051 41.8843 12.0696 42.0833 12.1598C42.2839 12.2477 42.5211 12.2667 42.795 12.2168Z" fill="white"/>
<path d="M51.6596 7.52947L51.6489 8.12161L49.2922 8.07916L49.3029 7.48702L51.6596 7.52947ZM50.0094 6.40986L50.7081 6.42244L50.63 10.7569C50.6265 10.9543 50.6524 11.1028 50.7079 11.2025C50.7654 11.3003 50.8392 11.3668 50.9294 11.402C51.0216 11.4353 51.119 11.4528 51.2216 11.4547C51.2986 11.456 51.3618 11.4532 51.4113 11.4462C51.4609 11.4372 51.5005 11.4301 51.5302 11.4247L51.661 12.0549C51.6133 12.0718 51.5469 12.0884 51.4617 12.1046C51.3764 12.1228 51.2687 12.1308 51.1384 12.1284C50.941 12.1249 50.7484 12.0789 50.5604 11.9907C50.3744 11.9024 50.2208 11.7703 50.0996 11.5944C49.9804 11.4185 49.9231 11.1983 49.9279 10.9338L50.0094 6.40986Z" fill="white"/>
<path d="M56.4042 12.5965L57.219 8.12171L57.9065 8.2469L57.0917 12.7217L56.4042 12.5965ZM57.7043 7.43957C57.5703 7.41517 57.4631 7.34848 57.3826 7.23952C57.3041 7.13091 57.2764 7.01251 57.2998 6.88433C57.3231 6.75614 57.3907 6.65507 57.5025 6.58112C57.6162 6.50752 57.7401 6.48292 57.8741 6.50732C58.0081 6.53172 58.1144 6.59823 58.1929 6.70684C58.2734 6.8158 58.302 6.93438 58.2786 7.06256C58.2553 7.19075 58.1868 7.29164 58.073 7.36524C57.9613 7.43919 57.8384 7.46397 57.7043 7.43957Z" fill="white"/>
<path d="M63.3789 14.5895C62.9959 14.4413 62.6952 14.2201 62.4767 13.926C62.26 13.6326 62.1341 13.2907 62.0989 12.9003C62.0655 12.5106 62.1336 12.0967 62.3032 11.6585C62.4742 11.2166 62.7035 10.8619 62.9912 10.5944C63.2808 10.3275 63.6044 10.1585 63.9621 10.0874C64.3217 10.017 64.693 10.0559 65.0759 10.204C65.4589 10.3522 65.7587 10.573 65.9754 10.8664C66.1939 11.1606 66.3195 11.5034 66.3521 11.8949C66.3866 12.2872 66.3183 12.7042 66.1473 13.1461C65.9778 13.5843 65.7486 13.9359 65.4598 14.2009C65.1728 14.4666 64.8495 14.6347 64.4899 14.7051C64.1322 14.7762 63.7618 14.7377 63.3789 14.5895ZM63.6054 14.004C63.8963 14.1166 64.1645 14.1346 64.41 14.0582C64.6555 13.9817 64.8704 13.8394 65.0546 13.6313C65.2389 13.4232 65.3859 13.1774 65.4956 12.8939C65.6053 12.6104 65.6625 12.3287 65.667 12.0489C65.6715 11.7692 65.6091 11.5175 65.4798 11.2938C65.3504 11.0702 65.1403 10.9021 64.8494 10.7895C64.5585 10.6769 64.2899 10.6598 64.0437 10.7381C63.7975 10.8164 63.5819 10.9605 63.397 11.1705C63.212 11.3804 63.0646 11.6272 62.9549 11.9107C62.8452 12.1942 62.7884 12.475 62.7846 12.7529C62.7808 13.0308 62.8439 13.2807 62.974 13.5025C63.1041 13.7243 63.3145 13.8915 63.6054 14.004Z" fill="white"/>
<path d="M71.8731 15.674L70.3206 17.927L69.7451 17.5304L72.326 13.7852L72.8819 14.1683L72.4786 14.7535L72.5274 14.7871C72.7462 14.6574 72.9848 14.5964 73.2432 14.6042C73.5026 14.6104 73.7738 14.711 74.0566 14.9059C74.3102 15.0806 74.4963 15.2855 74.6148 15.5206C74.7344 15.7541 74.7748 16.0121 74.7359 16.2946C74.6982 16.5754 74.5696 16.8752 74.35 17.1938L72.7101 19.5736L72.1347 19.1771L73.7477 16.8363C73.9505 16.5421 74.032 16.2602 73.9923 15.9907C73.9538 15.7196 73.8012 15.4922 73.5346 15.3085C73.3509 15.1819 73.1593 15.1086 72.9598 15.0886C72.7618 15.0697 72.5688 15.1081 72.3806 15.2037C72.1924 15.2994 72.0232 15.4561 71.8731 15.674Z" fill="white"/>
<path d="M88.4902 28.6065L83.3301 31.7928L82.9568 31.1881L85.2719 25.8746L85.2408 25.8242L81.1894 28.3259L80.8036 27.701L85.9636 24.5148L86.337 25.1195L84.0179 30.4493L84.0491 30.4997L88.1106 27.9918L88.4902 28.6065Z" fill="white"/>
<path d="M85.5833 36.7491L91.3751 34.951L92.4533 38.4238L91.8311 38.617L90.9707 35.8455L89.0137 36.4531L89.7933 38.9644L89.1712 39.1575L88.3915 36.6462L85.8011 37.4504L85.5833 36.7491Z" fill="white"/>
<path d="M93.0502 44.6704L93.7002 44.6269L94.0042 49.1651L93.3542 49.2086L93.2267 47.3059L87.8258 47.6676L87.7767 46.9349L93.1777 46.5731L93.0502 44.6704Z" fill="white"/>
<path d="M65.7263 53.1586C65.7263 56.5361 62.9883 59.2742 59.6107 59.2742C56.2332 59.2742 53.4951 56.5361 53.4951 53.1586C53.4951 49.781 56.2332 47.043 59.6107 47.043C62.9883 47.043 65.7263 49.781 65.7263 53.1586Z" stroke="white" stroke-width="2.01613"/>
<path d="M32.5273 41.8008H67.4736" stroke="white" stroke-width="2.01613" stroke-linecap="round"/>
<path d="M36.0205 41.7995L37.093 37.5095C38.0465 33.6957 38.5232 31.7888 39.9451 30.6786C41.3671 29.5684 43.3327 29.5684 47.2639 29.5684H52.7341C56.6653 29.5684 58.6309 29.5684 60.0529 30.6786C61.4748 31.7888 61.9515 33.6957 62.905 37.5095L63.9775 41.7995" stroke="white" stroke-width="2.01613" stroke-linecap="round"/>
<path d="M46.5056 53.1586C46.5056 56.5361 43.7676 59.2742 40.39 59.2742C37.0125 59.2742 34.2744 56.5361 34.2744 53.1586C34.2744 49.781 37.0125 47.043 40.39 47.043C43.7676 47.043 46.5056 49.781 46.5056 53.1586Z" stroke="white" stroke-width="2.01613"/>
<path d="M46.5049 53.1579L47.6552 52.5827C49.131 51.8448 50.868 51.8448 52.3438 52.5827L53.4941 53.1579" stroke="white" stroke-width="2.01613" stroke-linecap="round"/>
<path d="M23.0624 76.7422H21.4678L23.8975 69.7041H25.8151L28.2413 76.7422H26.6468L24.8838 71.3124H24.8288L23.0624 76.7422ZM22.9628 73.9757H26.7292V75.1373H22.9628V73.9757ZM30.525 73.6905V76.7422H29.061V71.4636H30.4562V72.3949H30.5181C30.6349 72.0879 30.8308 71.8451 31.1057 71.6664C31.3807 71.4854 31.714 71.3949 32.1058 71.3949C32.4724 71.3949 32.792 71.4751 33.0646 71.6354C33.3372 71.7958 33.5491 72.0249 33.7004 72.3227C33.8516 72.6183 33.9272 72.9711 33.9272 73.3812V76.7422H32.4632V73.6424C32.4655 73.3194 32.383 73.0673 32.2158 72.8863C32.0485 72.7031 31.8183 72.6114 31.525 72.6114C31.328 72.6114 31.1538 72.6538 31.0026 72.7386C30.8537 72.8233 30.7369 72.9471 30.6521 73.1097C30.5696 73.2701 30.5272 73.4637 30.525 73.6905ZM37.466 76.8453C36.9322 76.8453 36.4705 76.7319 36.0811 76.5051C35.6939 76.276 35.3949 75.9575 35.1841 75.5497C34.9733 75.1396 34.8679 74.6642 34.8679 74.1235C34.8679 73.5782 34.9733 73.1017 35.1841 72.6939C35.3949 72.2838 35.6939 71.9653 36.0811 71.7385C36.4705 71.5094 36.9322 71.3949 37.466 71.3949C37.9998 71.3949 38.4603 71.5094 38.8475 71.7385C39.237 71.9653 39.5371 72.2838 39.7479 72.6939C39.9587 73.1017 40.0641 73.5782 40.0641 74.1235C40.0641 74.6642 39.9587 75.1396 39.7479 75.5497C39.5371 75.9575 39.237 76.276 38.8475 76.5051C38.4603 76.7319 37.9998 76.8453 37.466 76.8453ZM37.4729 75.7112C37.7157 75.7112 37.9185 75.6425 38.0811 75.505C38.2438 75.3653 38.3664 75.1751 38.4489 74.9345C38.5336 74.694 38.576 74.4202 38.576 74.1132C38.576 73.8062 38.5336 73.5324 38.4489 73.2919C38.3664 73.0513 38.2438 72.8611 38.0811 72.7214C37.9185 72.5816 37.7157 72.5118 37.4729 72.5118C37.2277 72.5118 37.0215 72.5816 36.8543 72.7214C36.6893 72.8611 36.5645 73.0513 36.4797 73.2919C36.3972 73.5324 36.356 73.8062 36.356 74.1132C36.356 74.4202 36.3972 74.694 36.4797 74.9345C36.5645 75.1751 36.6893 75.3653 36.8543 75.505C37.0215 75.6425 37.2277 75.7112 37.4729 75.7112ZM42.48 73.6905V76.7422H41.016V71.4636H42.4112V72.3949H42.4731C42.5899 72.0879 42.7858 71.8451 43.0608 71.6664C43.3357 71.4854 43.669 71.3949 44.0608 71.3949C44.4274 71.3949 44.747 71.4751 45.0196 71.6354C45.2922 71.7958 45.5042 72.0249 45.6554 72.3227C45.8066 72.6183 45.8822 72.9711 45.8822 73.3812V76.7422H44.4182V73.6424C44.4205 73.3194 44.338 73.0673 44.1708 72.8863C44.0035 72.7031 43.7733 72.6114 43.48 72.6114C43.283 72.6114 43.1089 72.6538 42.9577 72.7386C42.8087 72.8233 42.6919 72.9471 42.6071 73.1097C42.5246 73.2701 42.4823 73.4637 42.48 73.6905ZM47.7508 78.7217C47.5653 78.7217 47.3911 78.7068 47.2285 78.677C47.0681 78.6495 46.9352 78.614 46.8298 78.5705L47.1597 77.4776C47.3316 77.5303 47.4862 77.5589 47.6237 77.5635C47.7634 77.5681 47.8837 77.536 47.9845 77.4673C48.0876 77.3986 48.1712 77.2817 48.2354 77.1168L48.3213 76.8934L46.4277 71.4636H47.9673L49.0602 75.3401H49.1152L50.2183 71.4636H51.7682L49.7166 77.3127C49.618 77.5968 49.484 77.8442 49.3145 78.055C49.1472 78.268 48.9353 78.4318 48.6787 78.5464C48.4221 78.6632 48.1128 78.7217 47.7508 78.7217ZM52.5174 76.7422V71.4636H53.9126V72.3949H53.9745C54.0845 72.0856 54.2677 71.8416 54.5243 71.6629C54.7809 71.4842 55.0879 71.3949 55.4453 71.3949C55.8073 71.3949 56.1155 71.4854 56.3698 71.6664C56.6241 71.8451 56.7936 72.0879 56.8784 72.3949H56.9334C57.0411 72.0925 57.2358 71.8508 57.5176 71.6698C57.8017 71.4865 58.1373 71.3949 58.5245 71.3949C59.0171 71.3949 59.4169 71.5518 59.7239 71.8657C60.0332 72.1773 60.1878 72.6194 60.1878 73.1922V76.7422H58.7273V73.4809C58.7273 73.1876 58.6494 72.9677 58.4936 72.821C58.3378 72.6744 58.1431 72.6011 57.9094 72.6011C57.6436 72.6011 57.4363 72.6859 57.2873 72.8554C57.1384 73.0227 57.064 73.2437 57.064 73.5187V76.7422H55.6447V73.4499C55.6447 73.1911 55.5702 72.9849 55.4213 72.8314C55.2747 72.6779 55.0811 72.6011 54.8405 72.6011C54.6778 72.6011 54.5312 72.6423 54.4006 72.7248C54.2723 72.805 54.1704 72.9184 54.0948 73.065C54.0192 73.2094 53.9814 73.3789 53.9814 73.5737V76.7422H52.5174ZM63.7292 76.8453C63.1954 76.8453 62.7338 76.7319 62.3443 76.5051C61.9571 76.276 61.6581 75.9575 61.4473 75.5497C61.2366 75.1396 61.1312 74.6642 61.1312 74.1235C61.1312 73.5782 61.2366 73.1017 61.4473 72.6939C61.6581 72.2838 61.9571 71.9653 62.3443 71.7385C62.7338 71.5094 63.1954 71.3949 63.7292 71.3949C64.263 71.3949 64.7235 71.5094 65.1107 71.7385C65.5002 71.9653 65.8003 72.2838 66.0111 72.6939C66.2219 73.1017 66.3273 73.5782 66.3273 74.1235C66.3273 74.6642 66.2219 75.1396 66.0111 75.5497C65.8003 75.9575 65.5002 76.276 65.1107 76.5051C64.7235 76.7319 64.263 76.8453 63.7292 76.8453ZM63.7361 75.7112C63.979 75.7112 64.1817 75.6425 64.3444 75.505C64.507 75.3653 64.6296 75.1751 64.7121 74.9345C64.7969 74.694 64.8392 74.4202 64.8392 74.1132C64.8392 73.8062 64.7969 73.5324 64.7121 73.2919C64.6296 73.0513 64.507 72.8611 64.3444 72.7214C64.1817 72.5816 63.979 72.5118 63.7361 72.5118C63.491 72.5118 63.2848 72.5816 63.1175 72.7214C62.9526 72.8611 62.8277 73.0513 62.7429 73.2919C62.6604 73.5324 62.6192 73.8062 62.6192 74.1132C62.6192 74.4202 62.6604 74.694 62.7429 74.9345C62.8277 75.1751 62.9526 75.3653 63.1175 75.505C63.2848 75.6425 63.491 75.7112 63.7361 75.7112ZM70.6643 74.4947V71.4636H72.1282V76.7422H70.7227V75.7834H70.6677C70.5486 76.0927 70.3504 76.3413 70.0732 76.5291C69.7982 76.717 69.4626 76.8109 69.0662 76.8109C68.7134 76.8109 68.403 76.7307 68.1349 76.5704C67.8669 76.41 67.6572 76.182 67.506 75.8865C67.3571 75.5909 67.2815 75.237 67.2792 74.8246V71.4636H68.7432V74.5634C68.7455 74.875 68.8291 75.1213 68.9941 75.3023C69.159 75.4833 69.3801 75.5737 69.6573 75.5737C69.8337 75.5737 69.9987 75.5337 70.1522 75.4535C70.3057 75.371 70.4294 75.2496 70.5234 75.0892C70.6196 74.9288 70.6665 74.7306 70.6643 74.4947ZM77.6912 72.9688L76.3509 73.0513C76.328 72.9367 76.2788 72.8336 76.2032 72.742C76.1276 72.6481 76.0279 72.5736 75.9042 72.5186C75.7828 72.4613 75.6373 72.4327 75.4677 72.4327C75.2409 72.4327 75.0496 72.4808 74.8938 72.577C74.738 72.671 74.6601 72.797 74.6601 72.9551C74.6601 73.0811 74.7105 73.1876 74.8113 73.2747C74.9122 73.3617 75.0851 73.4316 75.3303 73.4843L76.2856 73.6768C76.7988 73.7821 77.1814 73.9517 77.4335 74.1854C77.6855 74.4191 77.8115 74.7261 77.8115 75.1064C77.8115 75.4523 77.7095 75.7559 77.5056 76.0171C77.304 76.2782 77.0268 76.4822 76.674 76.6288C76.3234 76.7731 75.9191 76.8453 75.4609 76.8453C74.7621 76.8453 74.2054 76.6998 73.7907 76.4088C73.3783 76.1156 73.1366 75.7169 73.0656 75.2129L74.5055 75.1373C74.549 75.3504 74.6544 75.513 74.8217 75.6253C74.9889 75.7353 75.2031 75.7903 75.4643 75.7903C75.7209 75.7903 75.9271 75.741 76.0829 75.6425C76.241 75.5417 76.3212 75.4122 76.3234 75.2541C76.3212 75.1213 76.265 75.0124 76.1551 74.9277C76.0451 74.8406 75.8755 74.7742 75.6464 74.7283L74.7323 74.5462C74.2168 74.4431 73.8331 74.2644 73.581 74.0101C73.3313 73.7558 73.2065 73.4316 73.2065 73.0376C73.2065 72.6985 73.2981 72.4064 73.4814 72.1612C73.667 71.9161 73.927 71.7271 74.2615 71.5942C74.5983 71.4613 74.9923 71.3949 75.4437 71.3949C76.1104 71.3949 76.635 71.5358 77.0176 71.8176C77.4025 72.0994 77.6271 72.4831 77.6912 72.9688Z" fill="white"/>
</svg>
