<svg width="15" height="15" viewBox="0 0 24 24" fill="none" xmlns="http://www.w3.org/2000/svg">
<path d="M13.8309 21H10.1691M17.4926 9.36842C17.4926 7.94463 16.9139 6.57915 15.8839 5.57237C14.8538 4.5656 13.4567 4 12 4C10.5433 4 9.14621 4.5656 8.11615 5.57237C7.08608 6.57915 6.5074 7.94463 6.5074 9.36842C6.5074 12.1333 5.79379 14.0264 4.99663 15.2785C4.32421 16.3347 3.988 16.8628 4.00033 17.0102C4.01398 17.1733 4.04933 17.2355 4.18383 17.333C4.30529 17.4211 4.85284 17.4211 5.94794 17.4211H18.0521C19.1472 17.4211 19.6947 17.4211 19.8162 17.333C19.9507 17.2355 19.986 17.1733 19.9997 17.0102C20.012 16.8628 19.6758 16.3347 19.0034 15.2785C18.2062 14.0264 17.4926 12.1333 17.4926 9.36842Z" stroke="#212121" stroke-width="2" stroke-linecap="round" stroke-linejoin="round"/>
</svg>
