<svg width="24" height="24" viewBox="0 0 24 24" fill="none" xmlns="http://www.w3.org/2000/svg">
<path d="M3 7.8C3 6.11984 3 5.27976 3.32698 4.63803C3.6146 4.07354 4.07354 3.6146 4.63803 3.32698C5.27976 3 6.11984 3 7.8 3H16.2C17.8802 3 18.7202 3 19.362 3.32698C19.9265 3.6146 20.3854 4.07354 20.673 4.63803C21 5.27976 21 6.11984 21 7.8V16.2C21 17.8802 21 18.7202 20.673 19.362C20.3854 19.9265 19.9265 20.3854 19.362 20.673C18.7202 21 17.8802 21 16.2 21H7.8C6.11984 21 5.27976 21 4.63803 20.673C4.07354 20.3854 3.6146 19.9265 3.32698 19.362C3 18.7202 3 17.8802 3 16.2V7.8Z" stroke="#212121" stroke-width="2" stroke-linecap="round" stroke-linejoin="round"/>
<path d="M7 9.66667C7 8.73325 7 8.26654 7.18166 7.91002C7.34144 7.59641 7.59641 7.34144 7.91002 7.18166C8.26654 7 8.73325 7 9.66667 7H14.3333C15.2668 7 15.7335 7 16.09 7.18166C16.4036 7.34144 16.6586 7.59641 16.8183 7.91002C17 8.26654 17 8.73325 17 9.66667V14.3333C17 15.2668 17 15.7335 16.8183 16.09C16.6586 16.4036 16.4036 16.6586 16.09 16.8183C15.7335 17 15.2668 17 14.3333 17H9.66667C8.73325 17 8.26654 17 7.91002 16.8183C7.59641 16.6586 7.34144 16.4036 7.18166 16.09C7 15.7335 7 15.2668 7 14.3333V9.66667Z" fill="#CA5CF2"/>
</svg>
