<svg width="36" height="36" viewBox="0 0 36 36" fill="none" xmlns="http://www.w3.org/2000/svg">
<path fill-rule="evenodd" clip-rule="evenodd" d="M18 36C27.9411 36 36 27.9411 36 18C36 8.05887 27.9411 0 18 0C8.05887 0 0 8.05887 0 18C0 27.9411 8.05887 36 18 36ZM27.46 15.8636C27.7774 15.4309 27.6379 14.8299 27.1862 14.5402C26.7233 14.2434 26.1105 14.3873 25.7767 14.8244C24.9604 15.8934 23.9385 16.7864 22.7701 17.4463C21.3129 18.2694 19.6751 18.7033 18.0091 18.7077C16.3431 18.712 14.7031 18.2867 13.2418 17.4712C12.0702 16.8174 11.0439 15.9298 10.2222 14.8651C9.88617 14.4297 9.27257 14.2889 8.81109 14.5882C8.36087 14.8802 8.22444 15.482 8.54402 15.913C9.2859 16.9137 10.176 17.7898 11.1815 18.51L9.94064 19.775C9.55915 20.1639 9.55915 20.7866 9.94064 21.1755L10.019 21.2554C10.3985 21.6422 11.0169 21.6565 11.4138 21.2876L12.9559 19.854C13.0263 19.7886 13.0844 19.717 13.131 19.6413C14.3478 20.1992 15.6483 20.5431 16.9771 20.6588V23C16.9771 23.5523 17.4249 24 17.9771 24H18.0235C18.5758 24 19.0235 23.5523 19.0235 23V20.6559C20.4377 20.5287 21.8189 20.143 23.1005 19.5164C23.1458 19.6136 23.2083 19.7061 23.2892 19.7902L24.6551 21.209C25.0459 21.615 25.6948 21.618 26.0894 21.2158L26.1288 21.1755C26.5103 20.7866 26.5103 20.1639 26.1288 19.775L24.8458 18.467C25.8435 17.7429 26.7257 16.8648 27.46 15.8636Z" fill="#D8D8E2"/>
</svg>
