<svg width="32" height="32" viewBox="0 0 32 32" fill="none" xmlns="http://www.w3.org/2000/svg">
<path d="M19.1759 12.0369C19.9703 11.7595 20.8251 11.6085 21.7156 11.6085C22.5885 11.6085 23.4271 11.7536 24.2081 12.0206M9.48951 15.4791C9.1313 15.4096 8.76108 15.3732 8.38225 15.3732C5.22634 15.3732 2.66797 17.9015 2.66797 21.0203C2.66797 24.139 5.22634 26.6673 8.38225 26.6673H21.7156C25.9235 26.6673 29.3346 23.2963 29.3346 19.1379C29.3346 15.8422 27.1919 13.041 24.2081 12.0206M9.48951 15.4791C9.18405 14.6644 9.01718 13.7831 9.01718 12.8634C9.01718 8.70502 12.4283 5.33398 16.6362 5.33398C20.5558 5.33398 23.7841 8.25893 24.2081 12.0206M9.48951 15.4791C10.2421 15.6252 10.9417 15.9172 11.5569 16.3241" stroke="#212121" stroke-width="3" stroke-linecap="round"/>
</svg>
