<svg width="248" height="60" viewBox="0 0 248 60" fill="none" xmlns="http://www.w3.org/2000/svg">
<path fill-rule="evenodd" clip-rule="evenodd" d="M0.0554226 0.139417C0.00911042 0.216128 -0.0124901 13.6981 0.00740239 30.0995L0.0434567 59.9203L124.022 59.9602L248 60V30.0001V0L124.07 0C53.3167 0 0.103444 0.0598418 0.0554226 0.139417ZM20.8684 8.8335C23.3548 9.36809 25.4471 10.9749 26.4663 13.1323C27.3294 14.9594 27.4977 15.9348 27.5854 19.6153L27.664 22.9177H24.6299H21.5959L21.5422 19.7745C21.4891 16.6483 21.4865 16.6276 21.0564 15.9491C20.335 14.8106 19.2044 14.3322 17.7591 14.5542C16.856 14.6928 16.1338 15.2185 15.6622 16.0804L15.2736 16.7904L15.2303 29.3231L15.1869 41.8557L15.5229 42.6556C16.1146 44.0639 17.2633 44.6922 18.8704 44.4866C19.898 44.3552 20.6042 43.8734 21.1015 42.9645C21.4809 42.2712 21.4911 42.1657 21.539 38.4747L21.5881 34.6949H24.6253H27.6626L27.5889 38.793C27.507 43.3487 27.4124 43.9387 26.4349 45.9946C25.0275 48.9543 22.2186 50.4909 18.2264 50.4852C13.3863 50.478 10.4259 48.3268 9.19943 43.9256C8.93135 42.9639 8.90773 41.991 8.86235 30.0941C8.81013 16.3941 8.82474 16.0707 9.59215 13.982C10.6169 11.1926 12.7922 9.37096 15.8176 8.76825C16.9413 8.54449 19.689 8.57998 20.8684 8.8335ZM44.1547 9.12682C47.0152 10.1352 48.6607 11.9869 49.5788 15.2309L49.93 16.4721V29.602C49.93 41.8454 49.9108 42.8019 49.6455 43.7665C49.1465 45.5808 48.4872 46.7851 47.3796 47.9065C45.5391 49.7698 43.6422 50.4737 40.4401 50.4817C36.3034 50.4919 33.4779 48.9183 31.9794 45.77C30.8672 43.433 30.8748 43.5553 30.929 29.045C30.9728 17.2893 31.0011 16.0707 31.2507 15.2105C32.0125 12.5844 33.4805 10.641 35.4427 9.66109C37.1145 8.82634 38.354 8.59414 40.8386 8.65016C42.6377 8.69059 43.1102 8.75854 44.1547 9.12682ZM131.676 8.8335C133.367 9.19716 134.823 10.0122 135.913 11.2055C137.773 13.2421 138.274 14.9395 138.391 19.6153L138.475 22.9177H135.437H132.399L132.348 19.9336C132.3 17.1237 132.275 16.9031 131.909 16.154C131.434 15.1819 130.755 14.6961 129.678 14.5583C128.007 14.3444 126.724 15.0974 126.262 16.5633C126.03 17.2995 126.003 18.631 126.003 29.5118C126.003 39.8673 126.038 41.758 126.238 42.4493C126.662 43.9113 127.997 44.7018 129.678 44.4866C130.705 44.3552 131.411 43.8734 131.909 42.9645C132.294 42.2599 132.298 42.2197 132.347 37.6789L132.396 33.1034H130.987H129.578V30.1591V27.2148H134.018H138.459L138.395 35.053C138.324 43.7206 138.332 43.6404 137.26 45.9395C136.251 48.1043 134.327 49.6197 131.821 50.2243C130.256 50.6018 127.506 50.5663 125.953 50.1484C122.561 49.2355 120.567 46.9455 119.857 43.145C119.508 41.2727 119.525 17.6037 119.878 15.8127C120.797 11.1412 123.942 8.62295 128.878 8.6056C129.819 8.60242 131.077 8.70491 131.676 8.8335ZM162.565 8.90257C164.728 9.46931 166.173 10.4425 167.253 12.062C168.43 13.8265 169.052 16.2695 169.052 19.1337V20.2121H166.021H162.991L162.987 18.8992C162.979 16.0126 162.223 14.7595 160.356 14.5338C158.909 14.3589 157.648 15.0374 157.176 16.2455C156.524 17.9154 156.717 19.9413 157.738 22.122C158.343 23.4165 158.526 23.6325 161.989 27.1352C166.7 31.9005 167.516 33.0235 168.521 36.1272C168.931 37.3928 168.96 37.6546 168.967 40.1856C168.975 43.2066 168.812 44.1078 167.925 45.9653C167.325 47.2192 165.909 48.742 164.749 49.38C163.431 50.1048 161.76 50.4697 159.727 50.4769C154.788 50.4946 151.795 48.2879 150.624 43.7665C150.427 43.0097 150.351 42.0483 150.34 40.1856L150.325 37.6392H153.278H156.23L156.309 39.9468C156.379 42.0284 156.425 42.3241 156.775 42.9645C157.263 43.8585 157.959 44.3431 158.954 44.4833C161.293 44.8126 162.686 43.3659 162.676 40.6177C162.666 37.8496 161.672 36.0015 158.55 32.9442C155.024 29.4921 153.528 27.8625 152.673 26.5395C151.029 23.995 150.254 20.9293 150.472 17.8314C150.902 11.7057 153.964 8.63186 159.663 8.60289C160.884 8.59669 161.731 8.68422 162.565 8.90257ZM184.68 8.9247C187.99 9.81164 190.117 12.0745 190.915 15.5564C191.176 16.6954 191.198 17.7711 191.198 29.5225C191.198 41.186 191.174 42.3561 190.92 43.4644C190.089 47.087 187.874 49.419 184.5 50.2221C183.101 50.555 180.036 50.5512 178.765 50.2151C175.436 49.335 173.419 47.2439 172.43 43.6482C172.094 42.4264 172.09 42.2825 172.086 29.6816C172.082 15.3598 172.055 15.736 173.24 13.2749C174.353 10.9633 176.424 9.35361 178.947 8.84003C180.635 8.49643 183.224 8.53462 184.68 8.9247ZM207.982 9.13844C208.666 9.37748 209.47 9.72698 209.769 9.91509C211.346 10.9071 212.618 12.6312 213.306 14.709L213.732 15.9947L213.777 28.9654C213.827 43.5362 213.835 43.4026 212.723 45.7558C211.099 49.1945 207.499 50.9263 202.973 50.4468C198.714 49.9956 196.064 47.7306 195.047 43.671C194.795 42.664 194.772 41.4887 194.772 29.5225V16.4721L195.123 15.2309C195.655 13.3516 196.319 12.1416 197.412 11.0586C198.493 9.98735 199.614 9.36061 201.27 8.90178C202.189 8.64714 202.773 8.6021 204.563 8.64809C206.437 8.69616 206.911 8.76412 207.982 9.13844ZM62.8132 9.50926C62.8951 9.92353 63.2717 12.2804 65.8589 28.5676C67.2081 37.06 67.3077 37.6506 67.3602 37.4681C67.3983 37.3358 70.9171 13.5273 71.357 10.4244L71.5376 9.15117L76.0035 9.10899L80.4693 9.06666L80.4299 29.5599L80.3904 50.0529L77.3988 50.0962L74.4071 50.1393L74.3948 35.9318C74.3882 28.1175 74.3536 21.7957 74.3182 21.8832C74.2828 21.9708 73.8316 24.9071 73.3155 28.4084C72.7996 31.9097 72.2023 35.9561 71.9885 37.4004C71.7746 38.8447 71.2672 42.2824 70.8608 45.0397L70.1218 50.0529H67.1005H64.0792L61.8013 36.0477L59.5235 22.0424L59.5056 36.0911L59.4878 50.1398L56.7292 50.0964L53.9707 50.0529L53.9312 29.5623L53.8918 9.07159H58.3093H62.7267L62.8132 9.50926ZM91.1914 29.6054V50.139L88.0443 50.0961L84.8973 50.0529L84.8578 29.5623L84.8183 9.07159H88.0049H91.1914V29.6054ZM103.794 9.62862C103.852 9.89122 105 14.2599 106.344 19.3368C107.69 24.4137 109.044 29.56 109.354 30.7731L109.918 32.9784L109.958 21.0251L109.998 9.07159H112.873H115.747L115.708 29.5623L115.668 50.0529H112.405H109.143L108.09 46.0742C107.511 43.8858 106.87 41.4508 106.664 40.663C106.459 39.8752 105.827 37.476 105.26 35.3315C104.694 33.1869 103.956 30.3938 103.62 29.1246C103.285 27.8554 102.665 25.5278 102.242 23.9522L101.473 21.0875L101.461 35.5134C101.449 48.9406 101.43 49.9465 101.184 50.0432C101.039 50.1003 99.7448 50.1339 98.309 50.118L95.6983 50.089V29.5777V9.06618L99.6937 9.10868L103.689 9.15117L103.794 9.62862ZM225.938 9.74798C226.364 11.4132 228.328 18.8898 228.811 20.6896C229.105 21.7838 229.731 24.1472 230.202 25.9416C230.674 27.736 231.287 30.0636 231.565 31.114L232.07 33.0238L232.11 21.0477L232.15 9.07159H234.947H237.743V29.6067V50.1416L234.549 50.1258C231.422 50.1104 231.351 50.1027 231.209 49.7631C231.129 49.5724 230.255 46.3368 229.267 42.5728C228.278 38.8089 226.634 32.578 225.613 28.7262C224.592 24.8746 223.755 21.616 223.754 21.4849C223.752 21.32 223.716 21.3039 223.636 21.4327C223.555 21.5625 223.393 45.503 223.443 49.9336C223.445 50.0854 222.787 50.1325 220.665 50.1325C218.302 50.1325 217.87 50.0956 217.792 49.8869C217.741 49.752 217.698 40.5133 217.696 29.3565L217.693 9.07159H221.729L225.764 9.07159L225.938 9.74798ZM39.5176 14.622C38.4746 14.8989 37.7027 15.6573 37.4264 16.676C37.2038 17.4967 37.2062 41.5568 37.4289 42.3782C37.6317 43.1264 38.4185 44.063 39.0827 44.3472C39.6724 44.5995 40.8429 44.6256 41.6225 44.4037C41.9255 44.3176 42.3908 44.0136 42.6566 43.7283C43.6561 42.6551 43.6359 42.9472 43.6359 29.6254C43.6359 19.3753 43.601 17.4439 43.4031 16.7616C43.1315 15.8248 42.697 15.2064 42.0815 14.8804C41.5426 14.5951 40.1481 14.4544 39.5176 14.622ZM180.519 14.6635C179.792 14.8731 178.914 15.8489 178.692 16.6928C178.448 17.6213 178.464 41.7653 178.71 42.5057C179.155 43.8503 180.178 44.5648 181.65 44.5587C183.346 44.5517 184.422 43.6173 184.746 41.871C184.844 41.3415 184.904 36.6271 184.904 29.4547C184.904 19.6249 184.868 17.7526 184.667 16.9634C184.387 15.86 183.966 15.207 183.312 14.8607C182.714 14.5442 181.283 14.4429 180.519 14.6635ZM203.009 14.7218C202.181 15.0216 201.596 15.7211 201.299 16.7672C201.085 17.5215 201.061 19.1318 201.1 29.9406L201.144 42.2545L201.489 42.9158C202.129 44.1417 203.151 44.6582 204.659 44.5181C205.786 44.4134 206.48 43.9886 206.978 43.0979L207.36 42.4137L207.403 29.8716C207.433 20.9904 207.395 17.1366 207.271 16.6679C206.826 14.9737 204.83 14.0624 203.009 14.7218Z" fill="#D8D8E2"/>
</svg>
