<svg width="100" height="100" viewBox="0 0 100 100" fill="none" xmlns="http://www.w3.org/2000/svg">
<circle cx="50" cy="50" r="50" fill="#CA5CF2"/>
<circle cx="50" cy="50" r="48.7903" stroke="white" stroke-opacity="0.32" stroke-width="2.41935"/>
<path d="M6.0367 48.7407L11.2636 47.3325L11.269 47.2616L6.31507 45.0794L6.37344 44.3117L12.2517 46.9918L12.1942 47.7477L5.97834 49.5084L6.0367 48.7407Z" fill="white"/>
<path d="M14.0678 38.2983C13.9341 38.7157 13.7266 39.0462 13.4454 39.2898C13.163 39.531 12.8291 39.6801 12.444 39.737C12.0575 39.7915 11.6425 39.7477 11.1988 39.6055C10.7551 39.4634 10.39 39.2573 10.1034 38.9872C9.81549 38.7146 9.62329 38.4022 9.52676 38.05C9.42896 37.6953 9.44269 37.3224 9.56796 36.9314C9.64023 36.7058 9.7492 36.495 9.89487 36.2992C10.0405 36.1033 10.2269 35.9422 10.4539 35.8159C10.679 35.6891 10.9469 35.6163 11.2576 35.5977C11.5683 35.5791 11.9258 35.6345 12.33 35.764L12.612 35.8543L11.5423 39.1932L10.9671 39.0089L11.8199 36.3468C11.5755 36.2685 11.3417 36.2475 11.1187 36.2839C10.8962 36.3183 10.7009 36.4071 10.5327 36.5501C10.3652 36.6913 10.2429 36.8822 10.1658 37.1229C10.0809 37.388 10.0732 37.6384 10.1428 37.8742C10.2111 38.1075 10.333 38.3093 10.5085 38.4796C10.6841 38.6498 10.8912 38.7732 11.13 38.8497L11.5135 38.9725C11.8406 39.0773 12.136 39.1098 12.3996 39.0698C12.662 39.0274 12.8849 38.9237 13.0684 38.7586C13.25 38.5929 13.3838 38.3756 13.47 38.1068C13.526 37.9319 13.5521 37.7662 13.5484 37.6095C13.5434 37.4504 13.5077 37.3031 13.4412 37.1678C13.3728 37.0319 13.2724 36.9117 13.1401 36.8071L13.5265 36.2219C13.7229 36.3595 13.8783 36.5346 13.9925 36.7474C14.1049 36.9596 14.1695 37.198 14.1863 37.4625C14.2013 37.7264 14.1618 38.005 14.0678 38.2983Z" fill="white"/>
<path d="M16.3893 32.4606L12.4156 30.2476L12.7441 29.6577L13.3443 29.992L13.3673 29.9506C13.2111 29.7687 13.1245 29.5488 13.1077 29.2908C13.0909 29.0329 13.1488 28.785 13.2814 28.547C13.3063 28.5021 13.3384 28.4466 13.3776 28.3802C13.4168 28.3139 13.4477 28.2645 13.4704 28.2319L14.0913 28.5777C14.0746 28.5955 14.0404 28.6386 13.9887 28.707C13.9363 28.7728 13.8875 28.8461 13.8424 28.9272C13.7348 29.1204 13.6793 29.3154 13.6758 29.5123C13.6716 29.7066 13.7157 29.887 13.8081 30.0538C13.8998 30.2178 14.0353 30.3498 14.2147 30.4497L16.7293 31.8501L16.3893 32.4606Z" fill="white"/>
<path d="M20.0817 26.7201L16.5173 23.8948L16.9514 23.3471L20.5158 26.1725L20.0817 26.7201ZM16.144 23.1454C16.0593 23.2522 15.95 23.3154 15.816 23.3351C15.6832 23.3533 15.5657 23.3219 15.4636 23.241C15.3615 23.16 15.3042 23.0529 15.2915 22.9194C15.2801 22.7844 15.3168 22.6636 15.4014 22.5568C15.486 22.4501 15.5947 22.3876 15.7275 22.3694C15.8615 22.3497 15.9796 22.3803 16.0817 22.4613C16.1838 22.5422 16.2405 22.6502 16.2519 22.7852C16.2646 22.9186 16.2286 23.0387 16.144 23.1454Z" fill="white"/>
<path d="M22.1419 17.9343L22.5406 18.3723L20.7274 20.0228L20.3288 19.5848L22.1419 17.9343ZM23.9335 22.454L20.4493 18.6262C20.2739 18.4335 20.1729 18.2317 20.1465 18.0209C20.1201 17.81 20.1499 17.6067 20.236 17.4109C20.322 17.2151 20.4453 17.0441 20.6059 16.8979C20.7329 16.7823 20.8459 16.6982 20.9448 16.6456C21.0437 16.5929 21.1208 16.5574 21.1762 16.539L21.4339 17.1213C21.3997 17.1365 21.3532 17.1587 21.2945 17.1881C21.2373 17.2162 21.1715 17.2641 21.097 17.3319C20.9262 17.4873 20.842 17.6427 20.8445 17.7979C20.8485 17.9518 20.9262 18.112 21.0777 18.2784L24.4503 21.9836L23.9335 22.454Z" fill="white"/>
<path d="M29.0347 18.3942L26.556 14.5806L27.1419 14.1998L29.6207 18.0134L29.0347 18.3942ZM26.4408 13.7514C26.3266 13.8256 26.2028 13.8507 26.0695 13.8267C25.9378 13.8016 25.8365 13.7345 25.7655 13.6252C25.6945 13.516 25.6743 13.3961 25.7048 13.2656C25.737 13.134 25.8102 13.0311 25.9244 12.9569C26.0386 12.8827 26.1616 12.8581 26.2932 12.8832C26.4266 12.9072 26.5287 12.9738 26.5997 13.083C26.6707 13.1923 26.6901 13.3127 26.6579 13.4443C26.6274 13.5748 26.555 13.6772 26.4408 13.7514Z" fill="white"/>
<path d="M35.4833 15.0583C35.0899 15.2229 34.7124 15.2717 34.3505 15.2048C33.9887 15.1379 33.6631 14.9735 33.3738 14.7115C33.0844 14.4495 32.8521 14.1091 32.6769 13.6902C32.4986 13.2641 32.4196 12.8552 32.4398 12.4637C32.4611 12.0696 32.5744 11.7216 32.7797 11.4195C32.9861 11.1149 33.2787 10.8834 33.6575 10.7249C33.9525 10.6015 34.2413 10.5449 34.5237 10.5551C34.8062 10.5653 35.0642 10.6371 35.2976 10.7706C35.531 10.904 35.7208 11.0943 35.867 11.3413L35.2223 11.611C35.0931 11.4403 34.913 11.3167 34.6819 11.24C34.4519 11.1608 34.1948 11.1806 33.9107 11.2995C33.6594 11.4046 33.4665 11.5624 33.3319 11.7727C33.1984 11.9805 33.1284 12.2249 33.1218 12.5058C33.1163 12.7842 33.1798 13.0818 33.3124 13.3987C33.448 13.7228 33.6171 13.9838 33.8197 14.1815C34.0241 14.3785 34.2479 14.5042 34.4911 14.5586C34.7361 14.6123 34.9861 14.5859 35.241 14.4792C35.4086 14.4091 35.5484 14.3163 35.6607 14.2009C35.7729 14.0855 35.8535 13.9533 35.9024 13.8045C35.9514 13.6556 35.9639 13.4963 35.94 13.3265L36.5847 13.0568C36.6519 13.3197 36.6551 13.5805 36.5943 13.8392C36.5345 14.0953 36.4115 14.3308 36.2254 14.5456C36.0403 14.7579 35.7929 14.9288 35.4833 15.0583Z" fill="white"/>
<path d="M42.8026 12.8535C42.519 12.9052 42.2519 12.8986 42.0014 12.8339C41.7504 12.7672 41.5384 12.6443 41.3654 12.4651C41.1919 12.284 41.0787 12.0478 41.0256 11.7564C40.9789 11.5001 40.9916 11.2831 41.0636 11.1054C41.1352 10.9258 41.2472 10.775 41.3996 10.653C41.5519 10.5309 41.726 10.429 41.9218 10.3472C42.1192 10.2631 42.3193 10.1885 42.5222 10.1235C42.7877 10.039 43.0034 9.97266 43.1692 9.92442C43.3365 9.87387 43.455 9.8192 43.5246 9.76038C43.5961 9.70121 43.6217 9.61627 43.6016 9.50557L43.5973 9.48226C43.545 9.19482 43.4257 8.98579 43.2393 8.85518C43.055 8.72421 42.8045 8.68755 42.4879 8.74519C42.1597 8.80495 41.9154 8.92367 41.7552 9.10134C41.5949 9.27901 41.4917 9.45632 41.4457 9.63325L40.7507 9.51901C40.8177 9.22589 40.9345 8.9859 41.1012 8.79905C41.2694 8.6099 41.4636 8.46418 41.6837 8.36189C41.9055 8.2573 42.129 8.18449 42.3543 8.14347C42.498 8.1173 42.6663 8.10472 42.8591 8.10573C43.0535 8.10445 43.2476 8.14033 43.4415 8.21338C43.6374 8.28608 43.8128 8.41767 43.9679 8.60814C44.123 8.79862 44.2329 9.07157 44.2976 9.42699L44.8344 12.3752L44.1469 12.5004L44.0365 11.8945L44.0016 11.9008C43.9727 12.0064 43.9139 12.1245 43.8253 12.255C43.7367 12.3855 43.6091 12.506 43.4427 12.6166C43.2762 12.7272 43.0628 12.8062 42.8026 12.8535ZM42.795 12.2168C43.0669 12.1673 43.2863 12.0722 43.4533 11.9314C43.6223 11.7903 43.739 11.6266 43.8034 11.4403C43.8697 11.2536 43.8859 11.0671 43.8519 10.8806L43.7374 10.2514C43.7146 10.2916 43.6563 10.3353 43.5626 10.3825C43.4704 10.4274 43.3622 10.4722 43.2379 10.5169C43.1152 10.5593 42.9951 10.5992 42.8775 10.6367C42.7615 10.6719 42.6675 10.701 42.5954 10.7242C42.421 10.78 42.2609 10.8483 42.115 10.929C41.9708 11.0075 41.8605 11.1068 41.784 11.2271C41.7092 11.345 41.6877 11.4914 41.7195 11.6662C41.763 11.9051 41.8843 12.0696 42.0833 12.1598C42.2839 12.2477 42.5211 12.2667 42.795 12.2168Z" fill="white"/>
<path d="M51.6596 7.52947L51.6489 8.12161L49.2922 8.07916L49.3029 7.48702L51.6596 7.52947ZM50.0094 6.40986L50.7081 6.42244L50.63 10.7569C50.6265 10.9543 50.6524 11.1028 50.7079 11.2025C50.7654 11.3003 50.8392 11.3668 50.9294 11.402C51.0216 11.4353 51.119 11.4528 51.2216 11.4547C51.2986 11.456 51.3618 11.4532 51.4113 11.4462C51.4609 11.4372 51.5005 11.4301 51.5302 11.4247L51.661 12.0549C51.6133 12.0718 51.5469 12.0884 51.4617 12.1046C51.3764 12.1228 51.2687 12.1308 51.1384 12.1284C50.941 12.1249 50.7484 12.0789 50.5604 11.9907C50.3744 11.9024 50.2208 11.7703 50.0996 11.5944C49.9804 11.4185 49.9231 11.1983 49.9279 10.9338L50.0094 6.40986Z" fill="white"/>
<path d="M56.4042 12.5965L57.219 8.12171L57.9065 8.2469L57.0917 12.7217L56.4042 12.5965ZM57.7043 7.43957C57.5703 7.41517 57.4631 7.34848 57.3826 7.23952C57.3041 7.13091 57.2764 7.01251 57.2998 6.88433C57.3231 6.75614 57.3907 6.65507 57.5025 6.58112C57.6162 6.50752 57.7401 6.48292 57.8741 6.50732C58.0081 6.53172 58.1144 6.59823 58.1929 6.70684C58.2734 6.8158 58.302 6.93438 58.2786 7.06256C58.2553 7.19075 58.1868 7.29164 58.073 7.36524C57.9613 7.43919 57.8384 7.46397 57.7043 7.43957Z" fill="white"/>
<path d="M63.3789 14.5895C62.9959 14.4413 62.6952 14.2201 62.4767 13.926C62.26 13.6326 62.1341 13.2907 62.0989 12.9003C62.0655 12.5106 62.1336 12.0967 62.3032 11.6585C62.4742 11.2166 62.7035 10.8619 62.9912 10.5944C63.2808 10.3275 63.6044 10.1585 63.9621 10.0874C64.3217 10.017 64.693 10.0559 65.0759 10.204C65.4589 10.3522 65.7587 10.573 65.9754 10.8664C66.1939 11.1606 66.3195 11.5034 66.3521 11.8949C66.3866 12.2872 66.3183 12.7042 66.1473 13.1461C65.9778 13.5843 65.7486 13.9359 65.4598 14.2009C65.1728 14.4666 64.8495 14.6347 64.4899 14.7051C64.1322 14.7762 63.7618 14.7377 63.3789 14.5895ZM63.6054 14.004C63.8963 14.1166 64.1645 14.1346 64.41 14.0582C64.6555 13.9817 64.8704 13.8394 65.0546 13.6313C65.2389 13.4232 65.3859 13.1774 65.4956 12.8939C65.6053 12.6104 65.6625 12.3287 65.667 12.0489C65.6715 11.7692 65.6091 11.5175 65.4798 11.2938C65.3504 11.0702 65.1403 10.9021 64.8494 10.7895C64.5585 10.6769 64.2899 10.6598 64.0437 10.7381C63.7975 10.8164 63.5819 10.9605 63.397 11.1705C63.212 11.3804 63.0646 11.6272 62.9549 11.9107C62.8452 12.1942 62.7884 12.475 62.7846 12.7529C62.7808 13.0308 62.8439 13.2807 62.974 13.5025C63.1041 13.7243 63.3145 13.8915 63.6054 14.004Z" fill="white"/>
<path d="M71.8731 15.674L70.3206 17.927L69.7451 17.5304L72.326 13.7852L72.8819 14.1683L72.4786 14.7535L72.5274 14.7871C72.7462 14.6574 72.9848 14.5964 73.2432 14.6042C73.5026 14.6104 73.7738 14.711 74.0566 14.9059C74.3102 15.0806 74.4963 15.2855 74.6148 15.5206C74.7344 15.7541 74.7748 16.0121 74.7359 16.2946C74.6982 16.5754 74.5696 16.8752 74.35 17.1938L72.7101 19.5736L72.1347 19.1771L73.7477 16.8363C73.9505 16.5421 74.032 16.2602 73.9923 15.9907C73.9538 15.7196 73.8012 15.4922 73.5346 15.3085C73.3509 15.1819 73.1593 15.1086 72.9598 15.0886C72.7618 15.0697 72.5688 15.1081 72.3806 15.2037C72.1924 15.2994 72.0232 15.4561 71.8731 15.674Z" fill="white"/>
<path d="M88.4902 28.6065L83.3301 31.7928L82.9568 31.1881L85.2719 25.8746L85.2408 25.8242L81.1894 28.3259L80.8036 27.701L85.9636 24.5148L86.337 25.1195L84.0179 30.4493L84.0491 30.4997L88.1106 27.9918L88.4902 28.6065Z" fill="white"/>
<path d="M85.5833 36.7491L91.3751 34.951L92.4533 38.4238L91.8311 38.617L90.9707 35.8455L89.0137 36.4531L89.7933 38.9644L89.1712 39.1575L88.3915 36.6462L85.8011 37.4504L85.5833 36.7491Z" fill="white"/>
<path d="M93.0502 44.6704L93.7002 44.6269L94.0042 49.1651L93.3542 49.2086L93.2267 47.3059L87.8258 47.6676L87.7767 46.9349L93.1777 46.5731L93.0502 44.6704Z" fill="white"/>
<path fill-rule="evenodd" clip-rule="evenodd" d="M49.3547 24.23C44.2983 24.5262 39.3118 26.5818 35.8545 29.7955C35.0842 30.5115 34.4306 31.2542 33.8293 32.0968C33.2165 32.9556 33.0222 33.3707 33.0718 33.7154C33.1251 34.0851 33.3618 34.4266 33.6838 34.5981C33.8332 34.6777 33.8923 34.6886 34.1762 34.6887C34.4448 34.6889 34.5254 34.6758 34.6581 34.6103C34.8847 34.4985 35.0465 34.3254 35.2777 33.9479C36.1391 32.5412 37.6659 31.0237 39.4055 29.8454C42.3276 27.8662 45.7165 26.7181 49.3717 26.4691C50.0948 26.4199 51.7969 26.4492 52.4957 26.5229C56.6966 26.9659 60.497 28.6176 64.0874 31.561C64.7459 32.1008 64.7689 32.117 64.9541 32.1721C65.2013 32.2457 65.4675 32.2346 65.6939 32.1413C65.9698 32.0276 66.1354 31.8822 66.268 31.637C66.3755 31.4384 66.384 31.4006 66.384 31.1166C66.384 30.6385 66.2927 30.4933 65.6539 29.9542C64.9668 29.3744 63.8477 28.544 63.1071 28.0645C62.3694 27.5868 62.2066 27.4867 61.6979 27.1978C57.8243 24.998 53.5968 23.9816 49.3547 24.23ZM49.0292 29.4141C45.621 29.7384 42.4805 31.0482 39.6092 33.3426C37.3787 35.125 35.7436 37.3836 34.7493 40.0557C34.0392 41.9638 33.695 44.0318 33.6946 46.3924C33.6941 49.1694 34.1451 51.8548 35.1545 55.0849C35.4889 56.1553 36.1536 57.9141 36.4868 58.6106C36.74 59.14 37.0285 59.3377 37.5476 59.3376C38.1628 59.3375 38.6433 58.8425 38.6374 58.2149C38.6356 58.0182 38.6063 57.9243 38.3718 57.3644C37.0429 54.1906 36.2867 51.3103 35.9869 48.2806C35.9045 47.4482 35.9048 45.4286 35.9874 44.6573C36.3574 41.2003 37.5735 38.4871 39.76 36.2406C41.8435 34.0999 44.5551 32.5745 47.4362 31.9224C48.9835 31.5722 50.6994 31.499 52.3641 31.7123C57.2283 32.3354 61.8516 35.4092 64.0307 39.469C65.3082 41.8492 65.7744 44.1602 65.3793 46.1542C65.1781 47.1692 64.6987 48.1156 64.0593 48.7599C63.5885 49.2343 63.1459 49.5173 62.5808 49.7052C61.8062 49.9628 60.9874 49.9143 60.1662 49.5621C59.5869 49.3137 58.9243 48.8318 58.4265 48.2967C57.8633 47.6915 57.5934 47.184 56.9431 45.5078C56.3803 44.0573 55.9861 43.2134 55.5375 42.4988C54.7467 41.239 53.8004 40.4197 52.5742 39.9328C51.778 39.6168 50.5828 39.455 49.6134 39.5321C48.2227 39.6427 47.121 40.0601 46.1798 40.8328C44.9862 41.8128 44.2165 43.2574 43.9336 45.0485C43.8455 45.607 43.846 46.9417 43.9346 47.5151C44.1723 49.053 44.9363 51.0734 45.8579 52.6017C47.8768 55.9494 51.0381 58.5489 55.3074 60.3721C56.0637 60.695 57.0293 61.0589 57.2636 61.1093C57.7586 61.2157 58.3074 60.9011 58.5009 60.4001C58.5775 60.2018 58.5741 59.8258 58.4938 59.6142C58.348 59.2297 58.177 59.0991 57.4651 58.8288C54.6034 57.7422 52.5246 56.543 50.6576 54.9016C50.2273 54.5233 49.3707 53.6495 49.0864 53.2988C47.8654 51.7927 47.1 50.4274 46.5515 48.7775C46.1944 47.7036 46.0954 47.1648 46.0951 46.2947C46.0946 44.8222 46.4876 43.6917 47.2933 42.8486C48.06 42.0462 49.0215 41.7046 50.3565 41.7603C51.5243 41.8089 52.2837 42.1196 52.9925 42.8386C53.6045 43.4594 54.0933 44.369 54.8728 46.3379C55.5456 48.0367 55.8106 48.5731 56.3097 49.246C56.6078 49.648 57.2953 50.3464 57.7082 50.6668C59.1347 51.7737 60.7029 52.2458 62.2697 52.04C64.9233 51.6915 66.9634 49.571 67.5721 46.5285C67.805 45.3644 67.7981 44.0113 67.5524 42.684C67.223 40.9047 66.3278 38.7584 65.2453 37.1526C64.8447 36.5584 64.1312 35.6657 63.684 35.1992C63.5405 35.0495 63.3711 34.8708 63.3076 34.8021C63.244 34.7333 63.0267 34.5232 62.8247 34.3351C59.9033 31.6148 56.2139 29.9009 52.3008 29.4461C51.672 29.373 49.6671 29.3534 49.0292 29.4141ZM49.5075 34.5252C46.5288 34.721 43.7725 36.0561 41.938 38.192C40.8514 39.4571 40.1358 40.7533 39.5415 42.5326C39.0606 43.9722 38.8495 45.2703 38.8501 46.7836C38.8507 48.22 39.0016 49.3312 39.3768 50.6621C40.198 53.575 41.9131 56.4591 44.4952 59.2696C45.5044 60.368 47.588 62.31 48.2003 62.7228C48.3914 62.8517 48.7346 62.9292 48.9625 62.8949C49.4981 62.8145 49.8983 62.3512 49.8978 61.8123C49.8974 61.3401 49.7836 61.1534 49.1996 60.6668C48.108 59.7575 46.6657 58.3689 45.8047 57.3984C43.3843 54.6701 41.9374 52.0891 41.3386 49.4317C40.805 47.0637 41.0142 44.7217 41.9672 42.3948C42.6566 40.7114 43.6302 39.4014 44.8889 38.4636C46.422 37.3213 48.258 36.7472 50.3781 36.7472C51.3788 36.7472 52.118 36.8343 52.9958 37.0557C55.6117 37.7153 57.6865 39.152 58.8735 41.1259C59.6392 42.3992 60.2422 44.1134 60.427 45.5418C60.4803 45.9543 60.5631 46.1623 60.7494 46.3516C60.984 46.59 61.2247 46.6941 61.5415 46.6941C61.9844 46.6941 62.3512 46.4703 62.5488 46.0796C62.6414 45.8966 62.6485 45.8557 62.6459 45.5248C62.6399 44.7817 62.2883 43.3217 61.8344 42.1551C61.4694 41.2173 60.9743 40.2385 60.51 39.537C58.4667 36.45 54.4476 34.468 50.3122 34.5079C49.963 34.5113 49.6009 34.5191 49.5075 34.5252ZM49.8751 44.7552C49.4148 44.906 49.0831 45.3487 49.0831 45.812C49.0831 46.0797 49.4093 47.1623 49.786 48.1445C50.9502 51.1803 53.058 53.5617 56.1215 55.3022C58.0947 56.4233 60.5553 57.322 63.2939 57.9217C64.3577 58.1547 64.5786 58.1885 64.7844 58.1504C65.1544 58.0819 65.4406 57.8705 65.6047 57.5448C65.6914 57.3727 65.7041 57.3103 65.7041 57.0582C65.7042 56.7223 65.638 56.5413 65.4313 56.3121C65.2183 56.0758 65.0664 56.0096 64.4471 55.8827C60.3561 55.0443 57.3063 53.7472 55.1455 51.9268C54.7366 51.5823 53.9755 50.8194 53.6683 50.4461C52.7001 49.2697 51.9977 47.9101 51.4771 46.2052C51.2299 45.3958 51.1732 45.2528 51.0354 45.0915C50.973 45.0185 50.8261 44.9075 50.709 44.845C50.5372 44.7532 50.4496 44.7291 50.2565 44.72C50.1149 44.7134 49.9589 44.7278 49.8751 44.7552Z" fill="white"/>
<path d="M37.8815 75.1289H35.3866V68.0908H37.9021C38.6101 68.0908 39.2195 68.2317 39.7304 68.5135C40.2413 68.793 40.6342 69.1951 40.9092 69.7197C41.1864 70.2444 41.325 70.8721 41.325 71.603C41.325 72.3361 41.1864 72.9661 40.9092 73.4931C40.6342 74.02 40.239 74.4244 39.7235 74.7062C39.2103 74.988 38.5963 75.1289 37.8815 75.1289ZM36.8746 73.8539H37.8197C38.2595 73.8539 38.6296 73.776 38.9297 73.6202C39.2321 73.4622 39.4589 73.2182 39.6101 72.8883C39.7636 72.5561 39.8404 72.1276 39.8404 71.603C39.8404 71.0829 39.7636 70.6579 39.6101 70.328C39.4589 69.9981 39.2332 69.7552 38.9331 69.5994C38.633 69.4437 38.263 69.3658 37.8231 69.3658H36.8746V73.8539ZM42.3998 75.1289V69.8503H43.8638V75.1289H42.3998ZM43.1352 69.1699C42.9176 69.1699 42.7308 69.0977 42.575 68.9534C42.4215 68.8067 42.3448 68.6315 42.3448 68.4276C42.3448 68.226 42.4215 68.053 42.575 67.9086C42.7308 67.762 42.9176 67.6887 43.1352 67.6887C43.3529 67.6887 43.5384 67.762 43.6919 67.9086C43.8477 68.053 43.9256 68.226 43.9256 68.4276C43.9256 68.6315 43.8477 68.8067 43.6919 68.9534C43.5384 69.0977 43.3529 69.1699 43.1352 69.1699ZM47.4146 77.2183C46.9404 77.2183 46.5337 77.1531 46.1946 77.0225C45.8578 76.8942 45.5898 76.7189 45.3905 76.4967C45.1911 76.2744 45.0617 76.0247 45.0021 75.7475L46.3561 75.5654C46.3974 75.6707 46.4627 75.7693 46.552 75.8609C46.6414 75.9525 46.7594 76.0259 46.906 76.0808C47.0549 76.1381 47.2359 76.1668 47.449 76.1668C47.7674 76.1668 48.0298 76.0889 48.236 75.9331C48.4444 75.7796 48.5487 75.5218 48.5487 75.1598V74.1942H48.4868C48.4227 74.3408 48.3264 74.4794 48.1982 74.61C48.0699 74.7406 47.9049 74.8471 47.7033 74.9296C47.5017 75.0121 47.2611 75.0533 46.9816 75.0533C46.5852 75.0533 46.2244 74.9617 45.8991 74.7784C45.576 74.5928 45.3183 74.3099 45.1258 73.9295C44.9357 73.5469 44.8406 73.0635 44.8406 72.4793C44.8406 71.8813 44.938 71.3819 45.1327 70.9809C45.3275 70.58 45.5863 70.2799 45.9094 70.0806C46.2347 69.8812 46.591 69.7816 46.9782 69.7816C47.2737 69.7816 47.5211 69.832 47.7205 69.9328C47.9198 70.0313 48.0802 70.155 48.2016 70.3039C48.3253 70.4506 48.4204 70.5949 48.4868 70.737H48.5418V69.8503H49.9955V75.1805C49.9955 75.6295 49.8855 76.0052 49.6656 76.3077C49.4456 76.6101 49.1409 76.8369 48.7514 76.9881C48.3643 77.1416 47.9186 77.2183 47.4146 77.2183ZM47.4455 73.9536C47.6815 73.9536 47.8808 73.8952 48.0435 73.7783C48.2085 73.6592 48.3345 73.4897 48.4215 73.2697C48.5109 73.0475 48.5556 72.7817 48.5556 72.4724C48.5556 72.1631 48.512 71.8951 48.425 71.6683C48.3379 71.4392 48.2119 71.2616 48.0469 71.1356C47.882 71.0096 47.6815 70.9466 47.4455 70.9466C47.205 70.9466 47.0022 71.0119 46.8373 71.1425C46.6723 71.2708 46.5474 71.4495 46.4627 71.6786C46.3779 71.9077 46.3355 72.1723 46.3355 72.4724C46.3355 72.7771 46.3779 73.0406 46.4627 73.2628C46.5497 73.4828 46.6746 73.6535 46.8373 73.7749C47.0022 73.894 47.205 73.9536 47.4455 73.9536ZM51.1605 75.1289V69.8503H52.6245V75.1289H51.1605ZM51.8959 69.1699C51.6783 69.1699 51.4915 69.0977 51.3358 68.9534C51.1822 68.8067 51.1055 68.6315 51.1055 68.4276C51.1055 68.226 51.1822 68.053 51.3358 67.9086C51.4915 67.762 51.6783 67.6887 51.8959 67.6887C52.1136 67.6887 52.2991 67.762 52.4526 67.9086C52.6084 68.053 52.6863 68.226 52.6863 68.4276C52.6863 68.6315 52.6084 68.8067 52.4526 68.9534C52.2991 69.0977 52.1136 69.1699 51.8959 69.1699ZM56.6049 69.8503V70.95H53.4261V69.8503H56.6049ZM54.1477 68.5857H55.6117V73.5068C55.6117 73.642 55.6323 73.7474 55.6736 73.823C55.7148 73.8963 55.7721 73.9479 55.8454 73.9777C55.921 74.0074 56.0081 74.0223 56.1066 74.0223C56.1753 74.0223 56.244 74.0166 56.3128 74.0051C56.3815 73.9914 56.4342 73.9811 56.4709 73.9742L56.7011 75.0636C56.6278 75.0865 56.5247 75.1129 56.3918 75.1427C56.2589 75.1747 56.0974 75.1942 55.9073 75.2011C55.5544 75.2148 55.2451 75.1679 54.9794 75.0602C54.7159 74.9525 54.5109 74.7852 54.3642 74.5584C54.2176 74.3316 54.1454 74.0452 54.1477 73.6993V68.5857ZM59.0638 75.2286C58.727 75.2286 58.4269 75.1701 58.1634 75.0533C57.8999 74.9342 57.6914 74.7589 57.5379 74.5275C57.3867 74.2938 57.3111 74.0029 57.3111 73.6546C57.3111 73.3614 57.3649 73.1151 57.4726 72.9157C57.5803 72.7164 57.7269 72.5561 57.9125 72.4346C58.0981 72.3132 58.3089 72.2216 58.5448 72.1597C58.7831 72.0978 59.0328 72.0543 59.294 72.0291C59.601 71.997 59.8485 71.9672 60.0363 71.9398C60.2242 71.91 60.3605 71.8664 60.4453 71.8092C60.53 71.7519 60.5724 71.6671 60.5724 71.5549V71.5342C60.5724 71.3166 60.5037 71.1482 60.3662 71.0291C60.2311 70.9099 60.0386 70.8504 59.7889 70.8504C59.5254 70.8504 59.3158 70.9088 59.16 71.0256C59.0042 71.1402 58.9011 71.2845 58.8507 71.4586L57.4967 71.3487C57.5654 71.0279 57.7006 70.7507 57.9022 70.517C58.1038 70.281 58.3638 70.1 58.6823 69.974C59.0031 69.8457 59.3742 69.7816 59.7958 69.7816C60.089 69.7816 60.3697 69.8159 60.6377 69.8847C60.9081 69.9534 61.1475 70.0599 61.356 70.2043C61.5667 70.3486 61.7328 70.5342 61.8543 70.761C61.9757 70.9855 62.0364 71.2547 62.0364 71.5686V75.1289H60.648V74.3969H60.6068C60.522 74.5619 60.4086 74.7074 60.2666 74.8334C60.1245 74.9571 59.9538 75.0544 59.7545 75.1255C59.5552 75.1942 59.3249 75.2286 59.0638 75.2286ZM59.483 74.2182C59.6984 74.2182 59.8885 74.1758 60.0535 74.0911C60.2185 74.004 60.3479 73.8872 60.4418 73.7405C60.5358 73.5939 60.5827 73.4278 60.5827 73.2422V72.6821C60.5369 72.7118 60.4739 72.7393 60.3937 72.7645C60.3158 72.7874 60.2276 72.8092 60.1291 72.8298C60.0306 72.8482 59.9321 72.8653 59.8336 72.8814C59.735 72.8951 59.6457 72.9077 59.5655 72.9192C59.3937 72.9444 59.2436 72.9845 59.1153 73.0395C58.987 73.0944 58.8874 73.1689 58.8163 73.2628C58.7453 73.3545 58.7098 73.469 58.7098 73.6065C58.7098 73.8058 58.782 73.9582 58.9263 74.0636C59.0729 74.1667 59.2585 74.2182 59.483 74.2182ZM64.6362 68.0908V75.1289H63.1722V68.0908H64.6362ZM30.6656 79.0908V86.1289H29.1775V79.0908H30.6656ZM33.8075 86.2148C33.4065 86.2148 33.0434 86.1117 32.7181 85.9055C32.395 85.697 32.1384 85.3912 31.9483 84.988C31.7604 84.5824 31.6665 84.0853 31.6665 83.4965C31.6665 82.8916 31.7638 82.3888 31.9586 81.9878C32.1533 81.5846 32.4122 81.2833 32.7352 81.084C33.0606 80.8824 33.4168 80.7816 33.804 80.7816C34.0996 80.7816 34.3459 80.832 34.5429 80.9328C34.7422 81.0313 34.9026 81.155 35.024 81.3039C35.1477 81.4506 35.2417 81.5949 35.3058 81.737H35.3505V79.0908H36.811V86.1289H35.3677V85.2835H35.3058C35.2371 85.4301 35.1397 85.5756 35.0137 85.72C34.89 85.862 34.7285 85.98 34.5291 86.0739C34.3321 86.1679 34.0915 86.2148 33.8075 86.2148ZM34.2714 85.0498C34.5074 85.0498 34.7067 84.9857 34.8694 84.8574C35.0343 84.7268 35.1603 84.5446 35.2474 84.311C35.3367 84.0773 35.3814 83.8035 35.3814 83.4896C35.3814 83.1757 35.3379 82.9031 35.2508 82.6717C35.1638 82.4403 35.0378 82.2616 34.8728 82.1356C34.7078 82.0096 34.5074 81.9466 34.2714 81.9466C34.0308 81.9466 33.8281 82.0119 33.6631 82.1425C33.4982 82.2731 33.3733 82.4541 33.2885 82.6854C33.2038 82.9168 33.1614 83.1849 33.1614 83.4896C33.1614 83.7966 33.2038 84.0681 33.2885 84.3041C33.3756 84.5378 33.5005 84.7211 33.6631 84.8539C33.8281 84.9845 34.0308 85.0498 34.2714 85.0498ZM40.4203 86.232C39.8773 86.232 39.4099 86.122 39.0182 85.9021C38.6287 85.6799 38.3286 85.366 38.1178 84.9605C37.907 84.5527 37.8016 84.0704 37.8016 83.5137C37.8016 82.9707 37.907 82.4941 38.1178 82.084C38.3286 81.6739 38.6253 81.3543 39.0079 81.1252C39.3928 80.8961 39.8441 80.7816 40.3619 80.7816C40.7101 80.7816 41.0343 80.8377 41.3344 80.95C41.6369 81.0599 41.9003 81.226 42.1248 81.4483C42.3517 81.6705 42.5281 81.95 42.6541 82.2868C42.7801 82.6213 42.8431 83.0131 42.8431 83.4621V83.8642H38.3858V82.9569H41.465C41.465 82.7462 41.4192 82.5594 41.3276 82.3968C41.2359 82.2341 41.1088 82.107 40.9461 82.0153C40.7857 81.9214 40.599 81.8744 40.3859 81.8744C40.1637 81.8744 39.9667 81.926 39.7948 82.0291C39.6253 82.1299 39.4924 82.2662 39.3962 82.438C39.3 82.6076 39.2507 82.7966 39.2484 83.0051V83.8676C39.2484 84.1288 39.2965 84.3545 39.3928 84.5446C39.4913 84.7348 39.6299 84.8814 39.8086 84.9845C39.9873 85.0876 40.1992 85.1392 40.4444 85.1392C40.607 85.1392 40.7559 85.1163 40.8911 85.0704C41.0263 85.0246 41.142 84.9559 41.2382 84.8642C41.3344 84.7726 41.4077 84.6603 41.4582 84.5275L42.8122 84.6168C42.7434 84.9421 42.6025 85.2262 42.3895 85.4691C42.1787 85.7096 41.9061 85.8975 41.5716 86.0327C41.2394 86.1656 40.8556 86.232 40.4203 86.232ZM45.2624 83.0772V86.1289H43.7985V80.8503H45.1937V81.7816H45.2556C45.3724 81.4746 45.5683 81.2318 45.8432 81.0531C46.1182 80.8721 46.4515 80.7816 46.8433 80.7816C47.2098 80.7816 47.5294 80.8618 47.8021 81.0221C48.0747 81.1825 48.2866 81.4116 48.4379 81.7095C48.5891 82.005 48.6647 82.3578 48.6647 82.7679V86.1289H47.2007V83.0291C47.203 82.7061 47.1205 82.4541 46.9532 82.2731C46.786 82.0898 46.5557 81.9981 46.2625 81.9981C46.0655 81.9981 45.8913 82.0405 45.7401 82.1253C45.5912 82.2101 45.4744 82.3338 45.3896 82.4964C45.3071 82.6568 45.2647 82.8504 45.2624 83.0772ZM52.6262 80.8503V81.95H49.4473V80.8503H52.6262ZM50.169 79.5857H51.633V84.5068C51.633 84.642 51.6536 84.7474 51.6949 84.823C51.7361 84.8963 51.7934 84.9479 51.8667 84.9777C51.9423 85.0074 52.0294 85.0223 52.1279 85.0223C52.1966 85.0223 52.2653 85.0166 52.3341 85.0051C52.4028 84.9914 52.4555 84.9811 52.4922 84.9742L52.7224 86.0636C52.6491 86.0865 52.546 86.1129 52.4131 86.1427C52.2802 86.1747 52.1187 86.1942 51.9286 86.2011C51.5757 86.2148 51.2664 86.1679 51.0007 86.0602C50.7372 85.9525 50.5322 85.7852 50.3855 85.5584C50.2389 85.3316 50.1667 85.0452 50.169 84.6993V79.5857ZM53.5798 86.1289V80.8503H55.0438V86.1289H53.5798ZM54.3153 80.1699C54.0976 80.1699 53.9109 80.0977 53.7551 79.9534C53.6016 79.8067 53.5249 79.6315 53.5249 79.4276C53.5249 79.226 53.6016 79.053 53.7551 78.9086C53.9109 78.762 54.0976 78.6887 54.3153 78.6887C54.5329 78.6887 54.7185 78.762 54.872 78.9086C55.0278 79.053 55.1057 79.226 55.1057 79.4276C55.1057 79.6315 55.0278 79.8067 54.872 79.9534C54.7185 80.0977 54.5329 80.1699 54.3153 80.1699ZM59.0552 80.8503V81.95H55.7973V80.8503H59.0552ZM56.543 86.1289V80.4689C56.543 80.0862 56.6175 79.7689 56.7664 79.5169C56.9176 79.2649 57.1238 79.0759 57.385 78.9499C57.6462 78.8239 57.9429 78.7609 58.2751 78.7609C58.4996 78.7609 58.7046 78.7781 58.8902 78.8124C59.0781 78.8468 59.2178 78.8777 59.3095 78.9052L59.0483 80.0049C58.991 79.9866 58.92 79.9694 58.8352 79.9534C58.7528 79.9373 58.668 79.9293 58.5809 79.9293C58.3656 79.9293 58.2155 79.9797 58.1307 80.0805C58.046 80.179 58.0036 80.3176 58.0036 80.4963V86.1289H56.543ZM59.9495 86.1289V80.8503H61.4135V86.1289H59.9495ZM60.685 80.1699C60.4673 80.1699 60.2806 80.0977 60.1248 79.9534C59.9713 79.8067 59.8946 79.6315 59.8946 79.4276C59.8946 79.226 59.9713 79.053 60.1248 78.9086C60.2806 78.762 60.4673 78.6887 60.685 78.6887C60.9026 78.6887 61.0882 78.762 61.2417 78.9086C61.3975 79.053 61.4754 79.226 61.4754 79.4276C61.4754 79.6315 61.3975 79.8067 61.2417 79.9534C61.0882 80.0977 60.9026 80.1699 60.685 80.1699ZM65.394 80.8503V81.95H62.2151V80.8503H65.394ZM62.9368 79.5857H64.4008V84.5068C64.4008 84.642 64.4214 84.7474 64.4626 84.823C64.5039 84.8963 64.5612 84.9479 64.6345 84.9777C64.7101 85.0074 64.7971 85.0223 64.8957 85.0223C64.9644 85.0223 65.0331 85.0166 65.1018 85.0051C65.1706 84.9914 65.2233 84.9811 65.2599 84.9742L65.4902 86.0636C65.4169 86.0865 65.3138 86.1129 65.1809 86.1427C65.048 86.1747 64.8865 86.1942 64.6963 86.2011C64.3435 86.2148 64.0342 86.1679 63.7685 86.0602C63.505 85.9525 63.2999 85.7852 63.1533 85.5584C63.0067 85.3316 62.9345 85.0452 62.9368 84.6993V79.5857ZM67.2514 88.1084C67.0659 88.1084 66.8917 88.0935 66.7291 88.0637C66.5687 88.0362 66.4358 88.0007 66.3304 87.9572L66.6603 86.8643C66.8322 86.917 66.9868 86.9457 67.1243 86.9502C67.264 86.9548 67.3843 86.9228 67.4851 86.854C67.5882 86.7853 67.6718 86.6684 67.736 86.5035L67.8219 86.2801L65.9283 80.8503H67.4679L68.5608 84.7268H68.6158L69.7189 80.8503H71.2688L69.2172 86.6994C69.1186 86.9835 68.9846 87.2309 68.8151 87.4417C68.6478 87.6547 68.4359 87.8186 68.1793 87.9331C67.9227 88.05 67.6134 88.1084 67.2514 88.1084Z" fill="white"/>
</svg>
