<svg width="24" height="24" viewBox="0 0 24 24" fill="none" xmlns="http://www.w3.org/2000/svg">
<g opacity="0.5">
<path d="M7.17007 7.18186C10.9172 6.11125 13.0584 6.11125 16.8055 7.18186M6.63477 16.8173C10.3819 17.8879 13.5937 17.8879 17.3408 16.8173M7.70537 11.9996C7.70537 12.2835 7.81817 12.5558 8.01895 12.7566C8.21972 12.9574 8.49204 13.0702 8.77598 13.0702C9.05992 13.0702 9.33223 12.9574 9.53301 12.7566C9.73379 12.5558 9.84659 12.2835 9.84659 11.9996C9.84659 11.7156 9.73379 11.4433 9.53301 11.2426C9.33223 11.0418 9.05992 10.929 8.77598 10.929C8.49204 10.929 8.21972 11.0418 8.01895 11.2426C7.81817 11.4433 7.70537 11.7156 7.70537 11.9996ZM14.129 11.9996C14.129 12.2835 14.2418 12.5558 14.4426 12.7566C14.6434 12.9574 14.9157 13.0702 15.1996 13.0702C15.4836 13.0702 15.7559 12.9574 15.9567 12.7566C16.1574 12.5558 16.2702 12.2835 16.2702 11.9996C16.2702 11.7156 16.1574 11.4433 15.9567 11.2426C15.7559 11.0418 15.4836 10.929 15.1996 10.929C14.9157 10.929 14.6434 11.0418 14.4426 11.2426C14.2418 11.4433 14.129 11.7156 14.129 11.9996Z" stroke="#212121" stroke-width="2" stroke-linecap="round" stroke-linejoin="round"/>
<path d="M15.7343 17.3534C15.7343 18.424 17.3402 20.5652 17.8755 20.5652C19.4814 20.5652 20.9085 18.7805 21.6226 17.3534C22.3367 15.5687 22.1579 11.1086 20.0167 5.04146C18.4568 3.95479 16.8049 3.60684 15.199 3.43555L14.1284 6.11206M8.24002 17.3534C8.24002 18.424 6.78827 20.5652 6.27867 20.5652C4.74877 20.5652 3.39017 18.7805 2.71033 17.3534C2.0305 15.5687 2.20073 11.1086 4.23916 5.04146C5.72516 3.95479 7.21759 3.60684 8.77532 3.43555L9.84593 6.11206" stroke="#212121" stroke-width="2" stroke-linecap="round" stroke-linejoin="round"/>
</g>
</svg>
