<svg width="38" height="46" viewBox="0 0 38 46" fill="none" xmlns="http://www.w3.org/2000/svg">
<path d="M36.1833 14.3164C35.0462 11.6078 33.4796 9.25774 31.4845 7.26495C29.4888 5.27381 27.1348 3.70065 24.4217 2.54444C21.7075 1.38948 18.7747 0.811378 15.6227 0.811378H1.91592C0.99753 0.811378 0.539062 1.28967 0.539062 2.24583V25.1359H5.68677V5.8908H15.6227C17.9367 5.8908 20.1315 6.28965 22.207 7.0859C24.2815 7.88339 26.1068 9.00841 27.6836 10.4622C29.2596 11.9168 30.5063 13.6796 31.4247 15.7504C32.3423 17.8224 32.8014 20.1332 32.8014 22.6823C32.8014 24.9529 32.3825 27.1341 31.5443 29.2257C30.7065 31.317 29.5486 33.1693 28.0728 34.7828C26.5961 36.396 24.8304 37.6808 22.7757 38.6369C20.72 39.5933 18.4558 40.0712 15.982 40.0712H5.68677L0.539062 40.0317V43.8956C0.539062 44.3735 0.668206 44.7023 0.928372 44.8813C1.18729 45.0608 1.51641 45.1504 1.91592 45.1504H15.6227C18.6951 45.1504 21.588 44.5733 24.3019 43.4173C27.015 42.2628 29.3794 40.679 31.3949 38.6669C33.4096 36.6558 34.9956 34.3047 36.1533 31.6157C37.3102 28.9266 37.8891 26.0685 37.8891 23.0408C37.8891 19.9334 37.3206 17.026 36.1833 14.3164Z" fill="#212121"/>
</svg>
