<svg width="113" height="96" viewBox="0 0 113 96" fill="none" xmlns="http://www.w3.org/2000/svg">
<path d="M11.5041 95.1483C9.95703 96.0346 7.97661 95.5095 7.15818 93.9254C0.292195 80.6367 -1.72894 65.3589 1.50382 50.706C4.96817 35.0034 14.2165 21.1502 27.4368 11.8608C40.6571 2.57145 56.8966 -1.4847 72.9734 0.487117C87.9632 2.32562 101.804 9.28095 112.153 20.1052C113.396 21.4053 113.233 23.4701 111.862 24.6356C110.507 25.7885 108.482 25.6251 107.246 24.3449C97.953 14.7173 85.5744 8.53172 72.176 6.88842C57.7069 5.11378 43.0914 8.76431 31.1931 17.1248C19.2949 25.4852 10.9714 37.953 7.85344 52.0854C4.97032 65.1535 6.73041 78.774 12.7755 90.6574C13.5916 92.2617 13.0659 94.2535 11.5041 95.1483Z" fill="#44F268"/>
</svg>
