<svg width="130" height="96" viewBox="0 0 130 96" fill="none" xmlns="http://www.w3.org/2000/svg">
<path d="M11.5041 95.1483C9.95703 96.0346 7.97671 95.5096 7.15831 93.9256C2.46072 84.8332 -1.0516e-05 74.7483 -9.62002e-06 64.5C-8.63021e-06 53.1779 3.0034 42.0553 8.70833 32.25C14.4133 22.4448 22.6187 14.3024 32.5 8.64139C42.3812 2.98032 53.5901 8.57882e-06 65 9.5763e-06C76.4098 1.05738e-05 87.6187 2.9803 97.5 8.64135C107.381 14.3024 115.587 22.4447 121.292 32.25C126.997 42.0552 130 53.1778 130 64.4999C130 74.7483 127.539 84.8331 122.842 93.9255C122.023 95.5096 120.043 96.0346 118.496 95.1482C116.934 94.2535 116.408 92.2618 117.224 90.6575C121.344 82.5595 123.5 73.6013 123.5 64.5C123.5 54.3101 120.797 44.2997 115.662 35.475C110.528 26.6503 103.143 19.3222 94.25 14.2272C85.3568 9.13227 75.2689 6.45001 65 6.45001C54.7311 6.45001 44.6431 9.13229 35.75 14.2272C26.8569 19.3222 19.4719 26.6503 14.3375 35.475C9.20306 44.2997 6.49999 54.3101 6.5 64.5C6.5 73.6014 8.65641 82.5596 12.7757 90.6576C13.5917 92.2619 13.0659 94.2535 11.5041 95.1483Z" fill="#EDEDF3"/>
</svg>
