<svg width="11" height="9" viewBox="0 0 11 9" fill="none" xmlns="http://www.w3.org/2000/svg">
<path d="M5.16372 8.98136L0.78303 4.60068C0.433598 4.25124 0.200654 3.84499 0.0841771 3.38193C-0.0294593 2.91886 -0.0280429 2.45863 0.0884343 2.00124C0.204912 1.54102 0.436439 1.14045 0.78303 0.799538C1.13814 0.450106 1.54298 0.218572 1.99752 0.104936C2.45491 -0.0115412 2.91088 -0.0115412 3.36543 0.104936C3.82281 0.221413 4.22906 0.452947 4.58418 0.799538L5.16372 1.36204L5.74327 0.799538C6.10122 0.452947 6.50747 0.221413 6.96202 0.104936C7.41656 -0.0115412 7.8711 -0.0115412 8.32565 0.104936C8.78303 0.218572 9.18928 0.450106 9.5444 0.799538C9.89099 1.14045 10.1225 1.54102 10.239 2.00124C10.3555 2.45863 10.3555 2.91886 10.239 3.38193C10.1254 3.84499 9.89383 4.25124 9.5444 4.60068L5.16372 8.98136Z" fill="#CA5CF2"/>
</svg>
