<svg width="32" height="32" viewBox="0 0 32 32" fill="none" xmlns="http://www.w3.org/2000/svg">
<path d="M20.7716 4.50864L23.4382 5.90804C26.3071 7.41357 27.7416 8.16633 28.5381 9.519C29.3346 10.8717 29.3346 12.5549 29.3346 15.9214V16.0773C29.3346 19.4438 29.3346 21.127 28.5381 22.4797C27.7416 23.8324 26.3071 24.5851 23.4382 26.0907L20.7716 27.4901C18.4307 28.7185 17.2603 29.3327 16.0013 29.3327C14.7423 29.3327 13.5719 28.7185 11.231 27.4901L8.56436 26.0907C5.69547 24.5851 4.26103 23.8324 3.4645 22.4797C2.66797 21.127 2.66797 19.4438 2.66797 16.0773V15.9214C2.66797 12.5549 2.66797 10.8717 3.4645 9.519C4.26103 8.16633 5.69547 7.41357 8.56436 5.90804L11.231 4.50864C13.5719 3.28022 14.7423 2.66602 16.0013 2.66602C17.2603 2.66602 18.4307 3.28022 20.7716 4.50864Z" stroke="#212121" stroke-width="3" stroke-linecap="round"/>
<path d="M28 10L16 16M16 16L4 10M16 16V28.6667" stroke="#212121" stroke-width="3" stroke-linecap="round"/>
</svg>
