<svg width="24" height="24" viewBox="0 0 24 24" fill="none" xmlns="http://www.w3.org/2000/svg">
<path d="M7.5 9.73664L3 12L11.678 16.3648C11.7961 16.4241 11.8551 16.4538 11.917 16.4655C11.9719 16.4759 12.0281 16.4759 12.083 16.4655C12.1449 16.4538 12.2039 16.4241 12.322 16.3648L21 12L16.5 9.73664M7.5 14.2634L3 16.5267L11.678 20.8915C11.7961 20.9509 11.8551 20.9806 11.917 20.9922C11.9719 21.0026 12.0281 21.0026 12.083 20.9922C12.1449 20.9806 12.2039 20.9509 12.322 20.8915L21 16.5267L16.5 14.2634M3 7.47328L11.678 3.10852C11.7961 3.04914 11.8551 3.01945 11.917 3.00776C11.9719 2.99741 12.0281 2.99741 12.083 3.00776C12.1449 3.01945 12.2039 3.04914 12.322 3.10852L21 7.47328L12.322 11.838C12.2039 11.8974 12.1449 11.9271 12.083 11.9388C12.0281 11.9492 11.9719 11.9492 11.917 11.9388C11.8551 11.9271 11.7961 11.8974 11.678 11.838L3 7.47328Z" stroke="#212121" stroke-width="2" stroke-linecap="round" stroke-linejoin="round"/>
</svg>
