<svg width="16" height="16" viewBox="0 0 16 16" fill="none" xmlns="http://www.w3.org/2000/svg">
<path fill-rule="evenodd" clip-rule="evenodd" d="M11.1796 0.30907C10.7437 0.65721 9.47786 1.72932 7.54991 3.38333C4.73148 5.8013 4.20162 6.25211 3.13723 7.13716C1.47772 8.51709 1.33204 8.66088 1.33204 8.91812C1.33204 9.34282 1.31071 9.33986 4.38902 9.33986C6.27638 9.33986 7.14876 9.36176 7.14876 9.40912C7.14876 9.4472 6.71632 10.2981 6.18773 11.3001C3.95865 15.5258 3.97196 15.4984 4.04343 15.6984C4.12948 15.9391 4.36723 16.0557 4.60525 15.9741C4.7048 15.94 5.32799 15.4471 5.99009 14.8787C7.82985 13.2996 9.54244 11.8355 9.89178 11.5433C10.0647 11.3986 10.5187 11.0125 10.9006 10.6853C11.2824 10.3581 11.9409 9.79915 12.3638 9.44325C14.3291 7.78918 14.8274 7.34599 14.8601 7.22287C14.9098 7.036 14.7735 6.77653 14.6088 6.74443C14.5323 6.7295 13.2533 6.7001 11.7665 6.67912C10.2797 6.65813 9.0529 6.63084 9.04026 6.61847C9.02769 6.60604 9.24044 6.16996 9.51309 5.64936C11.8688 1.1513 12.1632 0.567561 12.1632 0.394642C12.1632 0.181404 11.9578 0 11.7163 0C11.634 0 11.3925 0.139111 11.1796 0.30907Z" fill="#E9B360"/>
</svg>
