<svg width="51" height="60" viewBox="0 0 51 60" fill="none" xmlns="http://www.w3.org/2000/svg">
<g clip-path="url(#clip0_456_8426)">
<path d="M49.5625 11.1943C49.5296 11.076 49.446 10.972 49.3215 10.9213L25.2262 1.06251C25.1889 1.05897 25.1637 2.18254 25.147 4.01417M25.1328 22.5395C25.1159 15.9324 25.1086 8.15753 25.1461 4.01389M0.731962 11.1943C0.765081 11.076 0.848401 10.972 0.972965 10.9213L25.0682 1.06251C25.1055 1.05897 25.1309 2.18254 25.1474 4.01417M0.730605 11.1948C0.70186 11.298 0.711025 11.4121 0.769765 11.5134L16.2523 38.1759C16.4845 38.5758 16.9967 38.7137 17.399 38.4843L25.1173 34.0811C25.119 34.0583 25.1327 31.1815 25.146 27.1364M25.1474 27.1354C25.1428 25.7222 25.1382 24.1663 25.1341 22.5393L0.731962 11.194M49.5625 11.1948C49.5912 11.298 49.5822 11.4121 49.5233 11.5134L34.041 38.1759C33.8087 38.5758 33.2963 38.7137 32.8941 38.4843L25.176 34.0811C25.1743 34.0583 25.1606 31.1815 25.147 27.1364M49.5614 11.194L25.1595 22.5395" stroke="#212121" stroke-width="1.06236" stroke-miterlimit="10"/>
<path d="M25.1477 52.1831V44.6868M25.1481 52.1831C25.3172 52.1831 25.4865 52.1018 25.5878 51.9392L32.1615 41.3796C32.3163 41.1309 32.2334 40.8033 31.9786 40.658L25.4049 36.908C25.2458 36.8171 25.0504 36.8171 24.8912 36.908L18.3175 40.658C18.0627 40.8033 17.9798 41.1309 18.1348 41.3796L24.7085 51.9392C24.8096 52.1018 24.9789 52.1831 25.1481 52.1831ZM25.1486 44.688C25.8173 44.688 26.3593 44.1469 26.3593 43.4793C26.3593 42.812 25.8173 42.2707 25.1486 42.2707C24.4802 42.2707 23.938 42.812 23.938 43.4793C23.938 44.1469 24.4802 44.688 25.1486 44.688Z" stroke="#CA5CF2" stroke-width="1.06236" stroke-miterlimit="10"/>
<path d="M24.0569 57.3662C24.5781 56.8461 25.4229 56.8461 25.9441 57.3662C26.4653 57.8865 26.4653 58.7301 25.9441 59.2504C25.4229 59.7707 24.5781 59.7707 24.0569 59.2504C23.5357 58.7301 23.5357 57.8865 24.0569 57.3662Z" fill="#CA5CF2"/>
</g>
<defs>
<clipPath id="clip0_456_8426">
<rect width="50.1964" height="59.7577" fill="white"/>
</clipPath>
</defs>
</svg>
