<svg width="130" height="49" viewBox="0 0 130 49" fill="none" xmlns="http://www.w3.org/2000/svg">
<path d="M49.5608 31.7675H58.916C61.013 31.7675 62.9874 31.3723 64.8398 30.5808C66.6915 29.7903 68.3052 28.7061 69.681 27.3281C71.0559 25.9511 72.1385 24.3413 72.9286 22.5002C73.7183 20.6589 74.1134 18.7021 74.1134 16.6289C74.1134 14.5012 73.7253 12.5106 72.9492 10.6553C72.1729 8.8009 71.1037 7.19166 69.7422 5.82734C68.3799 4.46387 66.7732 3.38673 64.9215 2.59521C63.0691 1.80426 61.0672 1.40849 58.916 1.40849H49.5608C48.9338 1.40849 48.6211 1.73595 48.6211 2.39071V18.0635H52.1345V4.88639H58.916C60.4954 4.88639 61.9935 5.15948 63.4099 5.70467C64.8258 6.25071 66.0718 7.02096 67.148 8.01642C68.2234 9.01244 69.0743 10.2194 69.7012 11.6373C70.3275 13.0561 70.6409 14.6381 70.6409 16.3836C70.6409 17.9383 70.355 19.4318 69.783 20.8638C69.2112 22.2957 68.4208 23.564 67.4135 24.6689C66.4055 25.7734 65.2005 26.6532 63.798 27.3078C62.395 27.9624 60.8496 28.2897 59.1612 28.2897H52.1345L48.6211 28.2627V31.7754" fill="#212121"/>
<path d="M80.977 21.6615L86.9827 6.68682L92.9471 21.6615H80.977ZM79.5064 25.1392H94.3767L96.7464 30.9901C96.9367 31.5086 97.3044 31.7676 97.8493 31.7676H99.6062C100.205 31.7676 100.505 31.5496 100.505 31.1128C100.505 31.0585 100.491 30.9492 100.464 30.7856C100.437 30.7311 100.409 30.6769 100.382 30.6218L88.6166 2.14502C88.5621 2.0091 88.4666 1.85235 88.3306 1.67447C88.194 1.49743 87.9491 1.40857 87.5954 1.40857H86.4105C86.0289 1.40857 85.7774 1.49743 85.655 1.67447C85.5322 1.85235 85.4435 2.0091 85.3892 2.14502C85.3075 2.33628 85.1575 2.69753 84.9398 3.2292C84.7215 3.7613 84.374 4.59366 83.8982 5.72531C83.4213 6.85752 82.7401 8.48055 81.8554 10.5941C80.97 12.7083 79.8536 15.3811 78.5055 18.6133C77.7085 20.5242 75.793 25.1402 75.793 25.1402" fill="#212121"/>
<path d="M128.775 10.5338C127.958 8.62484 126.841 6.96771 125.425 5.56269C124.009 4.1581 122.354 3.04645 120.462 2.22817C118.569 1.40961 116.546 1.00061 114.395 1.00061C112.243 1.00061 110.221 1.40961 108.328 2.22817C106.435 3.04645 104.78 4.16514 103.365 5.58297C101.948 7.00151 100.832 8.65864 100.015 10.5541C99.1977 12.4505 98.7891 14.4757 98.7891 16.63C98.7891 18.785 99.1977 20.8104 100.015 22.7059C100.551 23.9513 101.217 25.0883 102.006 26.1217C102.886 25.3359 103.899 24.698 104.799 23.9315C104.196 23.1299 103.69 22.2518 103.283 21.2944C102.656 19.8215 102.343 18.2534 102.343 16.589C102.343 14.9256 102.656 13.364 103.283 11.9043C103.909 10.4456 104.767 9.17003 105.857 8.07894C106.946 6.98828 108.226 6.12887 109.697 5.50129C111.167 4.87399 112.733 4.5602 114.395 4.5602C116.056 4.5602 117.616 4.87399 119.073 5.50129C120.529 6.12887 121.803 6.98828 122.893 8.07894C123.982 9.17003 124.84 10.4456 125.466 11.9043C126.093 13.364 126.406 14.9256 126.406 16.589C126.406 18.2534 126.093 19.8215 125.466 21.2944C124.84 22.7674 123.982 24.0561 122.893 25.1607C121.803 26.2656 120.529 27.1318 119.073 27.7591C117.616 28.3866 116.056 28.7 114.395 28.7C113.798 28.7 113.213 28.6579 112.641 28.5769L112.641 28.5771C112.243 29.3204 111.833 30.055 111.458 30.8119L110.945 31.8478C112.043 32.0921 113.179 32.2188 114.354 32.2188C116.533 32.2188 118.569 31.8095 120.462 30.9912C122.354 30.1729 124.009 29.0617 125.425 27.6567C126.841 26.2521 127.958 24.6085 128.775 22.7264C129.592 20.8444 130.001 18.8261 130.001 16.6709C130.001 14.4891 129.592 12.4434 128.775 10.5338Z" fill="#212121"/>
<path d="M51.3481 45.9844C50.8354 45.9844 50.3785 45.9068 49.9774 45.7521C49.5761 45.5972 49.2377 45.3888 48.9622 45.1274C48.6866 44.866 48.481 44.5706 48.3457 44.2413L49.535 43.7184C49.6897 44.0187 49.9217 44.263 50.2312 44.4519C50.5406 44.6408 50.8839 44.7353 51.261 44.7353C51.6766 44.7353 52.02 44.6603 52.2909 44.5101C52.5614 44.3601 52.697 44.1446 52.697 43.8636C52.697 43.5926 52.5955 43.3795 52.3924 43.2245C52.1893 43.0697 51.8943 42.9436 51.5076 42.8469L50.8259 42.6724C50.149 42.4887 49.6222 42.2127 49.245 41.8444C48.8679 41.4765 48.6793 41.0601 48.6793 40.5953C48.6793 39.8885 48.9089 39.3412 49.3682 38.9538C49.8275 38.5666 50.5018 38.3728 51.3915 38.3728C51.8266 38.3728 52.2256 38.4359 52.5881 38.5617C52.9507 38.6876 53.2601 38.8668 53.5164 39.099C53.7725 39.3315 53.9538 39.6076 54.0604 39.927L52.9001 40.4501C52.7839 40.1595 52.5856 39.9466 52.3053 39.8109C52.0248 39.6753 51.6961 39.6076 51.319 39.6076C50.9321 39.6076 50.6277 39.69 50.4053 39.8545C50.1827 40.0192 50.0718 40.2516 50.0718 40.5518C50.0718 40.7165 50.166 40.8739 50.3546 41.0237C50.5431 41.1741 50.8209 41.2975 51.1885 41.3941L51.9718 41.583C52.4454 41.6992 52.8371 41.8761 53.1466 42.1133C53.456 42.3506 53.688 42.6169 53.8428 42.9122C53.9974 43.2077 54.0749 43.515 54.0749 43.8346C54.0749 44.2704 53.9563 44.6505 53.7195 44.9748C53.4824 45.2995 53.1587 45.5486 52.7478 45.723C52.3366 45.8973 51.8702 45.9844 51.3481 45.9844Z" fill="#CA5CF2"/>
<path d="M55.5973 45.8086L55.6264 38.5456H56.9896L56.9752 45.8086H55.5973ZM56.2935 37.0058C56.0709 37.0058 55.8777 36.9212 55.7133 36.7516C55.5488 36.5823 55.4668 36.3863 55.4668 36.1635C55.4668 35.9309 55.5488 35.7349 55.7133 35.575C55.8777 35.4152 56.0709 35.3355 56.2935 35.3355C56.5256 35.3355 56.7213 35.4152 56.8809 35.575C57.0404 35.7349 57.1203 35.9309 57.1203 36.1635C57.1203 36.3863 57.0404 36.5823 56.8809 36.7516C56.7213 36.9212 56.5256 37.0058 56.2935 37.0058Z" fill="#CA5CF2"/>
<path d="M62.2099 44.5446C62.616 44.5446 62.9689 44.4358 63.2687 44.2177C63.5684 43.9999 63.8053 43.7045 63.9794 43.3317C64.1535 42.9589 64.2404 42.5305 64.2404 42.0461C64.2404 41.5619 64.1535 41.136 63.9794 40.7679C63.8053 40.3998 63.5661 40.1118 63.2615 39.9035C62.9569 39.6954 62.6016 39.5911 62.1954 39.5911C61.7699 39.5911 61.3953 39.6954 61.0714 39.9035C60.7474 40.1118 60.4934 40.3998 60.3099 40.7679C60.1261 41.136 60.0343 41.5619 60.0343 42.0461C60.0343 42.5305 60.1286 42.9589 60.3172 43.3317C60.5057 43.7045 60.7619 43.9999 61.0859 44.2177C61.4097 44.4358 61.7844 44.5446 62.2099 44.5446ZM61.9924 48.9023C61.5088 48.9023 61.0689 48.8563 60.6724 48.7643C60.276 48.6722 59.9423 48.5683 59.6717 48.4521C59.4009 48.3359 59.1978 48.2341 59.0625 48.147L59.5847 47.0286C59.7103 47.1059 59.8893 47.1955 60.1213 47.2972C60.3534 47.399 60.6241 47.4861 60.9336 47.5586C61.243 47.6314 61.5862 47.6677 61.9634 47.6677C62.4081 47.6677 62.8046 47.578 63.1527 47.399C63.5009 47.2196 63.774 46.9414 63.9723 46.5637C64.1703 46.186 64.2695 45.7019 64.2695 45.1111V38.5453H65.6474V45.0819C65.6474 45.9148 65.4902 46.6145 65.176 47.181C64.8617 47.7475 64.4313 48.176 63.8852 48.4666C63.3387 48.7571 62.7079 48.9023 61.9924 48.9023ZM61.8619 45.7067C61.2042 45.7067 60.6312 45.5542 60.1431 45.2491C59.6547 44.944 59.2729 44.5181 58.9973 43.9708C58.7217 43.4238 58.584 42.792 58.584 42.0751C58.584 41.3295 58.7217 40.6805 58.9973 40.1287C59.2729 39.5768 59.6547 39.1459 60.1431 38.8358C60.6312 38.5261 61.2042 38.371 61.8619 38.371C62.4614 38.371 62.9859 38.5261 63.4355 38.8358C63.8852 39.1459 64.2333 39.5792 64.4799 40.1359C64.7264 40.6928 64.8496 41.344 64.8496 42.0896C64.8496 42.8064 64.7264 43.4383 64.4799 43.9852C64.2333 44.5325 63.8852 44.9563 63.4355 45.2564C62.9859 45.5567 62.4614 45.7067 61.8619 45.7067Z" fill="#CA5CF2"/>
<path d="M72.4071 45.8086V42.09L73.785 41.6541V45.8086H72.4071ZM72.4071 42.09C72.4071 41.4316 72.3321 40.9303 72.1822 40.5865C72.0322 40.2427 71.8243 40.0032 71.5585 39.8674C71.2925 39.7319 70.9858 39.6594 70.6376 39.6497C70.0476 39.6497 69.5882 39.858 69.2597 40.2742C68.9308 40.6906 68.7665 41.2765 68.7665 42.0318H68.172C68.172 41.2669 68.2829 40.6108 68.5055 40.0636C68.7279 39.5166 69.0493 39.0976 69.47 38.807C69.8906 38.5166 70.3957 38.3713 70.9858 38.3713C71.856 38.3713 72.5398 38.6401 73.0379 39.1774C73.5359 39.7149 73.785 40.5408 73.785 41.6541L72.4071 42.09ZM67.3887 45.8086V38.5456H68.6795L68.7665 39.8821V45.8086H67.3887Z" fill="#CA5CF2"/>
<path fill-rule="evenodd" clip-rule="evenodd" d="M37.9128 9.76561L37.9128 9.76562L37.9708 9.62369L38.7367 9.41034C38.6751 9.18816 38.5157 8.98465 38.2728 8.88479L38.2728 8.88477L19.624 1.21996L19.4887 1.18652C19.3235 1.17087 19.1997 1.24253 19.1327 1.30047C19.0716 1.35332 19.0387 1.40905 19.0247 1.43474C18.9959 1.4878 18.9834 1.53493 18.9796 1.54941C18.9698 1.58724 18.965 1.6224 18.9628 1.64046C18.9574 1.68312 18.9535 1.73544 18.9504 1.78964C18.9438 1.90156 18.9381 2.06142 18.933 2.2606C18.9228 2.66072 18.9147 3.23832 18.9082 3.95096L19.8574 3.95962C19.8635 3.2889 19.871 2.74284 19.8803 2.35408L37.9125 9.7655C37.8627 9.74492 37.8325 9.70301 37.822 9.66513L37.9708 9.6237L37.9128 9.76561ZM19.9046 1.75915C19.9046 1.75915 19.9046 1.75916 19.9046 1.75916L19.9046 1.75915Z" fill="#212121"/>
<path fill-rule="evenodd" clip-rule="evenodd" d="M19.8674 18.3594C19.8803 13.2231 19.886 7.1756 19.857 3.95069L18.9082 3.95929C18.9372 7.1777 18.9315 13.2195 18.9185 18.357L19.8674 18.3594Z" fill="#212121"/>
<path fill-rule="evenodd" clip-rule="evenodd" d="M18.9098 3.95067C18.8806 7.17544 18.8863 13.2231 18.8992 18.3594L19.8481 18.357C19.8351 13.2195 19.8294 7.17755 19.8586 3.95932L18.9098 3.95067Z" fill="#212121"/>
<path fill-rule="evenodd" clip-rule="evenodd" d="M18.9186 18.3556C18.9154 19.6203 18.9117 20.8298 18.9082 21.9286L19.857 21.9316C19.8605 20.8328 19.8642 19.623 19.8674 18.358L18.9186 18.3556Z" fill="#212121"/>
<path fill-rule="evenodd" clip-rule="evenodd" d="M19.1419 1.21996L0.493189 8.88477C0.25027 8.98464 0.0908383 9.18816 0.0292969 9.41034L0.795157 9.62369L0.9439 9.66513C0.933392 9.70307 0.90309 9.74508 0.853158 9.76562L18.8857 2.35407C18.895 2.74285 18.9025 3.28892 18.9087 3.95967L19.8579 3.95091C19.8514 3.23828 19.8432 2.66069 19.8329 2.26058C19.8278 2.0614 19.8221 1.90155 19.8156 1.78963C19.8124 1.73543 19.8085 1.68311 19.8032 1.64046C19.8009 1.6224 19.7962 1.58724 19.7863 1.54941C19.7825 1.53493 19.7701 1.4878 19.7412 1.43474C19.7272 1.40905 19.6943 1.35332 19.6332 1.30047C19.5662 1.24253 19.4425 1.17087 19.2773 1.18652L19.1419 1.21996Z" fill="#212121"/>
<path fill-rule="evenodd" clip-rule="evenodd" d="M12.9104 30.2757C12.9104 30.2757 12.9104 30.2757 12.9104 30.2757L0.927797 9.54637C0.951746 9.58792 0.952939 9.63247 0.944075 9.66451L0.79536 9.62313L0.927721 9.54624L0.927643 9.5461L0.795217 9.62309L0.0293934 9.41001C-0.0238114 9.60233 -0.00857347 9.82445 0.106344 10.0234L12.0892 30.7531C12.3998 31.2904 13.085 31.4756 13.6227 31.1674C13.6227 31.1674 13.6227 31.1674 13.6227 31.1674L19.5964 27.7441L19.8344 27.3647C19.8358 27.3449 19.8361 27.2925 19.8363 27.2457L19.8365 27.2257C19.8369 27.1564 19.8375 27.0551 19.8381 26.9243C19.8395 26.6628 19.8413 26.2831 19.8433 25.8058C19.8475 24.8512 19.8528 23.5056 19.8581 21.9329L18.9088 21.9297C18.9036 23.5021 18.8983 24.8473 18.8941 25.8017C18.892 26.2789 18.8903 26.6582 18.8889 26.9194C18.8887 26.9683 18.8884 27.0131 18.8882 27.0535L13.1517 30.3409C13.0672 30.3893 12.9592 30.3602 12.9104 30.2757Z" fill="#212121"/>
<path fill-rule="evenodd" clip-rule="evenodd" d="M19.8578 21.9285C19.8541 20.8299 19.8504 19.6204 19.8472 18.3555L18.8984 18.3579C18.9016 19.6231 18.9053 20.8329 18.909 21.9316L19.8578 21.9285Z" fill="#212121"/>
<path fill-rule="evenodd" clip-rule="evenodd" d="M25.1434 31.1674C25.6811 31.4756 26.3663 31.2904 26.6769 30.7531L26.6769 30.7531L38.6597 10.0235L38.6598 10.0234C38.7747 9.82445 38.7899 9.60233 38.7367 9.41001L37.9709 9.62309L37.8385 9.5461L37.8384 9.54624L37.9707 9.62313L37.822 9.66451C37.8132 9.63251 37.8143 9.58803 37.8382 9.54652L25.8557 30.2757C25.8069 30.3602 25.6989 30.3893 25.6144 30.3409L25.6144 30.3409L19.8779 27.0535C19.8777 27.0131 19.8774 26.9683 19.8772 26.9194C19.8758 26.6583 19.8741 26.2789 19.872 25.8017C19.8679 24.8473 19.8626 23.5021 19.8574 21.9297L18.9082 21.9329C18.9134 23.5056 18.9186 24.8511 18.9228 25.8058C18.9248 26.2831 18.9266 26.6628 18.928 26.9243C18.9286 27.055 18.9292 27.1564 18.9296 27.2257C18.9297 27.2321 18.9297 27.2388 18.9298 27.2456C18.93 27.2925 18.9303 27.3448 18.9317 27.3647L19.1697 27.7441L25.1434 31.1674C25.1434 31.1674 25.1434 31.1674 25.1434 31.1674Z" fill="#212121"/>
<path fill-rule="evenodd" clip-rule="evenodd" d="M19.5941 18.7891L38.4803 9.96833L38.0795 9.10536L19.1934 17.9261L19.5941 18.7891Z" fill="#212121"/>
<path fill-rule="evenodd" clip-rule="evenodd" d="M19.5857 17.9313L19.5753 17.9264L19.3839 18.3351L19.1902 17.9276L19.1798 17.9325L19.3776 18.3486L19.1719 18.788L19.1824 18.793L19.5883 18.7918L19.5986 18.7868L19.3904 18.3487L19.5857 17.9313Z" fill="#212121"/>
<path fill-rule="evenodd" clip-rule="evenodd" d="M19.574 17.9261L0.687851 9.10536L0.287109 9.96833L19.1733 18.7891L19.574 17.9261Z" fill="#212121"/>
<path fill-rule="evenodd" clip-rule="evenodd" d="M18.951 29.1154C19.22 28.9616 19.5501 28.9614 19.8192 29.1156L24.9068 32.0312C24.9069 32.0313 24.9069 32.0313 24.907 32.0313C25.3379 32.2781 25.4781 32.8343 25.2163 33.2569L20.1284 41.4667C19.9575 41.7422 19.6687 41.8811 19.3851 41.8811C19.1017 41.8811 18.8124 41.7424 18.6415 41.4663L13.5539 33.2569C13.2921 32.8343 13.4322 32.2781 13.863 32.0313C13.863 32.0313 13.863 32.0313 13.863 32.0313L18.951 29.1154ZM19.385 29.9632L14.4006 32.8197L19.3851 40.8627L24.3695 32.8197L19.385 29.9632ZM24.4363 32.858C24.4362 32.8579 24.4361 32.8579 24.4361 32.8579L24.4363 32.858Z" fill="#CA5CF2"/>
<path fill-rule="evenodd" clip-rule="evenodd" d="M18.9102 35.5761V41.4043H19.859V35.5761H18.9102Z" fill="#CA5CF2"/>
<path fill-rule="evenodd" clip-rule="evenodd" d="M19.3841 35.1008C19.1288 35.1008 18.9219 34.8933 18.9219 34.6372C18.9219 34.381 19.1289 34.1735 19.3841 34.1735C19.6394 34.1735 19.8464 34.381 19.8464 34.6372C19.8464 34.8933 19.6395 35.1008 19.3841 35.1008ZM17.9727 34.6372C17.9727 35.419 18.6045 36.0527 19.3841 36.0527C20.1637 36.0527 20.7956 35.419 20.7956 34.6372C20.7956 33.8555 20.1638 33.2215 19.3841 33.2215C18.6044 33.2215 17.9727 33.8555 17.9727 34.6372Z" fill="#CA5CF2"/>
<path d="M19.3841 45.5996C19.9016 45.5996 20.321 45.1789 20.321 44.6599C20.321 44.1411 19.9016 43.7203 19.3841 43.7203C18.8667 43.7203 18.4473 44.1411 18.4473 44.6599C18.4473 45.1789 18.8667 45.5996 19.3841 45.5996Z" fill="#CA5CF2"/>
</svg>
