<svg width="214" height="244" viewBox="0 0 214 244" fill="none" xmlns="http://www.w3.org/2000/svg">
<path fill-rule="evenodd" clip-rule="evenodd" d="M208.814 47.1279L208.814 47.1279L209.133 46.3487L213.352 45.1774C213.013 43.9576 212.135 42.8403 210.797 42.2921L210.797 42.292L108.085 0.21188L107.34 0.0282745C106.43 -0.0576286 105.748 0.335751 105.379 0.653881C105.043 0.944023 104.861 1.24996 104.784 1.39103C104.625 1.6823 104.557 1.94105 104.536 2.02056C104.482 2.22826 104.456 2.42128 104.443 2.52044C104.414 2.75462 104.392 3.04185 104.375 3.33945C104.339 3.95389 104.307 4.83151 104.279 5.92501C104.223 8.1217 104.178 11.2928 104.143 15.2052L109.37 15.2527C109.404 11.5704 109.446 8.57256 109.496 6.43824L208.812 47.1272C208.538 47.0143 208.372 46.7842 208.314 46.5762L209.133 46.3488L208.814 47.1279ZM109.63 3.17204C109.63 3.17206 109.63 3.17208 109.63 3.17211L109.63 3.17204Z" fill="#212121"/>
<path fill-rule="evenodd" clip-rule="evenodd" d="M109.428 94.3096C109.499 66.111 109.53 32.9102 109.37 15.2053L104.143 15.2525C104.302 32.9217 104.271 66.0913 104.2 94.2964L109.428 94.3096Z" fill="#212121"/>
<path fill-rule="evenodd" clip-rule="evenodd" d="M104.144 15.2061C103.983 32.9102 104.014 66.112 104.086 94.3105L109.314 94.2974C109.243 66.0923 109.211 32.9218 109.372 15.2536L104.144 15.2061Z" fill="#212121"/>
<path fill-rule="evenodd" clip-rule="evenodd" d="M104.2 94.297C104.182 101.24 104.162 107.881 104.143 113.913L109.371 113.93C109.39 107.897 109.41 101.255 109.428 94.3102L104.2 94.297Z" fill="#212121"/>
<path fill-rule="evenodd" clip-rule="evenodd" d="M105.429 0.21188L2.71708 42.292C1.37916 42.8403 0.501061 43.9576 0.162109 45.1774L4.38023 46.3487L5.19946 46.5762C5.14159 46.7845 4.97469 47.0151 4.69968 47.1279L104.017 6.43819C104.068 8.57257 104.11 11.5705 104.144 15.253L109.372 15.2049C109.336 11.2925 109.291 8.12151 109.234 5.92488C109.206 4.83141 109.175 3.9538 109.139 3.33939C109.121 3.04181 109.1 2.75459 109.07 2.52041C109.058 2.42126 109.032 2.22824 108.978 2.02055C108.957 1.94104 108.888 1.6823 108.729 1.39102C108.652 1.24996 108.471 0.944023 108.135 0.653881C107.766 0.335751 107.084 -0.0576286 106.174 0.0282745L105.429 0.21188Z" fill="#212121"/>
<path fill-rule="evenodd" clip-rule="evenodd" d="M71.1064 159.732C71.1064 159.732 71.1064 159.732 71.1064 159.732L5.11002 45.9269C5.24192 46.155 5.24849 46.3996 5.19967 46.5755L4.3806 46.3483L5.1096 45.9261L5.10917 45.9254L4.37981 46.3481L0.16189 45.1782C-0.131146 46.2341 -0.04722 47.4535 0.585711 48.5458L66.5834 162.353C68.294 165.303 72.0679 166.319 75.0295 164.627C75.0295 164.627 75.0295 164.627 75.0295 164.627L107.931 145.833L109.242 143.75C109.249 143.641 109.251 143.354 109.252 143.097L109.253 142.987C109.256 142.607 109.259 142.05 109.262 141.333C109.27 139.897 109.28 137.812 109.291 135.192C109.314 129.951 109.343 122.564 109.372 113.93L104.144 113.912C104.115 122.544 104.086 129.93 104.063 135.169C104.052 137.789 104.042 139.872 104.034 141.306C104.033 141.574 104.032 141.82 104.03 142.042L72.4357 160.09C71.9702 160.356 71.3754 160.195 71.1064 159.732Z" fill="#212121"/>
<path fill-rule="evenodd" clip-rule="evenodd" d="M109.372 113.912C109.352 107.881 109.332 101.241 109.314 94.2966L104.086 94.3098C104.104 101.256 104.124 107.897 104.144 113.93L109.372 113.912Z" fill="#212121"/>
<path fill-rule="evenodd" clip-rule="evenodd" d="M138.484 164.627C141.446 166.319 145.22 165.303 146.93 162.353L146.93 162.353L212.928 48.5465L212.928 48.5458C213.561 47.4535 213.645 46.2341 213.352 45.1782L209.134 46.3481L208.405 45.9254L208.404 45.9261L209.133 46.3483L208.314 46.5755C208.265 46.3997 208.272 46.1555 208.403 45.9277L142.407 159.732C142.138 160.196 141.544 160.356 141.078 160.09L141.078 160.09L109.483 142.042C109.482 141.82 109.481 141.574 109.479 141.306C109.472 139.872 109.462 137.789 109.451 135.169C109.428 129.93 109.399 122.545 109.371 113.912L104.143 113.929C104.171 122.564 104.2 129.951 104.223 135.192C104.234 137.812 104.244 139.897 104.251 141.333C104.255 142.05 104.258 142.607 104.261 142.987C104.261 143.022 104.261 143.059 104.261 143.097C104.263 143.354 104.264 143.641 104.272 143.75L105.583 145.833L138.484 164.627C138.484 164.627 138.484 164.627 138.484 164.627Z" fill="#212121"/>
<path fill-rule="evenodd" clip-rule="evenodd" d="M107.918 96.6719L211.937 48.2456L209.73 43.5079L105.711 91.9342L107.918 96.6719Z" fill="#212121"/>
<path fill-rule="evenodd" clip-rule="evenodd" d="M107.868 91.9648L107.811 91.9377L106.756 94.1817L105.689 91.9443L105.632 91.9714L106.721 94.2555L105.588 96.6682L105.646 96.6953L107.882 96.6887L107.939 96.6616L106.792 94.2563L107.868 91.9648Z" fill="#212121"/>
<path fill-rule="evenodd" clip-rule="evenodd" d="M107.805 91.9342L3.78529 43.5079L1.57812 48.2456L105.597 96.6719L107.805 91.9342Z" fill="#212121"/>
<path fill-rule="evenodd" clip-rule="evenodd" d="M104.367 153.358C105.848 152.514 107.667 152.513 109.149 153.359L137.169 169.366C137.17 169.366 137.17 169.367 137.171 169.367C139.544 170.722 140.316 173.775 138.874 176.095L110.852 221.167C109.91 222.68 108.32 223.442 106.758 223.442C105.197 223.442 103.604 222.681 102.662 221.165L74.6413 176.095C73.1992 173.775 73.9712 170.722 76.3436 169.367C76.3437 169.367 76.3435 169.367 76.3436 169.367L104.367 153.358ZM106.757 158.012L79.3046 173.695L106.758 217.851L134.21 173.695L106.757 158.012ZM134.578 173.905C134.578 173.905 134.577 173.905 134.577 173.904L134.578 173.905Z" fill="#CA5CF2"/>
<path fill-rule="evenodd" clip-rule="evenodd" d="M104.143 188.833V220.83H109.371V188.833H104.143Z" fill="#CA5CF2"/>
<path fill-rule="evenodd" clip-rule="evenodd" d="M106.758 186.219C105.352 186.219 104.212 185.08 104.212 183.674C104.212 182.268 105.353 181.128 106.758 181.128C108.164 181.128 109.304 182.268 109.304 183.674C109.304 185.08 108.165 186.219 106.758 186.219ZM98.9844 183.674C98.9844 187.966 102.465 191.445 106.758 191.445C111.052 191.445 114.532 187.966 114.532 183.674C114.532 179.382 111.053 175.902 106.758 175.902C102.464 175.902 98.9844 179.382 98.9844 183.674Z" fill="#CA5CF2"/>
<path d="M106.758 243.859C109.608 243.859 111.918 241.549 111.918 238.7C111.918 235.852 109.608 233.542 106.758 233.542C103.908 233.542 101.598 235.852 101.598 238.7C101.598 241.549 103.908 243.859 106.758 243.859Z" fill="#CA5CF2"/>
</svg>
