<svg width="625" height="443" viewBox="0 0 625 443" fill="none" xmlns="http://www.w3.org/2000/svg">
<g clip-path="url(#clip0_1372_24216)">
<path d="M624.367 240.516C624.432 290.038 609.477 340.449 574.634 365.339C539.514 390.39 484.506 389.919 438.524 401.258C392.98 412.715 356.024 435.864 314.155 441.504C272.403 446.704 225.3 434.283 195.54 404.467C165.78 374.651 153.8 327.558 142.54 280.423C131.554 233.128 121.721 185.909 139.081 151.863C156.441 117.817 201.275 96.7851 240.608 82.2511C279.823 68.1511 313.975 60.6751 356.234 42.2361C398.375 24.2361 448.741 -5.16394 489.901 1.43606C531.221 8.31706 562.901 51.083 586.278 96.7821C609.655 142.481 624.462 191.273 624.367 240.516Z" fill="#2F1B7C"/>
<path d="M479.937 68.7691C481.521 68.7691 482.804 67.4856 482.804 65.9022C482.804 64.3188 481.521 63.0352 479.937 63.0352C478.354 63.0352 477.07 64.3188 477.07 65.9022C477.07 67.4856 478.354 68.7691 479.937 68.7691Z" fill="#A9A5FC"/>
<path d="M538.671 194.237C543.421 194.237 547.272 190.386 547.272 185.636C547.272 180.886 543.421 177.035 538.671 177.035C533.921 177.035 530.07 180.886 530.07 185.636C530.07 190.386 533.921 194.237 538.671 194.237Z" fill="#A9A5FC"/>
<path d="M578.695 272.664C579.824 272.664 580.738 271.749 580.738 270.621C580.738 269.493 579.824 268.578 578.695 268.578C577.567 268.578 576.652 269.493 576.652 270.621C576.652 271.749 577.567 272.664 578.695 272.664Z" fill="#A9A5FC"/>
<path d="M256.978 130.624C258.813 130.624 260.3 129.137 260.3 127.302C260.3 125.468 258.813 123.98 256.978 123.98C255.144 123.98 253.656 125.468 253.656 127.302C253.656 129.137 255.144 130.624 256.978 130.624Z" fill="#A9A5FC"/>
<path d="M228.179 241.8C230.47 241.8 232.327 239.943 232.327 237.652C232.327 235.361 230.47 233.504 228.179 233.504C225.888 233.504 224.031 235.361 224.031 237.652C224.031 239.943 225.888 241.8 228.179 241.8Z" fill="#A9A5FC"/>
<path d="M165.186 280.14C167.038 280.14 168.54 278.638 168.54 276.786C168.54 274.933 167.038 273.432 165.186 273.432C163.334 273.432 161.832 274.933 161.832 276.786C161.832 278.638 163.334 280.14 165.186 280.14Z" fill="#A9A5FC"/>
<path d="M267.007 388.14C271.184 388.14 274.569 384.754 274.569 380.578C274.569 376.401 271.184 373.016 267.007 373.016C262.831 373.016 259.445 376.401 259.445 380.578C259.445 384.754 262.831 388.14 267.007 388.14Z" fill="#A9A5FC"/>
<path d="M445.397 369.513C446.376 369.513 447.169 368.719 447.169 367.741C447.169 366.762 446.376 365.969 445.397 365.969C444.418 365.969 443.625 366.762 443.625 367.741C443.625 368.719 444.418 369.513 445.397 369.513Z" fill="#A9A5FC"/>
<path d="M344.469 132.394C362.006 132.394 376.223 123.428 376.223 112.369C376.223 101.309 362.006 92.3438 344.469 92.3438C326.932 92.3438 312.715 101.309 312.715 112.369C312.715 123.428 326.932 132.394 344.469 132.394Z" fill="#F4F0FF"/>
<path d="M329.451 115.535C331.2 115.535 332.617 114.118 332.617 112.369C332.617 110.621 331.2 109.203 329.451 109.203C327.703 109.203 326.285 110.621 326.285 112.369C326.285 114.118 327.703 115.535 329.451 115.535Z" fill="#9E1CCD"/>
<path d="M344.467 115.535C346.215 115.535 347.633 114.118 347.633 112.369C347.633 110.621 346.215 109.203 344.467 109.203C342.718 109.203 341.301 110.621 341.301 112.369C341.301 114.118 342.718 115.535 344.467 115.535Z" fill="#9E1CCD"/>
<path d="M359.482 115.535C361.231 115.535 362.648 114.118 362.648 112.369C362.648 110.621 361.231 109.203 359.482 109.203C357.734 109.203 356.316 110.621 356.316 112.369C356.316 114.118 357.734 115.535 359.482 115.535Z" fill="#9E1CCD"/>
<path d="M356.43 128.526L366.979 136.805L364.513 124.676L356.43 128.526Z" fill="#F4F0FF"/>
<path d="M-0.0234375 225.388C4.88656 229.027 13.1766 234.03 23.6706 234.415C44.5786 235.181 51.3826 216.79 68.8036 214.105C97.7356 209.647 109.712 255.64 141.016 256.981C172.833 258.344 182.016 211.753 218.869 202.822C240.059 197.687 272.064 204.6 320.417 254.722" stroke="#BEB5E2" stroke-width="5.70423" stroke-miterlimit="10" stroke-linecap="round"/>
<path d="M439.265 225.312L432.535 219.705C439.816 209.431 465.189 215.357 472.553 206.905C476.753 199.552 465.66 193.21 459.829 192.405L460.87 183.705C472.444 184.78 488.283 198.405 480.104 211.342C473.777 223.918 448.378 217.975 439.265 225.312Z" fill="#D6D2E3"/>
<path d="M448.182 221.882C448.472 220.569 448.408 219.203 447.996 217.924C447.585 216.644 446.841 215.496 445.84 214.598C445.38 214.232 444.864 213.943 444.312 213.74C443.664 213.865 443.025 213.998 442.402 214.147C443.484 214.14 444.536 214.501 445.386 215.169C446.317 216.02 446.998 217.108 447.355 218.317C447.713 219.526 447.735 220.81 447.417 222.03C447.669 221.979 447.925 221.93 448.182 221.882Z" fill="#C3C2CC"/>
<path d="M477.271 203.351C476.55 203.326 475.832 203.446 475.159 203.704C474.486 203.961 473.871 204.351 473.351 204.851C473.194 205.573 472.924 206.266 472.551 206.905C472.368 207.115 472.165 207.31 471.961 207.505L472.375 207.661C472.689 206.615 473.334 205.7 474.214 205.054C475.093 204.408 476.16 204.066 477.251 204.08C478.208 204.124 479.141 204.399 479.969 204.882C480.797 205.364 481.496 206.039 482.007 206.85C482.084 206.521 482.145 206.193 482.195 205.866C481.605 205.115 480.859 204.502 480.009 204.068C479.159 203.634 478.225 203.389 477.271 203.351Z" fill="#C3C2CC"/>
<path d="M456.681 220.745C457.227 219.597 457.464 218.327 457.368 217.059C457.272 215.792 456.846 214.571 456.133 213.519C455.794 213.076 455.389 212.688 454.933 212.369L453.688 212.499C454.426 212.814 455.069 213.318 455.552 213.959C456.223 214.97 456.605 216.145 456.656 217.358C456.707 218.57 456.425 219.774 455.841 220.837L456.681 220.745Z" fill="#C3C2CC"/>
<path d="M435.538 219.311H435.51C434.588 219.313 433.68 219.544 432.867 219.981L433.484 220.495C434.12 220.199 434.812 220.044 435.513 220.041H435.538C436.777 220.116 437.975 220.519 439.008 221.206C440.042 221.894 440.875 222.843 441.424 223.957C441.64 223.849 441.858 223.743 442.083 223.643C441.474 222.405 440.547 221.352 439.397 220.591C438.247 219.83 436.915 219.388 435.538 219.311Z" fill="#C3C2CC"/>
<path d="M438.09 215.528L438.098 215.54C438.144 215.511 438.189 215.491 438.235 215.463C438.185 215.483 438.139 215.507 438.09 215.528Z" fill="#C3C2CC"/>
<path d="M470.922 198.133C471.154 198.377 471.373 198.625 471.579 198.879C471.602 198.18 471.774 197.494 472.085 196.868C472.395 196.241 472.837 195.688 473.379 195.246C474.125 194.648 475.005 194.238 475.943 194.052C476.882 193.866 477.852 193.909 478.77 194.177C478.545 193.877 478.31 193.585 478.07 193.295C477.161 193.154 476.232 193.204 475.344 193.443C474.456 193.683 473.627 194.106 472.913 194.685C471.849 195.552 471.141 196.779 470.922 198.133Z" fill="#C3C2CC"/>
<path d="M466.983 219.316C467.5 218.234 467.734 217.039 467.66 215.842C467.587 214.645 467.209 213.487 466.563 212.477C466.102 211.819 465.499 211.275 464.798 210.885C464.405 210.981 464.005 211.071 463.598 211.156C464.559 211.457 465.392 212.069 465.967 212.896C466.583 213.88 466.92 215.014 466.941 216.175C466.963 217.337 466.668 218.482 466.089 219.489C466.387 219.433 466.687 219.377 466.983 219.316Z" fill="#C3C2CC"/>
<path d="M477.037 215.139C477.156 214.077 477.023 213.002 476.65 212.001C476.277 211 475.673 210.101 474.888 209.376C473.893 208.508 472.609 208.044 471.288 208.076C470.863 208.408 470.414 208.709 469.945 208.976C470.708 208.741 471.518 208.705 472.298 208.871C473.079 209.038 473.804 209.401 474.404 209.927C475.183 210.662 475.757 211.588 476.071 212.612C476.384 213.636 476.427 214.724 476.193 215.77C476.486 215.568 476.768 215.36 477.037 215.139Z" fill="#C3C2CC"/>
<path d="M465.443 189.019C464.993 189.752 464.706 190.574 464.602 191.429C464.498 192.283 464.581 193.15 464.843 193.97C465.161 194.116 465.479 194.27 465.797 194.435C465.411 193.641 465.234 192.763 465.28 191.882C465.327 191.001 465.597 190.146 466.064 189.398C466.494 188.699 467.067 188.098 467.746 187.635C468.424 187.173 469.192 186.858 470 186.713C469.681 186.537 469.36 186.371 469.037 186.213C467.54 186.685 466.264 187.681 465.443 189.019Z" fill="#C3C2CC"/>
<path d="M460.869 183.711L460.762 184.611C467.132 186.124 472.956 189.639 475.91 195.547C476.781 197.271 477.302 199.15 477.443 201.076C477.584 203.003 477.342 204.938 476.731 206.77C476.121 208.602 475.153 210.296 473.885 211.752C472.616 213.208 471.072 214.399 469.341 215.256C458.934 219.881 446.697 219.016 436.254 222.807L439.264 225.315C448.377 217.978 473.776 223.921 480.103 211.35C488.282 198.413 472.443 184.786 460.869 183.711Z" fill="#B6B0C9"/>
<path d="M447.418 222.031C447.67 221.98 447.926 221.931 448.183 221.883C448.288 221.263 448.329 220.634 448.306 220.006L447.592 220.118C447.606 220.76 447.547 221.402 447.418 222.031Z" fill="#A2A1B3"/>
<path d="M477.417 203.363C477.396 203.605 477.384 203.849 477.352 204.09C478.291 204.149 479.203 204.43 480.013 204.91C480.823 205.39 481.508 206.056 482.011 206.851C482.088 206.522 482.149 206.194 482.199 205.867C481.623 205.137 480.899 204.536 480.075 204.105C479.251 203.673 478.345 203.421 477.417 203.363Z" fill="#A2A1B3"/>
<path d="M455.84 220.838L456.681 220.746C456.971 220.07 457.173 219.36 457.281 218.633C457.029 218.677 456.781 218.721 456.523 218.763C456.393 219.483 456.163 220.181 455.84 220.838Z" fill="#A2A1B3"/>
<path d="M441.422 223.956C441.638 223.848 441.856 223.742 442.081 223.642C441.645 222.862 441.102 222.148 440.466 221.52C440.193 221.589 439.923 221.664 439.652 221.737C440.36 222.374 440.958 223.124 441.422 223.956Z" fill="#A2A1B3"/>
<path d="M438.235 215.463C438.185 215.483 438.135 215.507 438.09 215.528L438.098 215.54C438.144 215.511 438.189 215.491 438.235 215.463Z" fill="#A2A1B3"/>
<path d="M478.769 194.178C478.544 193.878 478.309 193.586 478.069 193.296C476.963 193.135 475.834 193.248 474.781 193.624C474.919 193.831 475.064 194.033 475.195 194.248C476.354 193.874 477.597 193.85 478.769 194.178Z" fill="#A2A1B3"/>
<path d="M466.09 219.489C466.39 219.433 466.69 219.377 466.99 219.316C467.46 218.256 467.688 217.105 467.659 215.945C467.418 216.038 467.177 216.132 466.934 216.219C466.914 217.361 466.625 218.481 466.09 219.489Z" fill="#A2A1B3"/>
<path d="M475.306 209.789C475.175 210.003 475.047 210.219 474.906 210.426C475.51 211.162 475.94 212.024 476.165 212.949C476.39 213.874 476.404 214.838 476.206 215.769C476.494 215.569 476.776 215.359 477.045 215.138C477.146 214.174 477.043 213.2 476.743 212.279C476.444 211.358 475.954 210.509 475.306 209.789Z" fill="#A2A1B3"/>
<path d="M469.031 186.209C468.425 186.407 467.851 186.69 467.324 187.049C467.57 187.179 467.812 187.312 468.052 187.449C468.653 187.094 469.309 186.844 469.994 186.711C469.675 186.537 469.354 186.371 469.031 186.209Z" fill="#A2A1B3"/>
<path d="M446.433 229.733C446.433 234.406 390.833 288.381 386.808 288.697C382.783 289.013 348.335 257.705 348.32 253.276C348.305 248.847 400.284 192.633 404.712 192.44C409.14 192.247 446.433 224.3 446.433 229.733Z" fill="#E5E2EE"/>
<path d="M440.152 221.182C438.873 223.862 437.142 226.301 435.034 228.393C418.322 249.283 401.12 270.168 379.043 283.875C382.867 286.86 385.799 288.775 386.809 288.698C390.831 288.382 446.434 234.407 446.434 229.734C446.434 228.327 443.932 225.134 440.152 221.182Z" fill="#C8C3D9"/>
<path d="M363.901 175.691C354.876 174.873 345.792 174.933 336.777 175.868C341.364 183.824 341.277 192.344 337.051 201.362C344.338 201.079 349.537 203.862 356.399 203.874C371.352 203.901 381.201 177.435 363.901 175.691Z" fill="#ECE7FD"/>
<path d="M339.002 201.292C343.817 198.946 345.388 178.185 341.94 175.397C340.54 174.264 331.678 174.852 329.38 176.187C323.992 179.318 327.927 199.25 333.335 201.451C335.202 201.925 337.164 201.87 339.002 201.292Z" fill="#FFFFFD"/>
<path d="M333.33 201.452C336.142 200.374 334.404 176.302 329.375 176.188C327.415 176.215 325.465 176.477 323.567 176.97C322.167 177.431 325.925 201.92 327.8 202.109C329.668 202.234 331.544 202.011 333.33 201.452Z" fill="#ECE7FD"/>
<path d="M327.8 202.109C325.984 203.401 314.9 205.397 314.9 205.397C307.364 213.285 305.288 215.197 302.754 214.734C300.603 214.341 297.284 211.922 301.402 204.547C290.744 206.9 285.502 206.847 282.865 201.936C280.228 197.025 281.233 184.583 290.841 181.472C300.449 178.361 320.653 176.051 323.389 176.323C326.125 176.595 331.206 199.688 327.8 202.109Z" fill="#A692EB"/>
<path d="M338.951 196.468C338.435 198.142 337.8 199.777 337.051 201.361C344.338 201.078 349.537 203.861 356.399 203.873C362.109 203.882 367.068 200.024 370.062 195.158C360.057 197.469 349.463 196.317 338.951 196.468Z" fill="#D0C4F8"/>
<path d="M329.699 197.071C330.74 199.271 331.989 200.907 333.33 201.453C335.197 201.927 337.16 201.872 338.997 201.294C340.233 200.694 341.253 198.871 342.032 196.457C337.912 196.387 333.792 196.592 329.699 197.071Z" fill="#C7C7C7"/>
<path d="M327.801 202.108C329.669 202.234 331.545 202.011 333.331 201.451C334.076 201.165 334.498 199.258 334.631 196.619C331.744 196.769 328.87 197.12 326.031 197.668C326.667 200.265 327.301 202.058 327.801 202.108Z" fill="#D0C4F8"/>
<path d="M303.559 214.79C305.796 214.717 308.17 212.447 314.905 205.397C314.905 205.397 325.987 203.397 327.805 202.109C328.647 201.509 328.969 199.642 328.937 197.17C324.15 197.791 319.496 199.19 315.161 201.312C310.084 204.358 307.082 209.773 303.559 214.79Z" fill="#886DE4"/>
<path d="M283.934 203.487C286.792 206.771 291.869 206.62 300.977 204.639C301.638 203.975 302.158 203.184 302.507 202.314C302.856 201.444 303.026 200.513 303.008 199.576C297.942 201.828 290.323 204.076 283.934 203.487Z" fill="#886DE4"/>
<path d="M357.277 175.244C350.438 174.938 343.585 175.146 336.777 175.867C337.392 176.934 337.933 178.041 338.396 179.181C344.38 178.54 350.288 177.325 356.038 175.553C356.448 175.428 356.862 175.329 357.277 175.244Z" fill="#F4F0FF"/>
<path d="M341.938 175.401C340.538 174.268 331.676 174.856 329.378 176.191C328.764 176.646 328.25 177.223 327.868 177.885C327.486 178.547 327.244 179.281 327.156 180.04C332.574 179.838 337.975 179.328 343.334 178.513C343.208 177.355 342.719 176.266 341.938 175.401Z" fill="#FFFFFD"/>
<path d="M329.378 176.188C327.417 176.215 325.467 176.477 323.57 176.97C323.27 177.07 323.206 178.307 323.317 180.182C326.35 180.082 329.375 179.951 332.397 179.734C331.589 177.615 330.578 176.215 329.378 176.188Z" fill="#F4F0FF"/>
<path d="M323.394 176.323C320.658 176.051 300.454 178.36 290.846 181.472C284.377 183.572 281.812 189.888 281.629 195.296C283.915 187.736 288.614 181.596 297.903 181.077C307.311 180.366 316.537 180.457 325.703 180.097C324.901 177.873 324.075 176.391 323.394 176.323Z" fill="#CABAFF"/>
<path d="M304.75 265.86C301.798 269.155 303.565 279.734 303.565 279.734C290.565 289.116 286.489 297.74 289.79 305.074C293.091 312.408 306.798 313.316 317.7 307.522C328.602 301.728 329.856 298.146 330.636 295.322C331.793 291.141 331.667 287.875 332.485 286.022C333.303 284.169 338.876 274.429 337.611 272.385C335.298 268.643 309.909 260.1 304.75 265.86Z" fill="#A692EB"/>
<path d="M304.751 265.86C300.556 278.748 334.267 285.552 337.612 272.381C340.567 260.747 309.258 252.014 304.751 265.86Z" fill="#ECE7FD"/>
<path d="M337.614 272.382C337.14 271.616 335.687 270.648 333.647 269.643C330.885 276.503 324.599 282.575 322.629 288.979C321.609 292.038 324.502 297.945 324.353 303.468C329.215 299.937 330.059 297.421 330.639 295.323C331.796 291.142 331.67 287.876 332.488 286.023C333.306 284.17 338.879 274.426 337.614 272.382Z" fill="#886DE4"/>
<path d="M334.872 264.973C334.289 270.12 331.072 274.747 328 279.251C332.739 278.558 336.592 276.402 337.613 272.381C338.3 269.671 337.129 267.119 334.872 264.973Z" fill="#BBB1DE"/>
<path d="M321.179 218.912C314.664 229.193 306.133 249.89 306.842 254.705C307.551 259.52 335.556 274.07 341.522 266.624C346.762 260.258 351.59 253.563 355.976 246.582C368.756 225.824 333.935 198.784 321.179 218.912Z" fill="#ECE7FD"/>
<path d="M346.975 216.539C347.728 234.758 343.281 253.687 332.605 268.426C336.559 269.049 339.877 268.673 341.52 266.626C346.76 260.26 351.588 253.566 355.974 246.584C362.647 235.742 356.34 223.199 346.975 216.539Z" fill="#BBB1DE"/>
<path d="M341.522 266.623C332.847 270.123 308.964 259.216 306.822 252.83C304.869 253.992 302.908 263.59 304.757 265.86C310.725 273.186 329.067 275.29 337.618 272.381C338.777 271.985 341.44 267.7 341.522 266.623Z" fill="#FFFFFD"/>
<path d="M335.326 267.2C335.776 267.942 336.049 268.778 336.126 269.642C336.202 270.507 336.079 271.378 335.767 272.187C335.627 272.467 335.466 272.723 335.312 272.987C336.091 272.83 336.859 272.626 337.613 272.375C338.777 271.975 341.44 267.698 341.522 266.617C339.529 267.286 337.408 267.485 335.326 267.2Z" fill="#C7C7C7"/>
<path d="M317.518 287.518C313.138 285.328 307.299 284.599 307.299 279.49C306.913 274.431 307.031 269.347 307.65 264.312C306.551 264.529 305.541 265.067 304.75 265.86C301.798 269.155 303.565 279.734 303.565 279.734C290.565 289.116 286.489 297.74 289.79 305.074C289.805 305.107 289.823 305.137 289.838 305.169C290.788 292.2 303.262 282.956 317.518 287.518Z" fill="#CABAFF"/>
<path d="M308.018 261.346C306.476 262.464 305.332 264.046 304.751 265.86C303.783 268.835 304.837 271.486 307.07 273.642C307.117 269.527 307.434 265.419 308.018 261.346Z" fill="#F4F0FF"/>
<path d="M306.842 254.7C307.175 255.7 307.799 256.578 308.634 257.22C309.743 250.348 311.209 243.477 312.234 236.605C308.882 244.532 306.45 252.043 306.842 254.7Z" fill="#F4F0FF"/>
<path d="M306.818 252.83C304.865 253.992 302.904 263.59 304.753 265.86C305.492 266.744 306.345 267.526 307.29 268.187C307.59 264.027 308.184 259.866 308.89 255.705C307.991 254.915 307.283 253.932 306.818 252.83Z" fill="#FFFFFD"/>
<path d="M344.076 300.537C342.728 305.073 349.276 314.494 349.276 314.494C340.999 329.51 340.999 339.714 347.541 345.3C354.083 350.886 364.675 347.453 375.648 334.9C385.043 324.156 383.115 320.276 382.579 317.188C381.785 312.616 380.17 309.516 380.111 307.346C380.052 305.176 380.991 293.214 378.833 291.816C374.888 289.26 346.431 292.61 344.076 300.537Z" fill="#A692EB"/>
<path d="M344.078 300.537C345.915 314.918 381.623 306.083 378.835 291.817C376.372 279.216 342.101 285.088 344.078 300.537Z" fill="#ECE7FD"/>
<path d="M365.542 175.307C341.382 187.436 327.352 200.43 321.179 218.912C315.006 237.394 324.248 255.586 338.398 267.425C338.253 272.046 338.109 284.463 340.998 288.795C343.887 293.127 375.65 293.704 379.982 284.463C384.314 275.222 385.613 268.436 390.955 260.495C396.297 252.554 420.891 236.719 422.239 228.634C423.587 220.549 416.656 203.799 403.18 191.864C389.704 179.929 376.373 169.871 365.542 175.307Z" fill="#ECE7FD"/>
<path d="M329.011 211.331C337.385 193.938 352.691 183.782 373.847 173.899C371 173.542 368.111 174.031 365.541 175.306C341.381 187.435 327.351 200.429 321.178 218.911C316.757 232.15 320.246 245.24 327.778 255.953C320.624 241.026 322.535 224.281 329.011 211.331Z" fill="#F4F1FE"/>
<path d="M379.98 284.463C373.194 291.818 345.111 292.188 340.115 286.994C338.758 289.011 341.25 299.188 344.076 300.538C353.196 304.894 371.894 298.538 378.833 291.818C379.778 290.901 380.399 285.546 379.98 284.463Z" fill="#FFFFFD"/>
<path d="M371.534 310.148C374.834 316.748 377.82 325.161 377.37 332.854C384.791 323.648 383.08 320.073 382.58 317.19C381.786 312.618 380.171 309.518 380.112 307.348C380.053 305.178 380.992 293.216 378.834 291.818C377.958 291.25 375.869 290.975 373.134 290.975C374.1 297.366 368.339 303.757 371.534 310.148Z" fill="#886DE4"/>
<path d="M370.699 304.042C376.06 301.142 379.809 296.813 378.833 291.816C378.139 288.268 374.925 286.185 370.707 285.367C371.278 286.298 371.797 287.26 372.263 288.247C374.899 293.512 371.453 298.777 370.699 304.042Z" fill="#BBB1DE"/>
<path d="M372.264 288.248C372.471 288.664 372.647 289.095 372.789 289.538C376.264 288.365 378.93 286.703 379.981 284.462C384.312 275.221 385.612 268.435 390.954 260.494C396.296 252.553 420.89 236.718 422.238 228.633C422.297 228.275 422.338 227.894 422.362 227.502C405.22 241.019 394.937 243.482 376.834 256.712C364.424 266.2 367.885 278.759 372.264 288.248Z" fill="#BBB1DE"/>
<path d="M372.761 296.101C374.964 294.946 377.005 293.507 378.834 291.822C379.779 290.906 380.396 285.55 379.981 284.467C378.406 286.174 375.681 287.499 372.363 288.467C373.386 290.886 373.527 293.588 372.761 296.101Z" fill="#C7C7C7"/>
<path d="M344.102 214.633C343.661 214.634 343.234 214.475 342.902 214.185C338.579 210.423 333.072 204.653 331.388 198.535C331.323 198.303 331.305 198.061 331.334 197.823C331.363 197.585 331.439 197.354 331.557 197.145C331.675 196.936 331.834 196.752 332.023 196.605C332.212 196.457 332.429 196.348 332.661 196.284C332.892 196.22 333.134 196.203 333.373 196.233C333.611 196.263 333.841 196.34 334.05 196.459C334.258 196.578 334.442 196.737 334.589 196.927C334.736 197.117 334.844 197.334 334.907 197.566C336.049 201.715 339.642 206.509 345.298 211.432C345.578 211.676 345.777 212 345.868 212.36C345.96 212.72 345.939 213.1 345.808 213.448C345.678 213.796 345.444 214.096 345.138 214.308C344.832 214.519 344.469 214.632 344.098 214.632L344.102 214.633Z" fill="#A692EB"/>
<path d="M346.5 211.88C346.059 211.881 345.633 211.722 345.3 211.432C340.977 207.67 335.47 201.9 333.786 195.782C333.66 195.316 333.723 194.818 333.963 194.399C334.202 193.98 334.598 193.672 335.063 193.544C335.529 193.416 336.026 193.477 336.446 193.715C336.867 193.953 337.175 194.348 337.305 194.813C338.447 198.962 342.04 203.756 347.696 208.679C347.977 208.923 348.176 209.247 348.267 209.607C348.359 209.967 348.337 210.347 348.207 210.695C348.076 211.043 347.843 211.343 347.537 211.555C347.231 211.766 346.868 211.879 346.496 211.879L346.5 211.88Z" fill="#FFFFFD"/>
<path d="M348.893 209.126C348.452 209.128 348.025 208.968 347.693 208.678C343.37 204.916 337.863 199.146 336.179 193.028C336.109 192.795 336.086 192.551 336.112 192.309C336.138 192.067 336.212 191.833 336.329 191.62C336.447 191.407 336.606 191.22 336.797 191.069C336.988 190.919 337.207 190.808 337.442 190.743C337.676 190.679 337.921 190.662 338.163 190.693C338.404 190.725 338.636 190.804 338.846 190.927C339.057 191.049 339.24 191.212 339.386 191.407C339.532 191.602 339.638 191.823 339.697 192.059C340.839 196.208 344.433 201.002 350.089 205.925C350.369 206.169 350.567 206.493 350.658 206.854C350.749 207.214 350.728 207.593 350.598 207.941C350.467 208.289 350.234 208.589 349.928 208.8C349.623 209.012 349.26 209.125 348.889 209.125L348.893 209.126Z" fill="#A692EB"/>
<path d="M380.947 222.745C380.793 224.197 366.53 239.074 365.187 239.395C363.844 239.716 360.004 239.329 358.836 238.519C360.936 237.862 379.085 218.504 379.085 216.686C380.189 218.524 380.828 220.604 380.947 222.745Z" fill="#A7A0BF"/>
<path d="M379.086 216.678V216.685C379.086 218.503 360.94 237.861 358.837 238.518C357.67 237.701 340.037 220.452 339.946 218.532C339.855 216.612 356.305 198.955 358.889 198.51C361.473 198.065 378.291 215.642 379.086 216.678Z" fill="#FFFFFD"/>
<path d="M355.637 200.824L359.516 204.471L357.072 214.632L369.245 228.577" stroke="#D2D1D9" stroke-width="0.72995" stroke-miterlimit="10"/>
<path d="M365.613 218.399L370.904 213.109L371.725 213.929C372.427 214.631 372.821 215.583 372.821 216.575C372.821 217.567 372.427 218.519 371.725 219.22C371.024 219.922 370.072 220.316 369.08 220.316C368.088 220.316 367.136 219.922 366.434 219.22L365.613 218.399Z" fill="#A7A0BF"/>
<path d="M368.258 219.502C370.324 219.502 372 217.826 372 215.76C372 213.693 370.324 212.018 368.258 212.018C366.191 212.018 364.516 213.693 364.516 215.76C364.516 217.826 366.191 219.502 368.258 219.502Z" fill="#FFFFFD"/>
<path d="M399.034 254.138C398.678 254.138 398.331 254.034 398.034 253.838C388.173 247.384 379.177 239.697 371.265 230.963C371.101 230.786 370.975 230.578 370.892 230.351C370.809 230.124 370.772 229.884 370.783 229.643C370.794 229.402 370.853 229.165 370.956 228.947C371.059 228.729 371.204 228.533 371.383 228.371C371.562 228.21 371.771 228.085 371.998 228.005C372.226 227.924 372.467 227.89 372.708 227.903C372.949 227.917 373.185 227.978 373.402 228.083C373.619 228.188 373.813 228.335 373.973 228.516C381.677 237.019 390.436 244.504 400.037 250.788C400.365 251.003 400.615 251.319 400.749 251.688C400.883 252.057 400.895 252.459 400.783 252.835C400.671 253.211 400.44 253.541 400.126 253.776C399.811 254.01 399.429 254.137 399.037 254.138H399.034Z" fill="#A692EB"/>
<path d="M396.323 256.584C395.968 256.584 395.62 256.479 395.323 256.284C385.462 249.83 376.466 242.142 368.554 233.408C368.234 233.048 368.07 232.576 368.097 232.096C368.123 231.615 368.338 231.164 368.696 230.842C369.053 230.519 369.523 230.351 370.004 230.373C370.485 230.396 370.938 230.607 371.263 230.962C378.967 239.465 387.725 246.95 397.326 253.233C397.654 253.449 397.904 253.764 398.038 254.133C398.173 254.502 398.185 254.904 398.072 255.28C397.96 255.656 397.73 255.986 397.415 256.221C397.101 256.455 396.719 256.582 396.326 256.583L396.323 256.584Z" fill="#FFFFFD"/>
<path d="M393.615 259.03C393.259 259.03 392.912 258.926 392.615 258.73C382.754 252.277 373.758 244.589 365.846 235.855C365.685 235.678 365.561 235.47 365.481 235.244C365.4 235.018 365.365 234.779 365.377 234.539C365.39 234.3 365.449 234.065 365.552 233.849C365.654 233.632 365.799 233.438 365.977 233.277C366.155 233.117 366.362 232.993 366.588 232.912C366.814 232.832 367.054 232.797 367.293 232.809C367.532 232.821 367.767 232.88 367.983 232.983C368.2 233.086 368.394 233.231 368.555 233.408C376.258 241.912 385.017 249.397 394.619 255.679C394.947 255.895 395.196 256.211 395.33 256.58C395.465 256.948 395.476 257.351 395.364 257.727C395.252 258.103 395.022 258.432 394.707 258.667C394.393 258.902 394.011 259.03 393.619 259.03H393.615Z" fill="#A692EB"/>
<path d="M331.321 235.179C336.212 235.179 340.177 231.214 340.177 226.323C340.177 221.432 336.212 217.467 331.321 217.467C326.43 217.467 322.465 221.432 322.465 226.323C322.465 231.214 326.43 235.179 331.321 235.179Z" fill="#A692EB"/>
<path d="M330.795 233.734C334.888 233.734 338.207 230.416 338.207 226.322C338.207 222.229 334.888 218.91 330.795 218.91C326.701 218.91 323.383 222.229 323.383 226.322C323.383 230.416 326.701 233.734 330.795 233.734Z" fill="#A7A0C1"/>
<path d="M308.288 247.222C288.441 240.265 295.688 214.552 331.626 220.913C338.653 221.895 336.972 232.913 329.961 231.735C314.338 229.335 309.509 233.535 309.049 235.197C308.736 236.325 309.82 237.372 311.611 238.103C310.295 241.419 309.491 243.491 308.288 247.222Z" fill="#FFFFFD"/>
<path d="M308.03 230.582C303.159 234.567 305.544 239.082 309.964 242.354C310.464 241.009 310.976 239.7 311.611 238.102C309.82 237.371 308.736 236.324 309.049 235.196C309.509 233.533 314.338 229.329 329.961 231.734C331.191 231.987 332.471 231.77 333.548 231.125C334.625 230.48 335.421 229.455 335.779 228.251C325.931 227.558 315.825 224.736 308.03 230.582Z" fill="#C7C7C7"/>
<path d="M311.052 237.851C310.747 237.703 310.455 237.531 310.179 237.336C310.095 238.532 309.722 239.691 309.091 240.711C308.46 241.731 307.591 242.582 306.558 243.192C305.847 243.614 305.048 243.867 304.224 243.93C303.4 243.994 302.572 243.867 301.805 243.56C302.335 244.025 302.895 244.457 303.48 244.851C303.59 244.857 303.7 244.866 303.809 244.866C304.934 244.858 306.037 244.555 307.009 243.987C308.104 243.338 309.038 242.449 309.738 241.386C310.439 240.322 310.888 239.114 311.052 237.851Z" fill="#D2D1D9"/>
<path d="M299.246 235.733C302.398 236.899 305.862 236.905 309.019 235.75C308.991 235.565 309.002 235.376 309.049 235.196C309.119 234.972 309.225 234.762 309.365 234.574C309.317 234.582 309.272 234.598 309.23 234.622C307.52 235.842 302.546 236.203 299.606 234.913C299.148 234.761 298.731 234.509 298.384 234.173C298.038 233.838 297.772 233.429 297.606 232.977C297.523 233.483 297.477 233.995 297.469 234.508C297.967 235.038 298.573 235.455 299.246 235.733Z" fill="#D2D1D9"/>
<path d="M330.563 221.417C330.408 221.148 330.232 220.892 330.036 220.651C329.586 220.581 329.143 220.52 328.703 220.461C329.171 220.834 329.562 221.295 329.852 221.818C330.447 222.97 330.741 224.254 330.707 225.549C330.672 226.845 330.311 228.112 329.657 229.231C329.318 229.787 328.859 230.261 328.313 230.618C327.768 230.975 327.15 231.205 326.504 231.293C327.125 231.356 327.76 231.428 328.422 231.516C329.207 231.071 329.868 230.437 330.345 229.671C331.074 228.425 331.476 227.015 331.514 225.572C331.552 224.129 331.225 222.7 330.563 221.417Z" fill="#D2D1D9"/>
<path d="M322.263 222.723C321.97 221.716 321.511 220.765 320.903 219.91C320.531 219.91 320.167 219.918 319.803 219.926C320.578 220.804 321.146 221.845 321.464 222.972C322.464 226.178 322.185 230.024 319.699 230.836C319.645 230.854 319.595 230.883 319.553 230.921C319.51 230.959 319.476 231.006 319.453 231.058C319.973 231.031 320.514 231.014 321.082 231.01C323.039 229.421 323.221 225.8 322.263 222.723Z" fill="#D2D1D9"/>
<path d="M302.551 225.174C302.567 225.145 302.58 225.114 302.588 225.082C302.325 225.29 302.074 225.503 301.832 225.719C302.309 226.894 304.062 228.769 306.995 231.743C308.01 232.772 308.974 233.751 309.509 234.385C309.696 234.159 309.905 233.951 310.131 233.764C309.564 233.102 308.644 232.164 307.618 231.129C305.815 229.3 302.458 225.9 302.551 225.174Z" fill="#D2D1D9"/>
<path d="M315.076 231.615C315.639 228.754 312.87 223.121 311.245 221.14L311.166 221.047C310.853 221.127 310.548 221.212 310.246 221.3C311.829 223.271 313.022 225.525 313.762 227.942C314.333 229.735 314.453 231.128 314.114 231.857C314.42 231.772 314.737 231.69 315.076 231.615Z" fill="#D2D1D9"/>
<path d="M343.308 263.623C349.353 264.008 362.224 261.402 365.376 261.723C368.528 262.044 370.895 263.29 370.818 264.542C370.741 265.794 351.153 264.06 349.228 264.442C347.303 264.824 349.565 266.625 354.185 268.196C355.828 268.755 361.585 269.544 361.493 270.988C361.401 272.432 356.593 272.624 354.666 271.565C352.739 270.506 345.907 265.526 344.655 265.405C343.403 265.284 349.083 274.453 349.083 274.453C349.083 274.453 343.135 269.976 343.308 263.623Z" fill="#BBB1DE"/>
<path d="M422.242 221.135C425.554 230.011 427.999 239.188 429.542 248.535C420.254 246.105 411.687 248.543 403.758 255.291C402.034 247.865 397.793 243.391 395.889 236.473C391.744 221.405 415.712 204.172 422.242 221.135Z" fill="#ECE7FD"/>
<path d="M426.024 232.728C424.824 228.468 423.497 224.399 422.24 221.136C416.74 206.836 398.835 216.836 395.84 229.361C405.1 221.626 421.494 219.283 426.024 232.728Z" fill="#BBB1DE"/>
<path d="M403.289 253.31C404.327 247.81 424.829 240.497 428.589 243.205C430.118 244.305 431.969 253.405 431.257 256.089C429.586 262.389 408.402 263.914 404.691 259.068C403.698 257.316 403.212 255.323 403.289 253.31Z" fill="#FFFFFD"/>
<path d="M404.698 259.069C405.009 255.937 429.762 251.049 431.264 256.09C431.777 258.074 432.051 260.112 432.078 262.161C431.998 263.699 406.267 266.661 405.56 264.827C404.918 262.978 404.625 261.025 404.698 259.069Z" fill="#ECE7FD"/>
<path d="M404.832 265.252C404.032 267.44 405.799 278.739 405.799 278.739C399.923 288.513 398.568 291.139 399.734 293.562C400.724 295.622 404.078 298.302 410.379 292.115C410.946 303.515 412.442 308.785 418.125 310.088C423.808 311.391 436.073 306.947 436.561 296.4C437.049 285.853 433.835 264.8 432.806 262.117C431.777 259.434 406.334 261.152 404.832 265.252Z" fill="#A692EB"/>
<path d="M425.984 232.58C426.343 237.816 427.018 243.026 428.007 248.18C428.517 248.285 429.029 248.399 429.544 248.533C428.687 243.147 427.499 237.819 425.984 232.58Z" fill="#BBB1DE"/>
<path d="M428.594 243.205C428.141 242.919 427.627 242.744 427.094 242.695C427.878 247.853 428.926 253.018 429.894 258.129C430.542 257.599 431.019 256.889 431.265 256.088C431.974 253.4 430.123 244.305 428.594 243.205Z" fill="#C7C7C7"/>
<path d="M429.188 254.461C429.729 257.271 430.271 260.069 430.757 262.845C431.576 262.601 432.065 262.368 432.076 262.16C432.048 260.111 431.774 258.072 431.261 256.088C431.074 255.669 430.787 255.301 430.426 255.018C430.064 254.734 429.639 254.543 429.188 254.461Z" fill="#D0C4F8"/>
<path d="M432.806 262.118C432.634 261.668 431.765 261.345 430.45 261.133C433.105 275.727 434.55 289.77 426.641 301.814C424.226 305.492 419.547 307.024 414.086 307.805C415.156 308.975 416.57 309.775 418.125 310.088C423.808 311.388 436.073 306.948 436.561 296.401C437.049 285.854 433.835 264.801 432.806 262.118Z" fill="#886DE4"/>
<path d="M371.642 168.158C370.409 130.281 424.421 103.926 456.312 136.225C483.841 164.107 467.67 216.539 426.977 214.701C430.912 217.501 428.297 226.069 422.577 225.538C401.09 223.544 361.352 196.001 361.785 173.958C361.875 169.475 367.166 165.271 371.642 168.158Z" fill="#ECE7FD"/>
<path d="M459.392 195.136C448.239 207.03 430.646 211.462 414.151 206.687C415.887 211.824 419.983 214.58 422.361 216.169C424.739 217.758 424.74 220.327 423.729 221.369C418.986 226.242 396.148 214.398 380.654 200.337C373.441 193.76 367.198 186.192 362.113 177.859C365.92 199.123 402.341 223.665 422.579 225.543C428.297 226.073 430.912 217.507 426.979 214.706C451.751 215.825 467.435 196.832 469.706 175.506C468.076 182.85 464.515 189.626 459.392 195.136Z" fill="#BBB1DE"/>
<path d="M446.958 205.907C455.044 199.048 457.596 188.768 452.657 182.946C447.719 177.125 437.161 177.966 429.075 184.825C420.989 191.684 418.437 201.964 423.375 207.785C428.314 213.607 438.872 212.766 446.958 205.907Z" fill="#BBB1DE"/>
<path d="M412.036 119.67C449.577 129.58 454.197 180.504 436.486 195.328C423.331 206.338 384.699 198.028 371.223 163.563C371.223 142.579 388.742 122.072 412.036 119.67Z" fill="#CA5CF2"/>
<path d="M395.889 179.611C389.813 174.403 395.021 164.854 389.813 158.778C386.14 153.878 378.153 155.885 372.543 153.537C371.676 156.809 371.232 160.178 371.223 163.563C383.039 193.776 414.187 203.888 430.552 198.502C428.232 194.053 426.252 189.017 423.667 184.82C419.326 177.875 404.569 187.424 395.889 179.611Z" fill="#9E1CCD"/>
<path d="M441.899 146.191C443.948 156.5 444.151 167.091 442.499 177.471C439.844 177.113 437.144 177.309 434.569 178.047C431.994 178.785 429.6 180.048 427.538 181.758C425.476 183.467 423.79 185.585 422.588 187.979C421.385 190.373 420.692 192.989 420.552 195.664C413.445 197 406.118 196.566 399.219 194.399C413.698 201.599 429.101 201.505 436.483 195.327C447.134 186.413 449.699 164.445 441.899 146.191Z" fill="#9E1CCD"/>
<path d="M429.869 129.17C424.762 124.634 418.649 121.377 412.036 119.67C388.742 122.07 371.223 142.579 371.223 163.563C372.515 166.868 374.099 170.051 375.957 173.075C374.917 157.453 379.657 143.73 388.857 135.23C387.545 137.887 387.365 140.659 388.648 142.881C391.148 147.204 398.199 147.804 404.407 144.22C410.615 140.636 413.622 134.227 411.126 129.903C410.146 128.293 408.577 127.13 406.753 126.66C413.554 125.589 421.315 126.283 429.869 129.17Z" fill="#DBB7E2"/>
<path d="M414.227 120.313C413.508 120.085 412.781 119.866 412.036 119.67C388.742 122.07 371.223 142.579 371.223 163.563C371.296 163.749 371.38 163.923 371.454 164.108C374.284 141.245 386.224 124.309 414.227 120.313Z" fill="white"/>
<path d="M445.563 204.263C452.714 198.197 454.97 189.106 450.603 183.958C446.236 178.81 436.899 179.553 429.748 185.619C422.597 191.684 420.341 200.775 424.708 205.923C429.075 211.072 438.412 210.328 445.563 204.263Z" fill="#A591EA"/>
<path d="M445.561 204.261C451.038 199.615 452.766 192.652 449.421 188.709C446.076 184.765 438.925 185.335 433.448 189.981C427.971 194.626 426.243 201.589 429.588 205.533C432.933 209.476 440.085 208.907 445.561 204.261Z" fill="#7F61E3"/>
</g>
<defs>
<clipPath id="clip0_1372_24216">
<rect width="625" height="443" fill="white"/>
</clipPath>
</defs>
</svg>
