<svg width="20" height="12" viewBox="0 0 20 12" fill="none" xmlns="http://www.w3.org/2000/svg">
<path opacity="0.5" d="M18.5582 12H1.44279C1.0604 11.9997 0.69372 11.8516 0.42323 11.588C0.15274 11.3244 0.000529913 10.967 0 10.5941V1.40585C0 0.630244 0.647356 0 1.44279 0H18.5572C19.3526 0 20 0.630244 20 1.40585V10.5941C20 10.967 19.8481 11.3246 19.5777 11.5882C19.3073 11.8519 18.9406 12 18.5582 12ZM4.80864 9.18829V5.53171L6.7317 7.87512L8.65476 5.53171V9.18829H10.5778V2.81171H8.65476L6.7317 5.1561L4.80864 2.81171H2.88559V9.18732H4.80864V9.18829ZM17.6927 6H15.7697V2.81171H13.8456V6H11.9226L14.8081 9.28195L17.6927 6Z" fill="#212121"/>
</svg>
