<svg width="100" height="100" viewBox="0 0 100 100" fill="none" xmlns="http://www.w3.org/2000/svg">
<circle cx="50" cy="50" r="50" fill="#44F268"/>
<circle cx="50" cy="50" r="48.7903" stroke="white" stroke-opacity="0.32" stroke-width="2.41935"/>
<path d="M6.0367 48.7407L11.2636 47.3325L11.269 47.2616L6.31507 45.0794L6.37344 44.3117L12.2517 46.9918L12.1942 47.7477L5.97834 49.5084L6.0367 48.7407Z" fill="white"/>
<path d="M14.0678 38.2983C13.9341 38.7157 13.7266 39.0462 13.4454 39.2898C13.163 39.531 12.8291 39.6801 12.444 39.737C12.0575 39.7915 11.6425 39.7477 11.1988 39.6055C10.7551 39.4634 10.39 39.2573 10.1034 38.9872C9.81549 38.7146 9.62329 38.4022 9.52676 38.05C9.42896 37.6953 9.44269 37.3224 9.56796 36.9314C9.64023 36.7058 9.7492 36.495 9.89487 36.2992C10.0405 36.1033 10.2269 35.9422 10.4539 35.8159C10.679 35.6891 10.9469 35.6163 11.2576 35.5977C11.5683 35.5791 11.9258 35.6345 12.33 35.764L12.612 35.8543L11.5423 39.1932L10.9671 39.0089L11.8199 36.3468C11.5755 36.2685 11.3417 36.2475 11.1187 36.2839C10.8962 36.3183 10.7009 36.4071 10.5327 36.5501C10.3652 36.6913 10.2429 36.8822 10.1658 37.1229C10.0809 37.388 10.0732 37.6384 10.1428 37.8742C10.2111 38.1075 10.333 38.3093 10.5085 38.4796C10.6841 38.6498 10.8912 38.7732 11.13 38.8497L11.5135 38.9725C11.8406 39.0773 12.136 39.1098 12.3996 39.0698C12.662 39.0274 12.8849 38.9237 13.0684 38.7586C13.25 38.5929 13.3838 38.3756 13.47 38.1068C13.526 37.9319 13.5521 37.7662 13.5484 37.6095C13.5434 37.4504 13.5077 37.3031 13.4412 37.1678C13.3728 37.0319 13.2724 36.9117 13.1401 36.8071L13.5265 36.2219C13.7229 36.3595 13.8783 36.5346 13.9925 36.7474C14.1049 36.9596 14.1695 37.198 14.1863 37.4625C14.2013 37.7264 14.1618 38.005 14.0678 38.2983Z" fill="white"/>
<path d="M16.3893 32.4606L12.4156 30.2476L12.7441 29.6577L13.3443 29.992L13.3673 29.9506C13.2111 29.7687 13.1245 29.5488 13.1077 29.2908C13.0909 29.0329 13.1488 28.785 13.2814 28.547C13.3063 28.5021 13.3384 28.4466 13.3776 28.3802C13.4168 28.3139 13.4477 28.2645 13.4704 28.2319L14.0913 28.5777C14.0746 28.5955 14.0404 28.6386 13.9887 28.707C13.9363 28.7728 13.8875 28.8461 13.8424 28.9272C13.7348 29.1204 13.6793 29.3154 13.6758 29.5123C13.6716 29.7066 13.7157 29.887 13.8081 30.0538C13.8998 30.2178 14.0353 30.3498 14.2147 30.4497L16.7293 31.8501L16.3893 32.4606Z" fill="white"/>
<path d="M20.0817 26.7201L16.5173 23.8948L16.9514 23.3471L20.5158 26.1725L20.0817 26.7201ZM16.144 23.1454C16.0593 23.2522 15.95 23.3154 15.816 23.3351C15.6832 23.3533 15.5657 23.3219 15.4636 23.241C15.3615 23.16 15.3042 23.0529 15.2915 22.9194C15.2801 22.7844 15.3168 22.6636 15.4014 22.5568C15.486 22.4501 15.5947 22.3876 15.7275 22.3694C15.8615 22.3497 15.9796 22.3803 16.0817 22.4613C16.1838 22.5422 16.2405 22.6502 16.2519 22.7852C16.2646 22.9186 16.2286 23.0387 16.144 23.1454Z" fill="white"/>
<path d="M22.1419 17.9343L22.5406 18.3723L20.7274 20.0228L20.3288 19.5848L22.1419 17.9343ZM23.9335 22.454L20.4493 18.6262C20.2739 18.4335 20.1729 18.2317 20.1465 18.0209C20.1201 17.81 20.1499 17.6067 20.236 17.4109C20.322 17.2151 20.4453 17.0441 20.6059 16.8979C20.7329 16.7823 20.8459 16.6982 20.9448 16.6456C21.0437 16.5929 21.1208 16.5574 21.1762 16.539L21.4339 17.1213C21.3997 17.1365 21.3532 17.1587 21.2945 17.1881C21.2373 17.2162 21.1715 17.2641 21.097 17.3319C20.9262 17.4873 20.842 17.6427 20.8445 17.7979C20.8485 17.9518 20.9262 18.112 21.0777 18.2784L24.4503 21.9836L23.9335 22.454Z" fill="white"/>
<path d="M29.0347 18.3942L26.556 14.5806L27.1419 14.1998L29.6207 18.0134L29.0347 18.3942ZM26.4408 13.7514C26.3266 13.8256 26.2028 13.8507 26.0695 13.8267C25.9378 13.8016 25.8365 13.7345 25.7655 13.6252C25.6945 13.516 25.6743 13.3961 25.7048 13.2656C25.737 13.134 25.8102 13.0311 25.9244 12.9569C26.0386 12.8827 26.1616 12.8581 26.2932 12.8832C26.4266 12.9072 26.5287 12.9738 26.5997 13.083C26.6707 13.1923 26.6901 13.3127 26.6579 13.4443C26.6274 13.5748 26.555 13.6772 26.4408 13.7514Z" fill="white"/>
<path d="M35.4833 15.0583C35.0899 15.2229 34.7124 15.2717 34.3505 15.2048C33.9887 15.1379 33.6631 14.9735 33.3738 14.7115C33.0844 14.4495 32.8521 14.1091 32.6769 13.6902C32.4986 13.2641 32.4196 12.8552 32.4398 12.4637C32.4611 12.0696 32.5744 11.7216 32.7797 11.4195C32.9861 11.1149 33.2787 10.8834 33.6575 10.7249C33.9525 10.6015 34.2413 10.5449 34.5237 10.5551C34.8062 10.5653 35.0642 10.6371 35.2976 10.7706C35.531 10.904 35.7208 11.0943 35.867 11.3413L35.2223 11.611C35.0931 11.4403 34.913 11.3167 34.6819 11.24C34.4519 11.1608 34.1948 11.1806 33.9107 11.2995C33.6594 11.4046 33.4665 11.5624 33.3319 11.7727C33.1984 11.9805 33.1284 12.2249 33.1218 12.5058C33.1163 12.7842 33.1798 13.0818 33.3124 13.3987C33.448 13.7228 33.6171 13.9838 33.8197 14.1815C34.0241 14.3785 34.2479 14.5042 34.4911 14.5586C34.7361 14.6123 34.9861 14.5859 35.241 14.4792C35.4086 14.4091 35.5484 14.3163 35.6607 14.2009C35.7729 14.0855 35.8535 13.9533 35.9024 13.8045C35.9514 13.6556 35.9639 13.4963 35.94 13.3265L36.5847 13.0568C36.6519 13.3197 36.6551 13.5805 36.5943 13.8392C36.5345 14.0953 36.4115 14.3308 36.2254 14.5456C36.0403 14.7579 35.7929 14.9288 35.4833 15.0583Z" fill="white"/>
<path d="M42.8026 12.8535C42.519 12.9052 42.2519 12.8986 42.0014 12.8339C41.7504 12.7672 41.5384 12.6443 41.3654 12.4651C41.1919 12.284 41.0787 12.0478 41.0256 11.7564C40.9789 11.5001 40.9916 11.2831 41.0636 11.1054C41.1352 10.9258 41.2472 10.775 41.3996 10.653C41.5519 10.5309 41.726 10.429 41.9218 10.3472C42.1192 10.2631 42.3193 10.1885 42.5222 10.1235C42.7877 10.039 43.0034 9.97266 43.1692 9.92442C43.3365 9.87387 43.455 9.8192 43.5246 9.76038C43.5961 9.70121 43.6217 9.61627 43.6016 9.50557L43.5973 9.48226C43.545 9.19482 43.4257 8.98579 43.2393 8.85518C43.055 8.72421 42.8045 8.68755 42.4879 8.74519C42.1597 8.80495 41.9154 8.92367 41.7552 9.10134C41.5949 9.27901 41.4917 9.45632 41.4457 9.63325L40.7507 9.51901C40.8177 9.22589 40.9345 8.9859 41.1012 8.79905C41.2694 8.6099 41.4636 8.46418 41.6837 8.36189C41.9055 8.2573 42.129 8.18449 42.3543 8.14347C42.498 8.1173 42.6663 8.10472 42.8591 8.10573C43.0535 8.10445 43.2476 8.14033 43.4415 8.21338C43.6374 8.28608 43.8128 8.41767 43.9679 8.60814C44.123 8.79862 44.2329 9.07157 44.2976 9.42699L44.8344 12.3752L44.1469 12.5004L44.0365 11.8945L44.0016 11.9008C43.9727 12.0064 43.9139 12.1245 43.8253 12.255C43.7367 12.3855 43.6091 12.506 43.4427 12.6166C43.2762 12.7272 43.0628 12.8062 42.8026 12.8535ZM42.795 12.2168C43.0669 12.1673 43.2863 12.0722 43.4533 11.9314C43.6223 11.7903 43.739 11.6266 43.8034 11.4403C43.8697 11.2536 43.8859 11.0671 43.8519 10.8806L43.7374 10.2514C43.7146 10.2916 43.6563 10.3353 43.5626 10.3825C43.4704 10.4274 43.3622 10.4722 43.2379 10.5169C43.1152 10.5593 42.9951 10.5992 42.8775 10.6367C42.7615 10.6719 42.6675 10.701 42.5954 10.7242C42.421 10.78 42.2609 10.8483 42.115 10.929C41.9708 11.0075 41.8605 11.1068 41.784 11.2271C41.7092 11.345 41.6877 11.4914 41.7195 11.6662C41.763 11.9051 41.8843 12.0696 42.0833 12.1598C42.2839 12.2477 42.5211 12.2667 42.795 12.2168Z" fill="white"/>
<path d="M51.6606 7.52947L51.6499 8.12161L49.2932 8.07916L49.3038 7.48702L51.6606 7.52947ZM50.0104 6.40986L50.7091 6.42244L50.631 10.7569C50.6274 10.9543 50.6534 11.1028 50.7089 11.2025C50.7663 11.3003 50.8402 11.3668 50.9304 11.402C51.0226 11.4353 51.12 11.4528 51.2226 11.4547C51.2996 11.456 51.3628 11.4532 51.4123 11.4462C51.4618 11.4372 51.5014 11.4301 51.5312 11.4247L51.662 12.0549C51.6143 12.0718 51.5478 12.0884 51.4626 12.1046C51.3774 12.1228 51.2697 12.1308 51.1394 12.1284C50.942 12.1249 50.7493 12.0789 50.5614 11.9907C50.3754 11.9024 50.2218 11.7703 50.1006 11.5944C49.9813 11.4185 49.9241 11.1983 49.9289 10.9338L50.0104 6.40986Z" fill="white"/>
<path d="M56.4032 12.5965L57.218 8.12171L57.9055 8.2469L57.0907 12.7217L56.4032 12.5965ZM57.7034 7.43957C57.5694 7.41517 57.4621 7.34848 57.3816 7.23952C57.3031 7.13091 57.2755 7.01251 57.2988 6.88433C57.3222 6.75614 57.3897 6.65507 57.5015 6.58112C57.6152 6.50752 57.7391 6.48292 57.8731 6.50732C58.0071 6.53172 58.1134 6.59823 58.192 6.70684C58.2724 6.8158 58.301 6.93438 58.2777 7.06256C58.2543 7.19075 58.1858 7.29164 58.0721 7.36524C57.9603 7.43919 57.8374 7.46397 57.7034 7.43957Z" fill="white"/>
<path d="M63.3789 14.5895C62.9959 14.4413 62.6952 14.2201 62.4767 13.926C62.26 13.6326 62.1341 13.2907 62.0989 12.9003C62.0655 12.5106 62.1336 12.0967 62.3032 11.6585C62.4742 11.2166 62.7035 10.8619 62.9912 10.5944C63.2808 10.3275 63.6044 10.1585 63.9621 10.0874C64.3217 10.017 64.693 10.0559 65.0759 10.204C65.4589 10.3522 65.7587 10.573 65.9754 10.8664C66.1939 11.1606 66.3195 11.5034 66.3521 11.8949C66.3866 12.2872 66.3183 12.7042 66.1473 13.1461C65.9778 13.5843 65.7486 13.9359 65.4598 14.2009C65.1728 14.4666 64.8495 14.6347 64.4899 14.7051C64.1322 14.7762 63.7618 14.7377 63.3789 14.5895ZM63.6054 14.004C63.8963 14.1166 64.1645 14.1346 64.41 14.0582C64.6555 13.9817 64.8704 13.8394 65.0546 13.6313C65.2389 13.4232 65.3859 13.1774 65.4956 12.8939C65.6053 12.6104 65.6625 12.3287 65.667 12.0489C65.6715 11.7692 65.6091 11.5175 65.4798 11.2938C65.3504 11.0702 65.1403 10.9021 64.8494 10.7895C64.5585 10.6769 64.2899 10.6598 64.0437 10.7381C63.7975 10.8164 63.5819 10.9605 63.397 11.1705C63.212 11.3804 63.0646 11.6272 62.9549 11.9107C62.8452 12.1942 62.7884 12.475 62.7846 12.7529C62.7808 13.0308 62.8439 13.2807 62.974 13.5025C63.1041 13.7243 63.3145 13.8915 63.6054 14.004Z" fill="white"/>
<path d="M71.8731 15.674L70.3206 17.927L69.7451 17.5304L72.326 13.7852L72.8819 14.1683L72.4786 14.7535L72.5274 14.7871C72.7462 14.6574 72.9848 14.5964 73.2432 14.6042C73.5026 14.6104 73.7738 14.711 74.0566 14.9059C74.3102 15.0806 74.4963 15.2855 74.6148 15.5206C74.7344 15.7541 74.7748 16.0121 74.7359 16.2946C74.6982 16.5754 74.5696 16.8752 74.35 17.1938L72.7101 19.5736L72.1347 19.1771L73.7477 16.8363C73.9505 16.5421 74.032 16.2602 73.9923 15.9907C73.9538 15.7196 73.8012 15.4922 73.5346 15.3085C73.3509 15.1819 73.1593 15.1086 72.9598 15.0886C72.7618 15.0697 72.5688 15.1081 72.3806 15.2037C72.1924 15.2994 72.0232 15.4561 71.8731 15.674Z" fill="white"/>
<path d="M88.4902 28.6065L83.3301 31.7928L82.9568 31.1881L85.2719 25.8746L85.2408 25.8242L81.1894 28.3259L80.8036 27.701L85.9636 24.5148L86.337 25.1195L84.0179 30.4493L84.0491 30.4997L88.1106 27.9918L88.4902 28.6065Z" fill="white"/>
<path d="M85.5833 36.7491L91.3751 34.951L92.4533 38.4238L91.8311 38.617L90.9707 35.8455L89.0137 36.4531L89.7933 38.9644L89.1712 39.1575L88.3915 36.6462L85.8011 37.4504L85.5833 36.7491Z" fill="white"/>
<path d="M93.0492 44.6704L93.6992 44.6269L94.0032 49.1651L93.3532 49.2086L93.2258 47.3059L87.8248 47.6676L87.7758 46.9349L93.1767 46.5731L93.0492 44.6704Z" fill="white"/>
<path d="M34.2744 42.396C34.2744 36.8088 34.2744 34.0152 34.9341 33.0754C35.5937 32.1356 38.2204 31.2364 43.4739 29.4381L44.4747 29.0955C47.2132 28.1582 48.5825 27.6895 50.0002 27.6895C51.418 27.6895 52.7872 28.1582 55.5257 29.0955L56.5266 29.4382C61.78 31.2364 64.4068 32.1356 65.0664 33.0754C65.726 34.0152 65.726 36.8088 65.726 42.396C65.726 43.2399 65.726 44.1551 65.726 45.1475C65.726 54.9989 58.3192 59.7797 53.6721 61.8097C52.4115 62.3604 51.7812 62.6357 50.0002 62.6357C48.2193 62.6357 47.589 62.3604 46.3283 61.8097C41.6812 59.7797 34.2744 54.9989 34.2744 45.1475C34.2744 44.1551 34.2744 43.2399 34.2744 42.396Z" stroke="white" stroke-width="2.01613"/>
<circle cx="49.9985" cy="39.9185" r="3.49462" stroke="white" stroke-width="2.01613"/>
<path d="M56.9902 50.4028C56.9902 52.3329 56.9902 53.8975 50.001 53.8975C43.0117 53.8975 43.0117 52.3329 43.0117 50.4028C43.0117 48.4728 46.1409 46.9082 50.001 46.9082C53.861 46.9082 56.9902 48.4728 56.9902 50.4028Z" stroke="white" stroke-width="2.01613"/>
<path d="M33.4437 68.0908V75.1289H32.1584L29.0964 70.6991H29.0449V75.1289H27.5568V68.0908H28.8627L31.9007 72.5171H31.9625V68.0908H33.4437ZM37.0306 75.232C36.4968 75.232 36.0352 75.1186 35.6457 74.8918C35.2585 74.6627 34.9595 74.3442 34.7487 73.9364C34.538 73.5263 34.4326 73.0509 34.4326 72.5102C34.4326 71.965 34.538 71.4884 34.7487 71.0806C34.9595 70.6705 35.2585 70.3521 35.6457 70.1252C36.0352 69.8961 36.4968 69.7816 37.0306 69.7816C37.5645 69.7816 38.025 69.8961 38.4121 70.1252C38.8016 70.3521 39.1018 70.6705 39.3125 71.0806C39.5233 71.4884 39.6287 71.965 39.6287 72.5102C39.6287 73.0509 39.5233 73.5263 39.3125 73.9364C39.1018 74.3442 38.8016 74.6627 38.4121 74.8918C38.025 75.1186 37.5645 75.232 37.0306 75.232ZM37.0375 74.0979C37.2804 74.0979 37.4831 74.0292 37.6458 73.8917C37.8085 73.752 37.931 73.5618 38.0135 73.3213C38.0983 73.0807 38.1407 72.8069 38.1407 72.4999C38.1407 72.1929 38.0983 71.9191 38.0135 71.6786C37.931 71.438 37.8085 71.2479 37.6458 71.1081C37.4831 70.9683 37.2804 70.8985 37.0375 70.8985C36.7924 70.8985 36.5862 70.9683 36.4189 71.1081C36.254 71.2479 36.1291 71.438 36.0443 71.6786C35.9619 71.9191 35.9206 72.1929 35.9206 72.4999C35.9206 72.8069 35.9619 73.0807 36.0443 73.3213C36.1291 73.5618 36.254 73.752 36.4189 73.8917C36.5862 74.0292 36.7924 74.0979 37.0375 74.0979ZM43.3883 69.8503V70.95H40.2095V69.8503H43.3883ZM40.9312 68.5857H42.3951V73.5068C42.3951 73.642 42.4158 73.7474 42.457 73.823C42.4982 73.8963 42.5555 73.9479 42.6288 73.9777C42.7044 74.0074 42.7915 74.0223 42.89 74.0223C42.9587 74.0223 43.0275 74.0166 43.0962 74.0051C43.1649 73.9914 43.2176 73.9811 43.2543 73.9742L43.4845 75.0636C43.4112 75.0865 43.3081 75.1129 43.1752 75.1427C43.0424 75.1747 42.8808 75.1942 42.6907 75.2011C42.3379 75.2148 42.0286 75.1679 41.7628 75.0602C41.4993 74.9525 41.2943 74.7852 41.1477 74.5584C41.001 74.3316 40.9289 74.0452 40.9312 73.6993V68.5857ZM45.8472 75.2286C45.5104 75.2286 45.2103 75.1701 44.9468 75.0533C44.6833 74.9342 44.4749 74.7589 44.3213 74.5275C44.1701 74.2938 44.0945 74.0029 44.0945 73.6546C44.0945 73.3614 44.1484 73.1151 44.2561 72.9157C44.3637 72.7164 44.5104 72.5561 44.6959 72.4346C44.8815 72.3132 45.0923 72.2216 45.3283 72.1597C45.5665 72.0978 45.8163 72.0543 46.0774 72.0291C46.3844 71.997 46.6319 71.9672 46.8197 71.9398C47.0076 71.91 47.1439 71.8664 47.2287 71.8092C47.3135 71.7519 47.3559 71.6671 47.3559 71.5549V71.5342C47.3559 71.3166 47.2871 71.1482 47.1497 71.0291C47.0145 70.9099 46.822 70.8504 46.5723 70.8504C46.3088 70.8504 46.0992 70.9088 45.9434 71.0256C45.7876 71.1402 45.6845 71.2845 45.6341 71.4586L44.2801 71.3487C44.3488 71.0279 44.484 70.7507 44.6856 70.517C44.8872 70.281 45.1473 70.1 45.4657 69.974C45.7865 69.8457 46.1576 69.7816 46.5792 69.7816C46.8724 69.7816 47.1531 69.8159 47.4211 69.8847C47.6915 69.9534 47.9309 70.0599 48.1394 70.2043C48.3502 70.3486 48.5163 70.5342 48.6377 70.761C48.7591 70.9855 48.8198 71.2547 48.8198 71.5686V75.1289H47.4315V74.3969H47.3902C47.3054 74.5619 47.192 74.7074 47.05 74.8334C46.908 74.9571 46.7373 75.0544 46.5379 75.1255C46.3386 75.1942 46.1084 75.2286 45.8472 75.2286ZM46.2665 74.2182C46.4818 74.2182 46.672 74.1758 46.8369 74.0911C47.0019 74.004 47.1313 73.8872 47.2253 73.7405C47.3192 73.5939 47.3662 73.4278 47.3662 73.2422V72.6821C47.3203 72.7118 47.2573 72.7393 47.1772 72.7645C47.0993 72.7874 47.011 72.8092 46.9125 72.8298C46.814 72.8482 46.7155 72.8653 46.617 72.8814C46.5185 72.8951 46.4291 72.9077 46.3489 72.9192C46.1771 72.9444 46.027 72.9845 45.8987 73.0395C45.7704 73.0944 45.6708 73.1689 45.5998 73.2628C45.5287 73.3545 45.4932 73.469 45.4932 73.6065C45.4932 73.8058 45.5654 73.9582 45.7097 74.0636C45.8564 74.1667 46.0419 74.2182 46.2665 74.2182ZM49.9556 75.1289V69.8503H51.3749V70.7713H51.4299C51.5261 70.4437 51.6877 70.1963 51.9145 70.029C52.1413 69.8595 52.4025 69.7747 52.698 69.7747C52.7713 69.7747 52.8504 69.7793 52.9351 69.7885C53.0199 69.7976 53.0944 69.8102 53.1585 69.8263V71.1253C53.0898 71.1047 52.9947 71.0863 52.8733 71.0703C52.7519 71.0543 52.6407 71.0462 52.5399 71.0462C52.3246 71.0462 52.1321 71.0932 51.9626 71.1871C51.7953 71.2788 51.6625 71.4071 51.564 71.572C51.4677 71.737 51.4196 71.9272 51.4196 72.1425V75.1289H49.9556ZM53.9154 75.1289V69.8503H55.3794V75.1289H53.9154ZM54.6509 69.1699C54.4332 69.1699 54.2465 69.0977 54.0907 68.9534C53.9372 68.8067 53.8604 68.6315 53.8604 68.4276C53.8604 68.226 53.9372 68.053 54.0907 67.9086C54.2465 67.762 54.4332 67.6887 54.6509 67.6887C54.8685 67.6887 55.0541 67.762 55.2076 67.9086C55.3634 68.053 55.4413 68.226 55.4413 68.4276C55.4413 68.6315 55.3634 68.8067 55.2076 68.9534C55.0541 69.0977 54.8685 69.1699 54.6509 69.1699ZM56.5247 75.1289V74.256L59.109 71.0566V71.0188H56.614V69.8503H60.8719V70.8022L58.4457 73.9227V73.9605H60.9613V75.1289H56.5247ZM64.3352 75.232C63.7922 75.232 63.3248 75.122 62.933 74.9021C62.5436 74.6799 62.2434 74.366 62.0326 73.9605C61.8219 73.5527 61.7165 73.0704 61.7165 72.5137C61.7165 71.9707 61.8219 71.4941 62.0326 71.084C62.2434 70.6739 62.5401 70.3543 62.9227 70.1252C63.3076 69.8961 63.759 69.7816 64.2767 69.7816C64.625 69.7816 64.9492 69.8377 65.2493 69.95C65.5517 70.0599 65.8152 70.226 66.0397 70.4483C66.2665 70.6705 66.4429 70.95 66.5689 71.2868C66.6949 71.6213 66.7579 72.0131 66.7579 72.4621V72.8642H62.3007V71.9569H65.3799C65.3799 71.7462 65.3341 71.5594 65.2424 71.3968C65.1508 71.2341 65.0236 71.107 64.861 71.0153C64.7006 70.9214 64.5139 70.8744 64.3008 70.8744C64.0786 70.8744 63.8815 70.926 63.7097 71.0291C63.5402 71.1299 63.4073 71.2662 63.3111 71.438C63.2148 71.6076 63.1656 71.7966 63.1633 72.0051V72.8676C63.1633 73.1288 63.2114 73.3545 63.3076 73.5446C63.4061 73.7348 63.5447 73.8814 63.7234 73.9845C63.9021 74.0876 64.1141 74.1392 64.3592 74.1392C64.5219 74.1392 64.6708 74.1163 64.806 74.0704C64.9411 74.0246 65.0568 73.9559 65.1531 73.8642C65.2493 73.7726 65.3226 73.6603 65.373 73.5275L66.727 73.6168C66.6583 73.9421 66.5174 74.2262 66.3043 74.4691C66.0935 74.7096 65.8209 74.8975 65.4864 75.0327C65.1542 75.1656 64.7705 75.232 64.3352 75.232ZM69.6584 75.2148C69.2575 75.2148 68.8944 75.1117 68.569 74.9055C68.246 74.697 67.9894 74.3912 67.7992 73.988C67.6114 73.5824 67.5174 73.0853 67.5174 72.4965C67.5174 71.8916 67.6148 71.3888 67.8095 70.9878C68.0043 70.5846 68.2632 70.2833 68.5862 70.084C68.9115 69.8824 69.2678 69.7816 69.655 69.7816C69.9505 69.7816 70.1968 69.832 70.3939 69.9328C70.5932 70.0313 70.7535 70.155 70.875 70.3039C70.9987 70.4506 71.0926 70.5949 71.1568 70.737H71.2014V68.0908H72.662V75.1289H71.2186V74.2835H71.1568C71.088 74.4301 70.9907 74.5756 70.8647 74.72C70.7409 74.862 70.5794 74.98 70.3801 75.0739C70.1831 75.1679 69.9425 75.2148 69.6584 75.2148ZM70.1224 74.0498C70.3583 74.0498 70.5577 73.9857 70.7203 73.8574C70.8853 73.7268 71.0113 73.5446 71.0984 73.311C71.1877 73.0773 71.2324 72.8035 71.2324 72.4896C71.2324 72.1757 71.1888 71.9031 71.1018 71.6717C71.0147 71.4403 70.8887 71.2616 70.7238 71.1356C70.5588 71.0096 70.3583 70.9466 70.1224 70.9466C69.8818 70.9466 69.679 71.0119 69.5141 71.1425C69.3491 71.2731 69.2243 71.4541 69.1395 71.6854C69.0547 71.9168 69.0123 72.1849 69.0123 72.4896C69.0123 72.7966 69.0547 73.0681 69.1395 73.3041C69.2266 73.5378 69.3514 73.7211 69.5141 73.8539C69.679 73.9845 69.8818 74.0498 70.1224 74.0498ZM30.7791 79.0908V86.1289H29.291V79.0908H30.7791ZM33.921 86.2148C33.52 86.2148 33.1569 86.1117 32.8316 85.9055C32.5085 85.697 32.2519 85.3912 32.0618 84.988C31.8739 84.5824 31.78 84.0853 31.78 83.4965C31.78 82.8916 31.8773 82.3888 32.0721 81.9878C32.2668 81.5846 32.5257 81.2833 32.8487 81.084C33.1741 80.8824 33.5303 80.7816 33.9175 80.7816C34.2131 80.7816 34.4594 80.832 34.6564 80.9328C34.8557 81.0313 35.0161 81.155 35.1375 81.3039C35.2612 81.4506 35.3552 81.5949 35.4193 81.737H35.464V79.0908H36.9245V86.1289H35.4812V85.2835H35.4193C35.3506 85.4301 35.2532 85.5756 35.1272 85.72C35.0035 85.862 34.842 85.98 34.6426 86.0739C34.4456 86.1679 34.2051 86.2148 33.921 86.2148ZM34.3849 85.0498C34.6209 85.0498 34.8202 84.9857 34.9829 84.8574C35.1478 84.7268 35.2738 84.5446 35.3609 84.311C35.4502 84.0773 35.4949 83.8035 35.4949 83.4896C35.4949 83.1757 35.4514 82.9031 35.3643 82.6717C35.2773 82.4403 35.1513 82.2616 34.9863 82.1356C34.8213 82.0096 34.6209 81.9466 34.3849 81.9466C34.1443 81.9466 33.9416 82.0119 33.7766 82.1425C33.6117 82.2731 33.4868 82.4541 33.402 82.6854C33.3173 82.9168 33.2749 83.1849 33.2749 83.4896C33.2749 83.7966 33.3173 84.0681 33.402 84.3041C33.4891 84.5378 33.614 84.7211 33.7766 84.8539C33.9416 84.9845 34.1443 85.0498 34.3849 85.0498ZM40.5338 86.232C39.9908 86.232 39.5234 86.122 39.1317 85.9021C38.7422 85.6799 38.4421 85.366 38.2313 84.9605C38.0205 84.5527 37.9151 84.0704 37.9151 83.5137C37.9151 82.9707 38.0205 82.4941 38.2313 82.084C38.4421 81.6739 38.7388 81.3543 39.1214 81.1252C39.5063 80.8961 39.9576 80.7816 40.4754 80.7816C40.8236 80.7816 41.1478 80.8377 41.4479 80.95C41.7504 81.0599 42.0138 81.226 42.2384 81.4483C42.4652 81.6705 42.6416 81.95 42.7676 82.2868C42.8936 82.6213 42.9566 83.0131 42.9566 83.4621V83.8642H38.4993V82.9569H41.5785C41.5785 82.7462 41.5327 82.5594 41.4411 82.3968C41.3494 82.2341 41.2223 82.107 41.0596 82.0153C40.8992 81.9214 40.7125 81.8744 40.4994 81.8744C40.2772 81.8744 40.0802 81.926 39.9083 82.0291C39.7388 82.1299 39.6059 82.2662 39.5097 82.438C39.4135 82.6076 39.3642 82.7966 39.3619 83.0051V83.8676C39.3619 84.1288 39.41 84.3545 39.5063 84.5446C39.6048 84.7348 39.7434 84.8814 39.9221 84.9845C40.1008 85.0876 40.3127 85.1392 40.5579 85.1392C40.7205 85.1392 40.8694 85.1163 41.0046 85.0704C41.1398 85.0246 41.2555 84.9559 41.3517 84.8642C41.4479 84.7726 41.5213 84.6603 41.5717 84.5275L42.9257 84.6168C42.8569 84.9421 42.716 85.2262 42.503 85.4691C42.2922 85.7096 42.0196 85.8975 41.6851 86.0327C41.3529 86.1656 40.9691 86.232 40.5338 86.232ZM45.376 83.0772V86.1289H43.912V80.8503H45.3072V81.7816H45.3691C45.4859 81.4746 45.6818 81.2318 45.9567 81.0531C46.2317 80.8721 46.565 80.7816 46.9568 80.7816C47.3233 80.7816 47.643 80.8618 47.9156 81.0221C48.1882 81.1825 48.4001 81.4116 48.5514 81.7095C48.7026 82.005 48.7782 82.3578 48.7782 82.7679V86.1289H47.3142V83.0291C47.3165 82.7061 47.234 82.4541 47.0668 82.2731C46.8995 82.0898 46.6693 81.9981 46.376 81.9981C46.179 81.9981 46.0048 82.0405 45.8536 82.1253C45.7047 82.2101 45.5879 82.3338 45.5031 82.4964C45.4206 82.6568 45.3782 82.8504 45.376 83.0772ZM52.7397 80.8503V81.95H49.5609V80.8503H52.7397ZM50.2825 79.5857H51.7465V84.5068C51.7465 84.642 51.7671 84.7474 51.8084 84.823C51.8496 84.8963 51.9069 84.9479 51.9802 84.9777C52.0558 85.0074 52.1429 85.0223 52.2414 85.0223C52.3101 85.0223 52.3788 85.0166 52.4476 85.0051C52.5163 84.9914 52.569 84.9811 52.6057 84.9742L52.8359 86.0636C52.7626 86.0865 52.6595 86.1129 52.5266 86.1427C52.3937 86.1747 52.2322 86.1942 52.0421 86.2011C51.6892 86.2148 51.3799 86.1679 51.1142 86.0602C50.8507 85.9525 50.6457 85.7852 50.499 85.5584C50.3524 85.3316 50.2802 85.0452 50.2825 84.6993V79.5857ZM53.6933 86.1289V80.8503H55.1573V86.1289H53.6933ZM54.4288 80.1699C54.2111 80.1699 54.0244 80.0977 53.8686 79.9534C53.7151 79.8067 53.6384 79.6315 53.6384 79.4276C53.6384 79.226 53.7151 79.053 53.8686 78.9086C54.0244 78.762 54.2111 78.6887 54.4288 78.6887C54.6464 78.6887 54.832 78.762 54.9855 78.9086C55.1413 79.053 55.2192 79.226 55.2192 79.4276C55.2192 79.6315 55.1413 79.8067 54.9855 79.9534C54.832 80.0977 54.6464 80.1699 54.4288 80.1699ZM59.1687 80.8503V81.95H55.9108V80.8503H59.1687ZM56.6565 86.1289V80.4689C56.6565 80.0862 56.731 79.7689 56.8799 79.5169C57.0311 79.2649 57.2373 79.0759 57.4985 78.9499C57.7597 78.8239 58.0564 78.7609 58.3886 78.7609C58.6131 78.7609 58.8181 78.7781 59.0037 78.8124C59.1916 78.8468 59.3313 78.8777 59.423 78.9052L59.1618 80.0049C59.1045 79.9866 59.0335 79.9694 58.9487 79.9534C58.8663 79.9373 58.7815 79.9293 58.6944 79.9293C58.4791 79.9293 58.329 79.9797 58.2442 80.0805C58.1595 80.179 58.1171 80.3176 58.1171 80.4963V86.1289H56.6565ZM60.0631 86.1289V80.8503H61.527V86.1289H60.0631ZM60.7985 80.1699C60.5808 80.1699 60.3941 80.0977 60.2383 79.9534C60.0848 79.8067 60.0081 79.6315 60.0081 79.4276C60.0081 79.226 60.0848 79.053 60.2383 78.9086C60.3941 78.762 60.5808 78.6887 60.7985 78.6887C61.0161 78.6887 61.2017 78.762 61.3552 78.9086C61.511 79.053 61.5889 79.226 61.5889 79.4276C61.5889 79.6315 61.511 79.8067 61.3552 79.9534C61.2017 80.0977 61.0161 80.1699 60.7985 80.1699ZM65.5075 80.8503V81.95H62.3286V80.8503H65.5075ZM63.0503 79.5857H64.5143V84.5068C64.5143 84.642 64.5349 84.7474 64.5761 84.823C64.6174 84.8963 64.6747 84.9479 64.748 84.9777C64.8236 85.0074 64.9106 85.0223 65.0092 85.0223C65.0779 85.0223 65.1466 85.0166 65.2153 85.0051C65.2841 84.9914 65.3368 84.9811 65.3734 84.9742L65.6037 86.0636C65.5304 86.0865 65.4273 86.1129 65.2944 86.1427C65.1615 86.1747 65 86.1942 64.8098 86.2011C64.457 86.2148 64.1477 86.1679 63.882 86.0602C63.6185 85.9525 63.4134 85.7852 63.2668 85.5584C63.1202 85.3316 63.048 85.0452 63.0503 84.6993V79.5857ZM67.3649 88.1084C67.1794 88.1084 67.0052 88.0935 66.8426 88.0637C66.6822 88.0362 66.5493 88.0007 66.4439 87.9572L66.7738 86.8643C66.9457 86.917 67.1003 86.9457 67.2378 86.9502C67.3775 86.9548 67.4978 86.9228 67.5986 86.854C67.7017 86.7853 67.7853 86.6684 67.8495 86.5035L67.9354 86.2801L66.0418 80.8503H67.5814L68.6743 84.7268H68.7293L69.8324 80.8503H71.3823L69.3307 86.6994C69.2321 86.9835 69.0981 87.2309 68.9286 87.4417C68.7613 87.6547 68.5494 87.8186 68.2928 87.9331C68.0362 88.05 67.7269 88.1084 67.3649 88.1084Z" fill="white"/>
</svg>
