<svg width="46" height="46" viewBox="0 0 46 46" fill="none" xmlns="http://www.w3.org/2000/svg">
<path d="M44.042 14.011C42.8445 11.223 41.2079 8.80289 39.1336 6.75083C37.0583 4.69939 34.6342 3.07591 31.8611 1.8806C29.0873 0.685299 26.1241 0.0878525 22.9727 0.0878525C19.8199 0.0878525 16.8568 0.685299 14.0839 1.8806C11.31 3.07591 8.8858 4.70978 6.81155 6.78056C4.73626 8.85218 3.10027 11.2725 1.90317 14.0408C0.706076 16.8103 0.107422 19.7682 0.107422 22.9145C0.107422 26.062 0.706076 29.0201 1.90317 31.7884C2.68951 33.6074 3.66435 35.2678 4.82083 36.7772C6.11041 35.6295 7.59497 34.6978 8.91309 33.5782C8.0301 32.4075 7.28814 31.125 6.69178 29.727C5.77318 27.5757 5.31492 25.2853 5.31492 22.8548C5.31492 20.4253 5.77318 18.1445 6.69178 16.0128C7.60913 13.8823 8.86601 12.0193 10.4626 10.4257C12.0582 8.83305 13.9342 7.57785 16.089 6.66099C18.2437 5.74497 20.5379 5.28664 22.9727 5.28664C25.4061 5.28664 27.6911 5.74497 29.8262 6.66099C31.9602 7.57785 33.8262 8.83305 35.4228 10.4257C37.0181 12.0193 38.275 13.8823 39.1936 16.0128C40.111 18.1445 40.5701 20.4253 40.5701 22.8548C40.5701 25.2853 40.111 27.5757 39.1936 29.727C38.275 31.878 37.0181 33.7602 35.4228 35.3735C33.8262 36.9872 31.9602 38.2524 29.8262 39.1684C27.6911 40.085 25.4061 40.5425 22.9727 40.5425C22.0974 40.5425 21.2411 40.4814 20.4023 40.3629C19.8192 41.4488 19.2181 42.5216 18.6688 43.6269C18.4186 44.1305 18.1712 44.6356 17.9258 45.142C19.5324 45.4976 21.1934 45.6816 22.9127 45.6816C26.1049 45.6816 29.0873 45.084 31.8611 43.8889C34.6342 42.6938 37.0583 41.0709 39.1336 39.0189C41.2079 36.9674 42.8445 34.5668 44.042 31.8183C45.2389 29.0694 45.8373 26.1219 45.8373 22.9744C45.8373 19.7879 45.2389 16.8001 44.042 14.011Z" fill="#212121"/>
</svg>
