<svg width="74" height="68" viewBox="0 0 74 68" fill="none" xmlns="http://www.w3.org/2000/svg">
<path d="M68.5227 14.0911H56.9091V9.11381C56.9065 6.91452 56.0317 4.80604 54.4765 3.2509C52.9214 1.69576 50.8129 0.82095 48.6136 0.818359H25.3864C23.1871 0.82095 21.0786 1.69576 19.5235 3.2509C17.9683 4.80604 17.0935 6.91452 17.0909 9.11381V14.0911H5.47727C4.15766 14.0925 2.89252 14.6174 1.95941 15.5505C1.0263 16.4836 0.501449 17.7487 0.5 19.0684V37.3184H30.3636V32.3411C30.3636 31.9011 30.5384 31.4791 30.8496 31.1679C31.1607 30.8568 31.5827 30.682 32.0227 30.682H41.9773C42.4173 30.682 42.8393 30.8568 43.1504 31.1679C43.4616 31.4791 43.6364 31.9011 43.6364 32.3411V37.3184H73.5V19.0684C73.4986 17.7487 72.9737 16.4836 72.0406 15.5505C71.1075 14.6174 69.8423 14.0925 68.5227 14.0911ZM20.4091 9.11381C20.4105 7.7942 20.9354 6.52906 21.8685 5.59595C22.8016 4.66285 24.0668 4.13799 25.3864 4.13654H48.6136C49.9332 4.13799 51.1984 4.66285 52.1315 5.59595C53.0646 6.52906 53.5895 7.7942 53.5909 9.11381V14.0911H20.4091V9.11381Z" fill="#D8D8E2"/>
<path d="M40.318 34H33.6816V43.9545H40.318V34Z" fill="#D8D8E2"/>
<path d="M43.6364 45.614C43.6364 46.054 43.4616 46.476 43.1504 46.7871C42.8393 47.0983 42.4173 47.2731 41.9773 47.2731H32.0227C31.5827 47.2731 31.1607 47.0983 30.8496 46.7871C30.5384 46.476 30.3636 46.054 30.3636 45.614V40.6367H0.5V62.2049C0.501449 63.5245 1.0263 64.7897 1.95941 65.7228C2.89252 66.6559 4.15766 67.1807 5.47727 67.1822H68.5227C69.8423 67.1807 71.1075 66.6559 72.0406 65.7228C72.9737 64.7897 73.4986 63.5245 73.5 62.2049V40.6367H43.6364V45.614Z" fill="#D8D8E2"/>
</svg>
