<svg width="100" height="100" viewBox="0 0 100 100" fill="none" xmlns="http://www.w3.org/2000/svg">
<circle cx="50" cy="50" r="50" fill="#5051F2"/>
<circle cx="50" cy="50" r="48.7903" stroke="white" stroke-opacity="0.32" stroke-width="2.41935"/>
<path d="M6.0367 48.7407L11.2636 47.3325L11.269 47.2616L6.31507 45.0794L6.37344 44.3117L12.2517 46.9918L12.1942 47.7477L5.97834 49.5084L6.0367 48.7407Z" fill="white"/>
<path d="M14.0678 38.2983C13.9341 38.7157 13.7266 39.0462 13.4454 39.2898C13.163 39.531 12.8291 39.6801 12.444 39.737C12.0575 39.7915 11.6425 39.7477 11.1988 39.6055C10.7551 39.4634 10.39 39.2573 10.1034 38.9872C9.81549 38.7146 9.62329 38.4022 9.52676 38.05C9.42896 37.6953 9.44269 37.3224 9.56796 36.9314C9.64023 36.7058 9.7492 36.495 9.89487 36.2992C10.0405 36.1033 10.2269 35.9422 10.4539 35.8159C10.679 35.6891 10.9469 35.6163 11.2576 35.5977C11.5683 35.5791 11.9258 35.6345 12.33 35.764L12.612 35.8543L11.5423 39.1932L10.9671 39.0089L11.8199 36.3468C11.5755 36.2685 11.3417 36.2475 11.1187 36.2839C10.8962 36.3183 10.7009 36.4071 10.5327 36.5501C10.3652 36.6913 10.2429 36.8822 10.1658 37.1229C10.0809 37.388 10.0732 37.6384 10.1428 37.8742C10.2111 38.1075 10.333 38.3093 10.5085 38.4796C10.6841 38.6498 10.8912 38.7732 11.13 38.8497L11.5135 38.9725C11.8406 39.0773 12.136 39.1098 12.3996 39.0698C12.662 39.0274 12.8849 38.9237 13.0684 38.7586C13.25 38.5929 13.3838 38.3756 13.47 38.1068C13.526 37.9319 13.5521 37.7662 13.5484 37.6095C13.5434 37.4504 13.5077 37.3031 13.4412 37.1678C13.3728 37.0319 13.2724 36.9117 13.1401 36.8071L13.5265 36.2219C13.7229 36.3595 13.8783 36.5346 13.9925 36.7474C14.1049 36.9596 14.1695 37.198 14.1863 37.4625C14.2013 37.7264 14.1618 38.005 14.0678 38.2983Z" fill="white"/>
<path d="M16.3893 32.4606L12.4156 30.2476L12.7441 29.6577L13.3443 29.992L13.3673 29.9506C13.2111 29.7687 13.1245 29.5488 13.1077 29.2908C13.0909 29.0329 13.1488 28.785 13.2814 28.547C13.3063 28.5021 13.3384 28.4466 13.3776 28.3802C13.4168 28.3139 13.4477 28.2645 13.4704 28.2319L14.0913 28.5777C14.0746 28.5955 14.0404 28.6386 13.9887 28.707C13.9363 28.7728 13.8875 28.8461 13.8424 28.9272C13.7348 29.1204 13.6793 29.3154 13.6758 29.5123C13.6716 29.7066 13.7157 29.887 13.8081 30.0538C13.8998 30.2178 14.0353 30.3498 14.2147 30.4497L16.7293 31.8501L16.3893 32.4606Z" fill="white"/>
<path d="M20.0817 26.7201L16.5173 23.8948L16.9514 23.3471L20.5158 26.1725L20.0817 26.7201ZM16.144 23.1454C16.0593 23.2522 15.95 23.3154 15.816 23.3351C15.6832 23.3533 15.5657 23.3219 15.4636 23.241C15.3615 23.16 15.3042 23.0529 15.2915 22.9194C15.2801 22.7844 15.3168 22.6636 15.4014 22.5568C15.486 22.4501 15.5947 22.3876 15.7275 22.3694C15.8615 22.3497 15.9796 22.3803 16.0817 22.4613C16.1838 22.5422 16.2405 22.6502 16.2519 22.7852C16.2646 22.9186 16.2286 23.0387 16.144 23.1454Z" fill="white"/>
<path d="M22.1419 17.9343L22.5406 18.3723L20.7274 20.0228L20.3288 19.5848L22.1419 17.9343ZM23.9335 22.454L20.4493 18.6262C20.2739 18.4335 20.1729 18.2317 20.1465 18.0209C20.1201 17.81 20.1499 17.6067 20.236 17.4109C20.322 17.2151 20.4453 17.0441 20.6059 16.8979C20.7329 16.7823 20.8459 16.6982 20.9448 16.6456C21.0437 16.5929 21.1208 16.5574 21.1762 16.539L21.4339 17.1213C21.3997 17.1365 21.3532 17.1587 21.2945 17.1881C21.2373 17.2162 21.1715 17.2641 21.097 17.3319C20.9262 17.4873 20.842 17.6427 20.8445 17.7979C20.8485 17.9518 20.9262 18.112 21.0777 18.2784L24.4503 21.9836L23.9335 22.454Z" fill="white"/>
<path d="M29.0347 18.3942L26.556 14.5806L27.1419 14.1998L29.6207 18.0134L29.0347 18.3942ZM26.4408 13.7514C26.3266 13.8256 26.2028 13.8507 26.0695 13.8267C25.9378 13.8016 25.8365 13.7345 25.7655 13.6252C25.6945 13.516 25.6743 13.3961 25.7048 13.2656C25.737 13.134 25.8102 13.0311 25.9244 12.9569C26.0386 12.8827 26.1616 12.8581 26.2932 12.8832C26.4266 12.9072 26.5287 12.9738 26.5997 13.083C26.6707 13.1923 26.6901 13.3127 26.6579 13.4443C26.6274 13.5748 26.555 13.6772 26.4408 13.7514Z" fill="white"/>
<path d="M35.4833 15.0583C35.0899 15.2229 34.7124 15.2717 34.3505 15.2048C33.9887 15.1379 33.6631 14.9735 33.3738 14.7115C33.0844 14.4495 32.8521 14.1091 32.6769 13.6902C32.4986 13.2641 32.4196 12.8552 32.4398 12.4637C32.4611 12.0696 32.5744 11.7216 32.7797 11.4195C32.9861 11.1149 33.2787 10.8834 33.6575 10.7249C33.9525 10.6015 34.2413 10.5449 34.5237 10.5551C34.8062 10.5653 35.0642 10.6371 35.2976 10.7706C35.531 10.904 35.7208 11.0943 35.867 11.3413L35.2223 11.611C35.0931 11.4403 34.913 11.3167 34.6819 11.24C34.4519 11.1608 34.1948 11.1806 33.9107 11.2995C33.6594 11.4046 33.4665 11.5624 33.3319 11.7727C33.1984 11.9805 33.1284 12.2249 33.1218 12.5058C33.1163 12.7842 33.1798 13.0818 33.3124 13.3987C33.448 13.7228 33.6171 13.9838 33.8197 14.1815C34.0241 14.3785 34.2479 14.5042 34.4911 14.5586C34.7361 14.6123 34.9861 14.5859 35.241 14.4792C35.4086 14.4091 35.5484 14.3163 35.6607 14.2009C35.7729 14.0855 35.8535 13.9533 35.9024 13.8045C35.9514 13.6556 35.9639 13.4963 35.94 13.3265L36.5847 13.0568C36.6519 13.3197 36.6551 13.5805 36.5943 13.8392C36.5345 14.0953 36.4115 14.3308 36.2254 14.5456C36.0403 14.7579 35.7929 14.9288 35.4833 15.0583Z" fill="white"/>
<path d="M42.8026 12.8535C42.519 12.9052 42.2519 12.8986 42.0014 12.8339C41.7504 12.7672 41.5384 12.6443 41.3654 12.4651C41.1919 12.284 41.0787 12.0478 41.0256 11.7564C40.9789 11.5001 40.9916 11.2831 41.0636 11.1054C41.1352 10.9258 41.2472 10.775 41.3996 10.653C41.5519 10.5309 41.726 10.429 41.9218 10.3472C42.1192 10.2631 42.3193 10.1885 42.5222 10.1235C42.7877 10.039 43.0034 9.97266 43.1692 9.92442C43.3365 9.87387 43.455 9.8192 43.5246 9.76038C43.5961 9.70121 43.6217 9.61627 43.6016 9.50557L43.5973 9.48226C43.545 9.19482 43.4257 8.98579 43.2393 8.85518C43.055 8.72421 42.8045 8.68755 42.4879 8.74519C42.1597 8.80495 41.9154 8.92367 41.7552 9.10134C41.5949 9.27901 41.4917 9.45632 41.4457 9.63325L40.7507 9.51901C40.8177 9.22589 40.9345 8.9859 41.1012 8.79905C41.2694 8.6099 41.4636 8.46418 41.6837 8.36189C41.9055 8.2573 42.129 8.18449 42.3543 8.14347C42.498 8.1173 42.6663 8.10472 42.8591 8.10573C43.0535 8.10445 43.2476 8.14033 43.4415 8.21338C43.6374 8.28608 43.8128 8.41767 43.9679 8.60814C44.123 8.79862 44.2329 9.07157 44.2976 9.42699L44.8344 12.3752L44.1469 12.5004L44.0365 11.8945L44.0016 11.9008C43.9727 12.0064 43.9139 12.1245 43.8253 12.255C43.7367 12.3855 43.6091 12.506 43.4427 12.6166C43.2762 12.7272 43.0628 12.8062 42.8026 12.8535ZM42.795 12.2168C43.0669 12.1673 43.2863 12.0722 43.4533 11.9314C43.6223 11.7903 43.739 11.6266 43.8034 11.4403C43.8697 11.2536 43.8859 11.0671 43.8519 10.8806L43.7374 10.2514C43.7146 10.2916 43.6563 10.3353 43.5626 10.3825C43.4704 10.4274 43.3622 10.4722 43.2379 10.5169C43.1152 10.5593 42.9951 10.5992 42.8775 10.6367C42.7615 10.6719 42.6675 10.701 42.5954 10.7242C42.421 10.78 42.2609 10.8483 42.115 10.929C41.9708 11.0075 41.8605 11.1068 41.784 11.2271C41.7092 11.345 41.6877 11.4914 41.7195 11.6662C41.763 11.9051 41.8843 12.0696 42.0833 12.1598C42.2839 12.2477 42.5211 12.2667 42.795 12.2168Z" fill="white"/>
<path d="M51.6596 7.52947L51.6489 8.12161L49.2922 8.07916L49.3029 7.48702L51.6596 7.52947ZM50.0094 6.40986L50.7081 6.42244L50.63 10.7569C50.6265 10.9543 50.6524 11.1028 50.7079 11.2025C50.7654 11.3003 50.8392 11.3668 50.9294 11.402C51.0216 11.4353 51.119 11.4528 51.2216 11.4547C51.2986 11.456 51.3618 11.4532 51.4113 11.4462C51.4609 11.4372 51.5005 11.4301 51.5302 11.4247L51.661 12.0549C51.6133 12.0718 51.5469 12.0884 51.4617 12.1046C51.3764 12.1228 51.2687 12.1308 51.1384 12.1284C50.941 12.1249 50.7484 12.0789 50.5604 11.9907C50.3744 11.9024 50.2208 11.7703 50.0996 11.5944C49.9804 11.4185 49.9231 11.1983 49.9279 10.9338L50.0094 6.40986Z" fill="white"/>
<path d="M56.4042 12.5965L57.219 8.12171L57.9065 8.2469L57.0917 12.7217L56.4042 12.5965ZM57.7043 7.43957C57.5703 7.41517 57.4631 7.34848 57.3826 7.23952C57.3041 7.13091 57.2764 7.01251 57.2998 6.88433C57.3231 6.75614 57.3907 6.65507 57.5025 6.58112C57.6162 6.50752 57.7401 6.48292 57.8741 6.50732C58.0081 6.53172 58.1144 6.59823 58.1929 6.70684C58.2734 6.8158 58.302 6.93438 58.2786 7.06256C58.2553 7.19075 58.1868 7.29164 58.073 7.36524C57.9613 7.43919 57.8384 7.46397 57.7043 7.43957Z" fill="white"/>
<path d="M63.3789 14.5895C62.9959 14.4413 62.6952 14.2201 62.4767 13.926C62.26 13.6326 62.1341 13.2907 62.0989 12.9003C62.0655 12.5106 62.1336 12.0967 62.3032 11.6585C62.4742 11.2166 62.7035 10.8619 62.9912 10.5944C63.2808 10.3275 63.6044 10.1585 63.9621 10.0874C64.3217 10.017 64.693 10.0559 65.0759 10.204C65.4589 10.3522 65.7587 10.573 65.9754 10.8664C66.1939 11.1606 66.3195 11.5034 66.3521 11.8949C66.3866 12.2872 66.3183 12.7042 66.1473 13.1461C65.9778 13.5843 65.7486 13.9359 65.4598 14.2009C65.1728 14.4666 64.8495 14.6347 64.4899 14.7051C64.1322 14.7762 63.7618 14.7377 63.3789 14.5895ZM63.6054 14.004C63.8963 14.1166 64.1645 14.1346 64.41 14.0582C64.6555 13.9817 64.8704 13.8394 65.0546 13.6313C65.2389 13.4232 65.3859 13.1774 65.4956 12.8939C65.6053 12.6104 65.6625 12.3287 65.667 12.0489C65.6715 11.7692 65.6091 11.5175 65.4798 11.2938C65.3504 11.0702 65.1403 10.9021 64.8494 10.7895C64.5585 10.6769 64.2899 10.6598 64.0437 10.7381C63.7975 10.8164 63.5819 10.9605 63.397 11.1705C63.212 11.3804 63.0646 11.6272 62.9549 11.9107C62.8452 12.1942 62.7884 12.475 62.7846 12.7529C62.7808 13.0308 62.8439 13.2807 62.974 13.5025C63.1041 13.7243 63.3145 13.8915 63.6054 14.004Z" fill="white"/>
<path d="M71.8731 15.674L70.3206 17.927L69.7451 17.5304L72.326 13.7852L72.8819 14.1683L72.4786 14.7535L72.5274 14.7871C72.7462 14.6574 72.9848 14.5964 73.2432 14.6042C73.5026 14.6104 73.7738 14.711 74.0566 14.9059C74.3102 15.0806 74.4963 15.2855 74.6148 15.5206C74.7344 15.7541 74.7748 16.0121 74.7359 16.2946C74.6982 16.5754 74.5696 16.8752 74.35 17.1938L72.7101 19.5736L72.1347 19.1771L73.7477 16.8363C73.9505 16.5421 74.032 16.2602 73.9923 15.9907C73.9538 15.7196 73.8012 15.4922 73.5346 15.3085C73.3509 15.1819 73.1593 15.1086 72.9598 15.0886C72.7618 15.0697 72.5688 15.1081 72.3806 15.2037C72.1924 15.2994 72.0232 15.4561 71.8731 15.674Z" fill="white"/>
<path d="M88.4902 28.6065L83.3301 31.7928L82.9568 31.1881L85.2719 25.8746L85.2408 25.8242L81.1894 28.3259L80.8036 27.701L85.9636 24.5148L86.337 25.1195L84.0179 30.4493L84.0491 30.4997L88.1106 27.9918L88.4902 28.6065Z" fill="white"/>
<path d="M85.5833 36.7491L91.3751 34.951L92.4533 38.4238L91.8311 38.617L90.9707 35.8455L89.0137 36.4531L89.7933 38.9644L89.1712 39.1575L88.3915 36.6462L85.8011 37.4504L85.5833 36.7491Z" fill="white"/>
<path d="M93.0502 44.6704L93.7002 44.6269L94.0042 49.1651L93.3542 49.2086L93.2267 47.3059L87.8258 47.6676L87.7767 46.9349L93.1777 46.5731L93.0502 44.6704Z" fill="white"/>
<g clip-path="url(#clip0_2245_32440)">
<path d="M63.5978 42.4064C65.7275 44.9499 65.2847 48.0605 65.2847 50.806C65.2847 58.3665 55.197 60.4834 50.0003 60.4834C44.8036 60.4834 34.7159 58.3665 34.7159 50.806C34.7159 48.0605 34.2731 44.9499 36.4028 42.4064M63.5978 42.4064C63.2253 41.9615 62.774 41.5339 62.2278 41.1286M63.5978 42.4064C64.9385 43.1868 65.281 40.2667 65.2847 39.3141V35.6853C65.2847 32.5401 63.1449 31.4514 61.3108 31.4514C59.4767 31.4514 55.8084 34.4754 54.5857 34.4754C53.1184 34.4754 52.8357 34.1732 50.0004 34.1732C47.165 34.1732 46.8823 34.4754 45.415 34.4754C44.1923 34.4754 40.524 31.4512 38.6899 31.4512C36.8558 31.4512 34.7159 32.5399 34.7159 35.685V39.3141C34.7196 40.2667 35.0622 43.1868 36.4028 42.4064M36.4028 42.4064C36.7754 41.9615 37.2267 41.5339 37.7729 41.1286" stroke="white" stroke-width="2.01613" stroke-linecap="round"/>
<path d="M51.6125 52.8231C51.6125 53.0458 50.8904 53.2264 49.9996 53.2264C49.1088 53.2264 48.3867 53.0458 48.3867 52.8231C48.3867 52.6005 49.1088 52.4199 49.9996 52.4199C50.8904 52.4199 51.6125 52.6005 51.6125 52.8231Z" stroke="white" stroke-width="2.01613"/>
<path d="M56.4518 48.3863C56.4518 49.2771 56.0908 49.9992 55.6454 49.9992C55.2 49.9992 54.8389 49.2771 54.8389 48.3863C54.8389 47.4956 55.2 46.7734 55.6454 46.7734C56.0908 46.7734 56.4518 47.4956 56.4518 48.3863Z" stroke="white" stroke-width="2.01613"/>
<path d="M45.1618 48.3863C45.1618 49.2771 44.8007 49.9992 44.3553 49.9992C43.9099 49.9992 43.5489 49.2771 43.5489 48.3863C43.5489 47.4956 43.9099 46.7734 44.3553 46.7734C44.8007 46.7734 45.1618 47.4956 45.1618 48.3863Z" stroke="white" stroke-width="2.01613"/>
<path d="M69.3549 51.6129C68.4333 51.1521 64.4394 50 62.9033 50" stroke="white" stroke-width="2.01613" stroke-linecap="round"/>
<path d="M66.1287 56.4508C65.161 55.99 62.9029 54.8379 61.29 54.8379" stroke="white" stroke-width="2.01613" stroke-linecap="round"/>
<path d="M30.6455 51.6129C31.5672 51.1521 35.561 50 37.0971 50" stroke="white" stroke-width="2.01613" stroke-linecap="round"/>
<path d="M33.8711 56.4508C34.8388 55.99 37.0969 54.8379 38.7098 54.8379" stroke="white" stroke-width="2.01613" stroke-linecap="round"/>
</g>
<path d="M13.6665 76.7422V69.7041H16.4433C16.9771 69.7041 17.4319 69.806 17.8076 70.0099C18.1833 70.2115 18.4697 70.4922 18.6668 70.8519C18.8661 71.2093 18.9657 71.6217 18.9657 72.0891C18.9657 72.5564 18.8649 72.9688 18.6633 73.3262C18.4617 73.6836 18.1696 73.962 17.787 74.1613C17.4067 74.3606 16.9462 74.4603 16.4055 74.4603H14.6356V73.2678H16.1649C16.4513 73.2678 16.6873 73.2185 16.8729 73.12C17.0607 73.0192 17.2005 72.8806 17.2921 72.7042C17.3861 72.5255 17.433 72.3204 17.433 72.0891C17.433 71.8554 17.3861 71.6515 17.2921 71.4773C17.2005 71.3009 17.0607 71.1646 16.8729 71.0684C16.685 70.9699 16.4467 70.9206 16.158 70.9206H15.1546V76.7422H13.6665ZM24.2967 72.9688L22.9565 73.0513C22.9336 72.9367 22.8843 72.8336 22.8087 72.742C22.7331 72.6481 22.6334 72.5736 22.5097 72.5186C22.3883 72.4613 22.2428 72.4327 22.0733 72.4327C21.8465 72.4327 21.6552 72.4808 21.4994 72.577C21.3436 72.671 21.2657 72.797 21.2657 72.9551C21.2657 73.0811 21.3161 73.1876 21.4169 73.2747C21.5177 73.3617 21.6907 73.4316 21.9358 73.4843L22.8912 73.6768C23.4044 73.7821 23.787 73.9517 24.039 74.1854C24.291 74.4191 24.417 74.7261 24.417 75.1064C24.417 75.4523 24.3151 75.7559 24.1112 76.0171C23.9095 76.2782 23.6323 76.4822 23.2795 76.6288C22.929 76.7731 22.5246 76.8453 22.0664 76.8453C21.3676 76.8453 20.8109 76.6998 20.3962 76.4088C19.9838 76.1156 19.7421 75.7169 19.6711 75.2129L21.111 75.1373C21.1546 75.3504 21.2599 75.513 21.4272 75.6253C21.5944 75.7353 21.8087 75.7903 22.0698 75.7903C22.3264 75.7903 22.5326 75.741 22.6884 75.6425C22.8465 75.5417 22.9267 75.4122 22.929 75.2541C22.9267 75.1213 22.8706 75.0124 22.7606 74.9277C22.6506 74.8406 22.4811 74.7742 22.252 74.7283L21.3378 74.5462C20.8224 74.4431 20.4386 74.2644 20.1866 74.0101C19.9369 73.7558 19.812 73.4316 19.812 73.0376C19.812 72.6985 19.9036 72.4064 20.0869 72.1612C20.2725 71.9161 20.5325 71.7271 20.867 71.5942C21.2038 71.4613 21.5979 71.3949 22.0492 71.3949C22.7159 71.3949 23.2406 71.5358 23.6232 71.8176C24.0081 72.0994 24.2326 72.4831 24.2967 72.9688ZM27.7445 76.8453C27.2015 76.8453 26.7341 76.7353 26.3424 76.5154C25.9529 76.2931 25.6528 75.9793 25.442 75.5737C25.2312 75.1659 25.1258 74.6837 25.1258 74.1269C25.1258 73.584 25.2312 73.1074 25.442 72.6973C25.6528 72.2872 25.9494 71.9676 26.3321 71.7385C26.717 71.5094 27.1683 71.3949 27.6861 71.3949C28.0343 71.3949 28.3585 71.451 28.6586 71.5633C28.961 71.6732 29.2245 71.8393 29.449 72.0616C29.6759 72.2838 29.8523 72.5633 29.9783 72.9001C30.1043 73.2346 30.1673 73.6264 30.1673 74.0754V74.4775H25.71V73.5702H28.7892C28.7892 73.3594 28.7434 73.1727 28.6517 73.0101C28.5601 72.8474 28.433 72.7202 28.2703 72.6286C28.1099 72.5347 27.9232 72.4877 27.7101 72.4877C27.4879 72.4877 27.2909 72.5392 27.119 72.6423C26.9495 72.7431 26.8166 72.8795 26.7204 73.0513C26.6242 73.2208 26.5749 73.4098 26.5726 73.6183V74.4809C26.5726 74.7421 26.6207 74.9678 26.717 75.1579C26.8155 75.3481 26.9541 75.4947 27.1328 75.5978C27.3115 75.7009 27.5234 75.7525 27.7685 75.7525C27.9312 75.7525 28.0801 75.7295 28.2153 75.6837C28.3505 75.6379 28.4662 75.5692 28.5624 75.4775C28.6586 75.3859 28.7319 75.2736 28.7823 75.1407L30.1364 75.2301C30.0676 75.5554 29.9267 75.8395 29.7137 76.0824C29.5029 76.3229 29.2302 76.5108 28.8957 76.646C28.5635 76.7788 28.1798 76.8453 27.7445 76.8453ZM34.5077 74.4947V71.4636H35.9717V76.7422H34.5661V75.7834H34.5111C34.392 76.0927 34.1938 76.3413 33.9166 76.5291C33.6417 76.717 33.306 76.8109 32.9097 76.8109C32.5569 76.8109 32.2464 76.7307 31.9784 76.5704C31.7103 76.41 31.5007 76.182 31.3495 75.8865C31.2005 75.5909 31.1249 75.237 31.1227 74.8246V71.4636H32.5866V74.5634C32.5889 74.875 32.6726 75.1213 32.8375 75.3023C33.0025 75.4833 33.2236 75.5737 33.5008 75.5737C33.6772 75.5737 33.8421 75.5337 33.9956 75.4535C34.1491 75.371 34.2729 75.2496 34.3668 75.0892C34.463 74.9288 34.51 74.7306 34.5077 74.4947ZM39.0878 76.8281C38.6869 76.8281 38.3237 76.725 37.9984 76.5188C37.6754 76.3103 37.4188 76.0045 37.2286 75.6012C37.0407 75.1957 36.9468 74.6986 36.9468 74.1098C36.9468 73.5049 37.0442 73.002 37.2389 72.6011C37.4337 72.1979 37.6925 71.8966 38.0156 71.6973C38.3409 71.4957 38.6972 71.3949 39.0844 71.3949C39.3799 71.3949 39.6262 71.4453 39.8232 71.5461C40.0225 71.6446 40.1829 71.7683 40.3043 71.9172C40.4281 72.0639 40.522 72.2082 40.5861 72.3502H40.6308V69.7041H42.0914V76.7422H40.648V75.8968H40.5861C40.5174 76.0434 40.42 76.1889 40.294 76.3332C40.1703 76.4753 40.0088 76.5933 39.8095 76.6872C39.6124 76.7811 39.3719 76.8281 39.0878 76.8281ZM39.5517 75.6631C39.7877 75.6631 39.987 75.599 40.1497 75.4707C40.3147 75.3401 40.4407 75.1579 40.5277 74.9242C40.6171 74.6905 40.6617 74.4168 40.6617 74.1029C40.6617 73.789 40.6182 73.5164 40.5312 73.285C40.4441 73.0536 40.3181 72.8749 40.1531 72.7489C39.9882 72.6229 39.7877 72.5599 39.5517 72.5599C39.3112 72.5599 39.1084 72.6252 38.9435 72.7558C38.7785 72.8863 38.6536 73.0673 38.5689 73.2987C38.4841 73.5301 38.4417 73.7982 38.4417 74.1029C38.4417 74.4099 38.4841 74.6814 38.5689 74.9174C38.6559 75.151 38.7808 75.3343 38.9435 75.4672C39.1084 75.5978 39.3112 75.6631 39.5517 75.6631ZM45.68 76.8453C45.1462 76.8453 44.6846 76.7319 44.2951 76.5051C43.9079 76.276 43.6089 75.9575 43.3981 75.5497C43.1874 75.1396 43.082 74.6642 43.082 74.1235C43.082 73.5782 43.1874 73.1017 43.3981 72.6939C43.6089 72.2838 43.9079 71.9653 44.2951 71.7385C44.6846 71.5094 45.1462 71.3949 45.68 71.3949C46.2138 71.3949 46.6743 71.5094 47.0615 71.7385C47.451 71.9653 47.7511 72.2838 47.9619 72.6939C48.1727 73.1017 48.2781 73.5782 48.2781 74.1235C48.2781 74.6642 48.1727 75.1396 47.9619 75.5497C47.7511 75.9575 47.451 76.276 47.0615 76.5051C46.6743 76.7319 46.2138 76.8453 45.68 76.8453ZM45.6869 75.7112C45.9297 75.7112 46.1325 75.6425 46.2952 75.505C46.4578 75.3653 46.5804 75.1751 46.6629 74.9345C46.7477 74.694 46.79 74.4202 46.79 74.1132C46.79 73.8062 46.7477 73.5324 46.6629 73.2919C46.5804 73.0513 46.4578 72.8611 46.2952 72.7214C46.1325 72.5816 45.9297 72.5118 45.6869 72.5118C45.4418 72.5118 45.2356 72.5816 45.0683 72.7214C44.9034 72.8611 44.7785 73.0513 44.6937 73.2919C44.6112 73.5324 44.57 73.8062 44.57 74.1132C44.57 74.4202 44.6112 74.694 44.6937 74.9345C44.7785 75.1751 44.9034 75.3653 45.0683 75.505C45.2356 75.6425 45.4418 75.7112 45.6869 75.7112ZM50.694 73.6905V76.7422H49.23V71.4636H50.6253V72.3949H50.6871C50.804 72.0879 50.9999 71.8451 51.2748 71.6664C51.5497 71.4854 51.8831 71.3949 52.2748 71.3949C52.6414 71.3949 52.961 71.4751 53.2336 71.6354C53.5063 71.7958 53.7182 72.0249 53.8694 72.3227C54.0206 72.6183 54.0962 72.9711 54.0962 73.3812V76.7422H52.6322V73.6424C52.6345 73.3194 52.552 73.0673 52.3848 72.8863C52.2175 72.7031 51.9873 72.6114 51.694 72.6114C51.497 72.6114 51.3229 72.6538 51.1717 72.7386C51.0228 72.8233 50.9059 72.9471 50.8212 73.1097C50.7387 73.2701 50.6963 73.4637 50.694 73.6905ZM55.9649 78.7217C55.7793 78.7217 55.6052 78.7068 55.4425 78.677C55.2821 78.6495 55.1492 78.614 55.0439 78.5705L55.3738 77.4776C55.5456 77.5303 55.7002 77.5589 55.8377 77.5635C55.9775 77.5681 56.0977 77.536 56.1985 77.4673C56.3016 77.3986 56.3853 77.2817 56.4494 77.1168L56.5353 76.8934L54.6418 71.4636H56.1814L57.2742 75.3401H57.3292L58.4323 71.4636H59.9822L57.9306 77.3127C57.8321 77.5968 57.698 77.8442 57.5285 78.055C57.3613 78.268 57.1493 78.4318 56.8927 78.5464C56.6361 78.6632 56.3268 78.7217 55.9649 78.7217ZM60.7314 76.7422V71.4636H62.1267V72.3949H62.1885C62.2985 72.0856 62.4818 71.8416 62.7384 71.6629C62.995 71.4842 63.302 71.3949 63.6594 71.3949C64.0214 71.3949 64.3295 71.4854 64.5838 71.6664C64.8381 71.8451 65.0077 72.0879 65.0924 72.3949H65.1474C65.2551 72.0925 65.4498 71.8508 65.7316 71.6698C66.0157 71.4865 66.3514 71.3949 66.7385 71.3949C67.2311 71.3949 67.6309 71.5518 67.9379 71.8657C68.2472 72.1773 68.4019 72.6194 68.4019 73.1922V76.7422H66.9413V73.4809C66.9413 73.1876 66.8634 72.9677 66.7076 72.821C66.5518 72.6744 66.3571 72.6011 66.1234 72.6011C65.8576 72.6011 65.6503 72.6859 65.5014 72.8554C65.3525 73.0227 65.278 73.2437 65.278 73.5187V76.7422H63.8587V73.4499C63.8587 73.1911 63.7842 72.9849 63.6353 72.8314C63.4887 72.6779 63.2951 72.6011 63.0545 72.6011C62.8919 72.6011 62.7452 72.6423 62.6146 72.7248C62.4863 72.805 62.3844 72.9184 62.3088 73.065C62.2332 73.2094 62.1954 73.3789 62.1954 73.5737V76.7422H60.7314ZM71.9433 76.8453C71.4094 76.8453 70.9478 76.7319 70.5583 76.5051C70.1711 76.276 69.8721 75.9575 69.6614 75.5497C69.4506 75.1396 69.3452 74.6642 69.3452 74.1235C69.3452 73.5782 69.4506 73.1017 69.6614 72.6939C69.8721 72.2838 70.1711 71.9653 70.5583 71.7385C70.9478 71.5094 71.4094 71.3949 71.9433 71.3949C72.4771 71.3949 72.9376 71.5094 73.3248 71.7385C73.7142 71.9653 74.0144 72.2838 74.2251 72.6939C74.4359 73.1017 74.5413 73.5782 74.5413 74.1235C74.5413 74.6642 74.4359 75.1396 74.2251 75.5497C74.0144 75.9575 73.7142 76.276 73.3248 76.5051C72.9376 76.7319 72.4771 76.8453 71.9433 76.8453ZM71.9501 75.7112C72.193 75.7112 72.3957 75.6425 72.5584 75.505C72.7211 75.3653 72.8436 75.1751 72.9261 74.9345C73.0109 74.694 73.0533 74.4202 73.0533 74.1132C73.0533 73.8062 73.0109 73.5324 72.9261 73.2919C72.8436 73.0513 72.7211 72.8611 72.5584 72.7214C72.3957 72.5816 72.193 72.5118 71.9501 72.5118C71.705 72.5118 71.4988 72.5816 71.3315 72.7214C71.1666 72.8611 71.0417 73.0513 70.957 73.2919C70.8745 73.5324 70.8332 73.8062 70.8332 74.1132C70.8332 74.4202 70.8745 74.694 70.957 74.9345C71.0417 75.1751 71.1666 75.3653 71.3315 75.505C71.4988 75.6425 71.705 75.7112 71.9501 75.7112ZM78.8783 74.4947V71.4636H80.3423V76.7422H78.9367V75.7834H78.8817C78.7626 76.0927 78.5644 76.3413 78.2872 76.5291C78.0123 76.717 77.6766 76.8109 77.2803 76.8109C76.9274 76.8109 76.617 76.7307 76.349 76.5704C76.0809 76.41 75.8713 76.182 75.7201 75.8865C75.5711 75.5909 75.4955 75.237 75.4932 74.8246V71.4636H76.9572V74.5634C76.9595 74.875 77.0431 75.1213 77.2081 75.3023C77.3731 75.4833 77.5941 75.5737 77.8714 75.5737C78.0478 75.5737 78.2127 75.5337 78.3662 75.4535C78.5197 75.371 78.6434 75.2496 78.7374 75.0892C78.8336 74.9288 78.8806 74.7306 78.8783 74.4947ZM85.9052 72.9688L84.565 73.0513C84.5421 72.9367 84.4928 72.8336 84.4172 72.742C84.3416 72.6481 84.2419 72.5736 84.1182 72.5186C83.9968 72.4613 83.8513 72.4327 83.6818 72.4327C83.455 72.4327 83.2636 72.4808 83.1079 72.577C82.9521 72.671 82.8742 72.797 82.8742 72.9551C82.8742 73.0811 82.9246 73.1876 83.0254 73.2747C83.1262 73.3617 83.2992 73.4316 83.5443 73.4843L84.4997 73.6768C85.0129 73.7821 85.3955 73.9517 85.6475 74.1854C85.8995 74.4191 86.0255 74.7261 86.0255 75.1064C86.0255 75.4523 85.9236 75.7559 85.7197 76.0171C85.518 76.2782 85.2408 76.4822 84.888 76.6288C84.5375 76.7731 84.1331 76.8453 83.6749 76.8453C82.9761 76.8453 82.4194 76.6998 82.0047 76.4088C81.5923 76.1156 81.3506 75.7169 81.2796 75.2129L82.7195 75.1373C82.7631 75.3504 82.8684 75.513 83.0357 75.6253C83.2029 75.7353 83.4171 75.7903 83.6783 75.7903C83.9349 75.7903 84.1411 75.741 84.2969 75.6425C84.455 75.5417 84.5352 75.4122 84.5375 75.2541C84.5352 75.1213 84.4791 75.0124 84.3691 74.9277C84.2591 74.8406 84.0896 74.7742 83.8605 74.7283L82.9463 74.5462C82.4308 74.4431 82.0471 74.2644 81.7951 74.0101C81.5454 73.7558 81.4205 73.4316 81.4205 73.0376C81.4205 72.6985 81.5121 72.4064 81.6954 72.1612C81.881 71.9161 82.141 71.7271 82.4755 71.5942C82.8123 71.4613 83.2064 71.3949 83.6577 71.3949C84.3244 71.3949 84.8491 71.5358 85.2317 71.8176C85.6166 72.0994 85.8411 72.4831 85.9052 72.9688Z" fill="white"/>
<defs>
<clipPath id="clip0_2245_32440">
<rect width="41.9355" height="41.9355" fill="white" transform="translate(29.0322 24.1934)"/>
</clipPath>
</defs>
</svg>
