<svg width="100" height="100" viewBox="0 0 100 100" fill="none" xmlns="http://www.w3.org/2000/svg">
<circle cx="50" cy="50" r="50" fill="#F5D549"/>
<circle cx="50" cy="50" r="48.7903" stroke="white" stroke-opacity="0.32" stroke-width="2.41935"/>
<path d="M6.0367 48.7407L11.2636 47.3325L11.269 47.2616L6.31507 45.0794L6.37344 44.3117L12.2517 46.9918L12.1942 47.7477L5.97834 49.5084L6.0367 48.7407Z" fill="white"/>
<path d="M14.0678 38.2983C13.9341 38.7157 13.7266 39.0462 13.4454 39.2898C13.163 39.531 12.8291 39.6801 12.444 39.737C12.0575 39.7915 11.6425 39.7477 11.1988 39.6055C10.7551 39.4634 10.39 39.2573 10.1034 38.9872C9.81549 38.7146 9.62329 38.4022 9.52676 38.05C9.42896 37.6953 9.44269 37.3224 9.56796 36.9314C9.64023 36.7058 9.7492 36.495 9.89487 36.2992C10.0405 36.1033 10.2269 35.9422 10.4539 35.8159C10.679 35.6891 10.9469 35.6163 11.2576 35.5977C11.5683 35.5791 11.9258 35.6345 12.33 35.764L12.612 35.8543L11.5423 39.1932L10.9671 39.0089L11.8199 36.3468C11.5755 36.2685 11.3417 36.2475 11.1187 36.2839C10.8962 36.3183 10.7009 36.4071 10.5327 36.5501C10.3652 36.6913 10.2429 36.8822 10.1658 37.1229C10.0809 37.388 10.0732 37.6384 10.1428 37.8742C10.2111 38.1075 10.333 38.3093 10.5085 38.4796C10.6841 38.6498 10.8912 38.7732 11.13 38.8497L11.5135 38.9725C11.8406 39.0773 12.136 39.1098 12.3996 39.0698C12.662 39.0274 12.8849 38.9237 13.0684 38.7586C13.25 38.5929 13.3838 38.3756 13.47 38.1068C13.526 37.9319 13.5521 37.7662 13.5484 37.6095C13.5434 37.4504 13.5077 37.3031 13.4412 37.1678C13.3728 37.0319 13.2724 36.9117 13.1401 36.8071L13.5265 36.2219C13.7229 36.3595 13.8783 36.5346 13.9925 36.7474C14.1049 36.9596 14.1695 37.198 14.1863 37.4625C14.2013 37.7264 14.1618 38.005 14.0678 38.2983Z" fill="white"/>
<path d="M16.3893 32.4606L12.4156 30.2476L12.7441 29.6577L13.3443 29.992L13.3673 29.9506C13.2111 29.7687 13.1245 29.5488 13.1077 29.2908C13.0909 29.0329 13.1488 28.785 13.2814 28.547C13.3063 28.5021 13.3384 28.4466 13.3776 28.3802C13.4168 28.3139 13.4477 28.2645 13.4704 28.2319L14.0913 28.5777C14.0746 28.5955 14.0404 28.6386 13.9887 28.707C13.9363 28.7728 13.8875 28.8461 13.8424 28.9272C13.7348 29.1204 13.6793 29.3154 13.6758 29.5123C13.6716 29.7066 13.7157 29.887 13.8081 30.0538C13.8998 30.2178 14.0353 30.3498 14.2147 30.4497L16.7293 31.8501L16.3893 32.4606Z" fill="white"/>
<path d="M20.0817 26.7201L16.5173 23.8948L16.9514 23.3471L20.5158 26.1725L20.0817 26.7201ZM16.144 23.1454C16.0593 23.2522 15.95 23.3154 15.816 23.3351C15.6832 23.3533 15.5657 23.3219 15.4636 23.241C15.3615 23.16 15.3042 23.0529 15.2915 22.9194C15.2801 22.7844 15.3168 22.6636 15.4014 22.5568C15.486 22.4501 15.5947 22.3876 15.7275 22.3694C15.8615 22.3497 15.9796 22.3803 16.0817 22.4613C16.1838 22.5422 16.2405 22.6502 16.2519 22.7852C16.2646 22.9186 16.2286 23.0387 16.144 23.1454Z" fill="white"/>
<path d="M22.1419 17.9343L22.5406 18.3723L20.7274 20.0228L20.3288 19.5848L22.1419 17.9343ZM23.9335 22.454L20.4493 18.6262C20.2739 18.4335 20.1729 18.2317 20.1465 18.0209C20.1201 17.81 20.1499 17.6067 20.236 17.4109C20.322 17.2151 20.4453 17.0441 20.6059 16.8979C20.7329 16.7823 20.8459 16.6982 20.9448 16.6456C21.0437 16.5929 21.1208 16.5574 21.1762 16.539L21.4339 17.1213C21.3997 17.1365 21.3532 17.1587 21.2945 17.1881C21.2373 17.2162 21.1715 17.2641 21.097 17.3319C20.9262 17.4873 20.842 17.6427 20.8445 17.7979C20.8485 17.9518 20.9262 18.112 21.0777 18.2784L24.4503 21.9836L23.9335 22.454Z" fill="white"/>
<path d="M29.0347 18.3942L26.556 14.5806L27.1419 14.1998L29.6207 18.0134L29.0347 18.3942ZM26.4408 13.7514C26.3266 13.8256 26.2028 13.8507 26.0695 13.8267C25.9378 13.8016 25.8365 13.7345 25.7655 13.6252C25.6945 13.516 25.6743 13.3961 25.7048 13.2656C25.737 13.134 25.8102 13.0311 25.9244 12.9569C26.0386 12.8827 26.1616 12.8581 26.2932 12.8832C26.4266 12.9072 26.5287 12.9738 26.5997 13.083C26.6707 13.1923 26.6901 13.3127 26.6579 13.4443C26.6274 13.5748 26.555 13.6772 26.4408 13.7514Z" fill="white"/>
<path d="M35.4833 15.0583C35.0899 15.2229 34.7124 15.2717 34.3505 15.2048C33.9887 15.1379 33.6631 14.9735 33.3738 14.7115C33.0844 14.4495 32.8521 14.1091 32.6769 13.6902C32.4986 13.2641 32.4196 12.8552 32.4398 12.4637C32.4611 12.0696 32.5744 11.7216 32.7797 11.4195C32.9861 11.1149 33.2787 10.8834 33.6575 10.7249C33.9525 10.6015 34.2413 10.5449 34.5237 10.5551C34.8062 10.5653 35.0642 10.6371 35.2976 10.7706C35.531 10.904 35.7208 11.0943 35.867 11.3413L35.2223 11.611C35.0931 11.4403 34.913 11.3167 34.6819 11.24C34.4519 11.1608 34.1948 11.1806 33.9107 11.2995C33.6594 11.4046 33.4665 11.5624 33.3319 11.7727C33.1984 11.9805 33.1284 12.2249 33.1218 12.5058C33.1163 12.7842 33.1798 13.0818 33.3124 13.3987C33.448 13.7228 33.6171 13.9838 33.8197 14.1815C34.0241 14.3785 34.2479 14.5042 34.4911 14.5586C34.7361 14.6123 34.9861 14.5859 35.241 14.4792C35.4086 14.4091 35.5484 14.3163 35.6607 14.2009C35.7729 14.0855 35.8535 13.9533 35.9024 13.8045C35.9514 13.6556 35.9639 13.4963 35.94 13.3265L36.5847 13.0568C36.6519 13.3197 36.6551 13.5805 36.5943 13.8392C36.5345 14.0953 36.4115 14.3308 36.2254 14.5456C36.0403 14.7579 35.7929 14.9288 35.4833 15.0583Z" fill="white"/>
<path d="M42.8026 12.8535C42.519 12.9052 42.2519 12.8986 42.0014 12.8339C41.7504 12.7672 41.5384 12.6443 41.3654 12.4651C41.1919 12.284 41.0787 12.0478 41.0256 11.7564C40.9789 11.5001 40.9916 11.2831 41.0636 11.1054C41.1352 10.9258 41.2472 10.775 41.3996 10.653C41.5519 10.5309 41.726 10.429 41.9218 10.3472C42.1192 10.2631 42.3193 10.1885 42.5222 10.1235C42.7877 10.039 43.0034 9.97266 43.1692 9.92442C43.3365 9.87387 43.455 9.8192 43.5246 9.76038C43.5961 9.70121 43.6217 9.61627 43.6016 9.50557L43.5973 9.48226C43.545 9.19482 43.4257 8.98579 43.2393 8.85518C43.055 8.72421 42.8045 8.68755 42.4879 8.74519C42.1597 8.80495 41.9154 8.92367 41.7552 9.10134C41.5949 9.27901 41.4917 9.45632 41.4457 9.63325L40.7507 9.51901C40.8177 9.22589 40.9345 8.9859 41.1012 8.79905C41.2694 8.6099 41.4636 8.46418 41.6837 8.36189C41.9055 8.2573 42.129 8.18449 42.3543 8.14347C42.498 8.1173 42.6663 8.10472 42.8591 8.10573C43.0535 8.10445 43.2476 8.14033 43.4415 8.21338C43.6374 8.28608 43.8128 8.41767 43.9679 8.60814C44.123 8.79862 44.2329 9.07157 44.2976 9.42699L44.8344 12.3752L44.1469 12.5004L44.0365 11.8945L44.0016 11.9008C43.9727 12.0064 43.9139 12.1245 43.8253 12.255C43.7367 12.3855 43.6091 12.506 43.4427 12.6166C43.2762 12.7272 43.0628 12.8062 42.8026 12.8535ZM42.795 12.2168C43.0669 12.1673 43.2863 12.0722 43.4533 11.9314C43.6223 11.7903 43.739 11.6266 43.8034 11.4403C43.8697 11.2536 43.8859 11.0671 43.8519 10.8806L43.7374 10.2514C43.7146 10.2916 43.6563 10.3353 43.5626 10.3825C43.4704 10.4274 43.3622 10.4722 43.2379 10.5169C43.1152 10.5593 42.9951 10.5992 42.8775 10.6367C42.7615 10.6719 42.6675 10.701 42.5954 10.7242C42.421 10.78 42.2609 10.8483 42.115 10.929C41.9708 11.0075 41.8605 11.1068 41.784 11.2271C41.7092 11.345 41.6877 11.4914 41.7195 11.6662C41.763 11.9051 41.8843 12.0696 42.0833 12.1598C42.2839 12.2477 42.5211 12.2667 42.795 12.2168Z" fill="white"/>
<path d="M51.6596 7.52947L51.6489 8.12161L49.2922 8.07916L49.3029 7.48702L51.6596 7.52947ZM50.0094 6.40986L50.7081 6.42244L50.63 10.7569C50.6265 10.9543 50.6524 11.1028 50.7079 11.2025C50.7654 11.3003 50.8392 11.3668 50.9294 11.402C51.0216 11.4353 51.119 11.4528 51.2216 11.4547C51.2986 11.456 51.3618 11.4532 51.4113 11.4462C51.4609 11.4372 51.5005 11.4301 51.5302 11.4247L51.661 12.0549C51.6133 12.0718 51.5469 12.0884 51.4617 12.1046C51.3764 12.1228 51.2687 12.1308 51.1384 12.1284C50.941 12.1249 50.7484 12.0789 50.5604 11.9907C50.3744 11.9024 50.2208 11.7703 50.0996 11.5944C49.9804 11.4185 49.9231 11.1983 49.9279 10.9338L50.0094 6.40986Z" fill="white"/>
<path d="M56.4042 12.5965L57.219 8.12171L57.9065 8.2469L57.0917 12.7217L56.4042 12.5965ZM57.7043 7.43957C57.5703 7.41517 57.4631 7.34848 57.3826 7.23952C57.3041 7.13091 57.2764 7.01251 57.2998 6.88433C57.3231 6.75614 57.3907 6.65507 57.5025 6.58112C57.6162 6.50752 57.7401 6.48292 57.8741 6.50732C58.0081 6.53172 58.1144 6.59823 58.1929 6.70684C58.2734 6.8158 58.302 6.93438 58.2786 7.06256C58.2553 7.19075 58.1868 7.29164 58.073 7.36524C57.9613 7.43919 57.8384 7.46397 57.7043 7.43957Z" fill="white"/>
<path d="M63.3789 14.5895C62.9959 14.4413 62.6952 14.2201 62.4767 13.926C62.26 13.6326 62.1341 13.2907 62.0989 12.9003C62.0655 12.5106 62.1336 12.0967 62.3032 11.6585C62.4742 11.2166 62.7035 10.8619 62.9912 10.5944C63.2808 10.3275 63.6044 10.1585 63.9621 10.0874C64.3217 10.017 64.693 10.0559 65.0759 10.204C65.4589 10.3522 65.7587 10.573 65.9754 10.8664C66.1939 11.1606 66.3195 11.5034 66.3521 11.8949C66.3866 12.2872 66.3183 12.7042 66.1473 13.1461C65.9778 13.5843 65.7486 13.9359 65.4598 14.2009C65.1728 14.4666 64.8495 14.6347 64.4899 14.7051C64.1322 14.7762 63.7618 14.7377 63.3789 14.5895ZM63.6054 14.004C63.8963 14.1166 64.1645 14.1346 64.41 14.0582C64.6555 13.9817 64.8704 13.8394 65.0546 13.6313C65.2389 13.4232 65.3859 13.1774 65.4956 12.8939C65.6053 12.6104 65.6625 12.3287 65.667 12.0489C65.6715 11.7692 65.6091 11.5175 65.4798 11.2938C65.3504 11.0702 65.1403 10.9021 64.8494 10.7895C64.5585 10.6769 64.2899 10.6598 64.0437 10.7381C63.7975 10.8164 63.5819 10.9605 63.397 11.1705C63.212 11.3804 63.0646 11.6272 62.9549 11.9107C62.8452 12.1942 62.7884 12.475 62.7846 12.7529C62.7808 13.0308 62.8439 13.2807 62.974 13.5025C63.1041 13.7243 63.3145 13.8915 63.6054 14.004Z" fill="white"/>
<path d="M71.8731 15.674L70.3206 17.927L69.7451 17.5304L72.326 13.7852L72.8819 14.1683L72.4786 14.7535L72.5274 14.7871C72.7462 14.6574 72.9848 14.5964 73.2432 14.6042C73.5026 14.6104 73.7738 14.711 74.0566 14.9059C74.3102 15.0806 74.4963 15.2855 74.6148 15.5206C74.7344 15.7541 74.7748 16.0121 74.7359 16.2946C74.6982 16.5754 74.5696 16.8752 74.35 17.1938L72.7101 19.5736L72.1347 19.1771L73.7477 16.8363C73.9505 16.5421 74.032 16.2602 73.9923 15.9907C73.9538 15.7196 73.8012 15.4922 73.5346 15.3085C73.3509 15.1819 73.1593 15.1086 72.9598 15.0886C72.7618 15.0697 72.5688 15.1081 72.3806 15.2037C72.1924 15.2994 72.0232 15.4561 71.8731 15.674Z" fill="white"/>
<path d="M88.4902 28.6065L83.3301 31.7928L82.9568 31.1881L85.2719 25.8746L85.2408 25.8242L81.1894 28.3259L80.8036 27.701L85.9636 24.5148L86.337 25.1195L84.0179 30.4493L84.0491 30.4997L88.1106 27.9918L88.4902 28.6065Z" fill="white"/>
<path d="M85.5833 36.7491L91.3751 34.951L92.4533 38.4238L91.8311 38.617L90.9707 35.8455L89.0137 36.4531L89.7933 38.9644L89.1712 39.1575L88.3915 36.6462L85.8011 37.4504L85.5833 36.7491Z" fill="white"/>
<path d="M93.0502 44.6704L93.7002 44.6269L94.0042 49.1651L93.3542 49.2086L93.2267 47.3059L87.8258 47.6676L87.7767 46.9349L93.1777 46.5731L93.0502 44.6704Z" fill="white"/>
<path d="M63.7522 45.84L62.7499 45.7322L63.7522 45.84ZM63.4318 48.8186L64.4341 48.9264L63.4318 48.8186ZM36.5679 48.8186L35.5656 48.9264L36.5679 48.8186ZM36.2475 45.84L37.2498 45.7322L36.2475 45.84ZM44.3387 43.2986L45.2191 43.7897L44.3387 43.2986ZM47.4655 37.6923L46.5851 37.2013V37.2013L47.4655 37.6923ZM52.5342 37.6923L51.6538 38.1833V38.1833L52.5342 37.6923ZM55.661 43.2986L56.5414 42.8076V42.8076L55.661 43.2986ZM56.9957 45.09L56.5895 46.0126L56.5895 46.0126L56.9957 45.09ZM59.5585 43.8424L58.8471 43.1282L59.5585 43.8424ZM57.7812 45.1996L57.6431 44.201L57.7812 45.1996ZM40.4412 43.8424L39.7298 44.5566L40.4412 43.8424ZM42.2185 45.1996L42.3566 44.201H42.3566L42.2185 45.1996ZM43.004 45.09L43.4102 46.0126L43.4102 46.0126L43.004 45.09ZM39.0129 59.4075L39.6852 58.6564H39.6852L39.0129 59.4075ZM60.9868 59.4075L60.3145 58.6564H60.3145L60.9868 59.4075ZM61.9942 41.632L62.757 40.973L61.9942 41.632ZM51.5858 36.045L51.1277 35.1471L51.5858 36.045ZM48.4139 36.045L48.872 35.1471L48.4139 36.045ZM62.7499 45.7322L62.4295 48.7108L64.4341 48.9264L64.7544 45.9479L62.7499 45.7322ZM51.9008 59.8791H48.0989V61.8952H51.9008V59.8791ZM37.5702 48.7108L37.2498 45.7322L35.2453 45.9479L35.5656 48.9264L37.5702 48.7108ZM45.2191 43.7897L48.3459 38.1833L46.5851 37.2013L43.4583 42.8076L45.2191 43.7897ZM51.6538 38.1833L54.7806 43.7897L56.5414 42.8076L53.4146 37.2013L51.6538 38.1833ZM54.7806 43.7897C55.0665 44.3023 55.318 44.7557 55.559 45.099C55.8057 45.4504 56.1209 45.8062 56.5895 46.0126L57.402 44.1674C57.4257 44.1778 57.3701 44.1699 57.209 43.9404C57.0422 43.7029 56.8488 43.3587 56.5414 42.8076L54.7806 43.7897ZM58.8471 43.1282C58.3997 43.5739 58.1186 43.8521 57.8926 44.0349C57.6741 44.2117 57.618 44.2045 57.6431 44.201L57.9192 46.1981C58.4261 46.128 58.8268 45.8724 59.1607 45.6023C59.4869 45.3384 59.8536 44.9713 60.2699 44.5566L58.8471 43.1282ZM56.5895 46.0126C57.007 46.1964 57.4674 46.2606 57.9192 46.1981L57.6431 44.201C57.561 44.2123 57.4775 44.2007 57.402 44.1674L56.5895 46.0126ZM39.7298 44.5566C40.1461 44.9713 40.5128 45.3384 40.839 45.6023C41.1729 45.8725 41.5736 46.128 42.0805 46.1981L42.3566 44.201C42.3817 44.2045 42.3256 44.2117 42.1071 44.0349C41.8811 43.8521 41.6 43.5739 41.1526 43.1282L39.7298 44.5566ZM43.4583 42.8076C43.1509 43.3587 42.9575 43.7029 42.7907 43.9404C42.6296 44.1699 42.574 44.1778 42.5977 44.1674L43.4102 46.0126C43.8788 45.8062 44.194 45.4504 44.4407 45.099C44.6817 44.7557 44.9332 44.3023 45.2191 43.7897L43.4583 42.8076ZM42.0805 46.1981C42.5323 46.2606 42.9927 46.1964 43.4102 46.0126L42.5977 44.1674C42.5222 44.2007 42.4387 44.2123 42.3566 44.201L42.0805 46.1981ZM48.0989 59.8791C45.5945 59.8791 43.8122 59.8772 42.4455 59.7023C41.107 59.531 40.301 59.2075 39.6852 58.6564L38.3406 60.1586C39.3779 61.0871 40.6372 61.5035 42.1896 61.7021C43.7139 61.8972 45.648 61.8952 48.0989 61.8952V59.8791ZM35.5656 48.9264C35.8257 51.3441 36.0294 53.683 36.3769 55.5802C36.5518 56.5354 36.7703 57.4229 37.0689 58.1861C37.3654 58.9443 37.7654 59.6438 38.3406 60.1586L39.6852 58.6564C39.4338 58.4313 39.1809 58.0508 38.9465 57.4517C38.7141 56.8576 38.5237 56.1107 38.36 55.217C38.0303 53.4167 37.8381 51.2011 37.5702 48.7108L35.5656 48.9264ZM62.4295 48.7108C62.1616 51.2011 61.9694 53.4167 61.6397 55.217C61.476 56.1107 61.2856 56.8576 61.0532 57.4517C60.8189 58.0508 60.5659 58.4313 60.3145 58.6564L61.6591 60.1586C62.2343 59.6438 62.6343 58.9443 62.9308 58.1861C63.2294 57.4229 63.4479 56.5354 63.6228 55.5802C63.9703 53.683 64.174 51.3441 64.4341 48.9264L62.4295 48.7108ZM51.9008 61.8952C54.3517 61.8952 56.2858 61.8972 57.8101 61.7021C59.3625 61.5035 60.6218 61.0871 61.6591 60.1586L60.3145 58.6564C59.6987 59.2075 58.8927 59.531 57.5542 59.7023C56.1875 59.8772 54.4052 59.8791 51.9008 59.8791V61.8952ZM47.5133 32.9302C47.5133 31.5569 48.6266 30.4436 49.9999 30.4436V28.4275C47.5131 28.4275 45.4972 30.4434 45.4972 32.9302H47.5133ZM49.9999 30.4436C51.3731 30.4436 52.4864 31.5569 52.4864 32.9302H54.5025C54.5025 30.4434 52.4866 28.4275 49.9999 28.4275V30.4436ZM65.5913 39.9194C65.5913 40.8102 64.8691 41.5323 63.9783 41.5323V43.5485C65.9826 43.5485 67.6074 41.9237 67.6074 39.9194H65.5913ZM62.3654 39.9194C62.3654 39.0286 63.0876 38.3065 63.9783 38.3065V36.2904C61.9741 36.2904 60.3493 37.9152 60.3493 39.9194H62.3654ZM63.9783 38.3065C64.8691 38.3065 65.5913 39.0286 65.5913 39.9194H67.6074C67.6074 37.9152 65.9826 36.2904 63.9783 36.2904V38.3065ZM36.0214 41.5323C35.1306 41.5323 34.4085 40.8102 34.4085 39.9194H32.3923C32.3923 41.9237 34.0171 43.5485 36.0214 43.5485V41.5323ZM34.4085 39.9194C34.4085 39.0286 35.1306 38.3065 36.0214 38.3065V36.2904C34.0171 36.2904 32.3923 37.9152 32.3923 39.9194H34.4085ZM36.0214 38.3065C36.9121 38.3065 37.6343 39.0286 37.6343 39.9194H39.6504C39.6504 37.9152 38.0256 36.2904 36.0214 36.2904V38.3065ZM63.9783 41.5323C63.9719 41.5323 63.9655 41.5323 63.9591 41.5322L63.9357 43.5482C63.9499 43.5484 63.9641 43.5485 63.9783 43.5485V41.5323ZM64.7544 45.9479C64.8392 45.1597 64.9125 44.4794 64.9526 43.9133C64.9921 43.3564 65.0051 42.8437 64.9465 42.4063L62.9483 42.6741C62.9783 42.8979 62.9791 43.2406 62.9416 43.7709C62.9046 44.2921 62.836 44.9311 62.7499 45.7322L64.7544 45.9479ZM63.9591 41.5322C63.4794 41.5267 63.0505 41.3127 62.757 40.973L61.2314 42.291C61.8867 43.0495 62.8546 43.5357 63.9357 43.5482L63.9591 41.5322ZM62.757 40.973C62.5124 40.6898 62.3654 40.323 62.3654 39.9194H60.3493C60.3493 40.8251 60.6824 41.6555 61.2314 42.291L62.757 40.973ZM60.2699 44.5566C61.4393 43.3918 62.0802 42.7636 62.5237 42.4898L61.4647 40.7742C60.7689 41.2037 59.9201 42.0593 58.8471 43.1282L60.2699 44.5566ZM37.6343 39.9194C37.6343 40.323 37.4873 40.6898 37.2427 40.973L38.7683 42.291C39.3173 41.6555 39.6504 40.8251 39.6504 39.9194H37.6343ZM41.1526 43.1282C40.0796 42.0593 39.2308 41.2037 38.535 40.7742L37.476 42.4898C37.9195 42.7636 38.5604 43.3918 39.7298 44.5566L41.1526 43.1282ZM37.2427 40.973C36.9492 41.3127 36.5203 41.5267 36.0406 41.5322L36.064 43.5482C37.1451 43.5357 38.1131 43.0495 38.7683 42.291L37.2427 40.973ZM36.0406 41.5322C36.0342 41.5323 36.0278 41.5323 36.0214 41.5323V43.5485C36.0356 43.5485 36.0498 43.5484 36.064 43.5482L36.0406 41.5322ZM37.2498 45.7322C37.1637 44.9311 37.0951 44.2921 37.0581 43.7709C37.0206 43.2406 37.0215 42.8979 37.0514 42.6741L35.0532 42.4063C34.9946 42.8437 35.0076 43.3563 35.0471 43.9133C35.0872 44.4794 35.1605 45.1597 35.2453 45.9479L37.2498 45.7322ZM52.4864 32.9302C52.4864 33.8957 51.9363 34.7345 51.1277 35.1471L52.044 36.943C53.5011 36.1995 54.5025 34.6827 54.5025 32.9302H52.4864ZM51.1277 35.1471C50.7903 35.3192 50.4079 35.4167 49.9999 35.4167V37.4329C50.7338 37.4329 51.4294 37.2565 52.044 36.943L51.1277 35.1471ZM53.4146 37.2013C53.0529 36.5527 52.7331 35.9787 52.4407 35.5108L50.731 36.5792C50.9909 36.9952 51.2836 37.5195 51.6538 38.1833L53.4146 37.2013ZM49.9999 35.4167C49.5918 35.4167 49.2094 35.3192 48.872 35.1471L47.9558 36.943C48.5703 37.2565 49.2659 37.4329 49.9999 37.4329V35.4167ZM48.872 35.1471C48.0634 34.7345 47.5133 33.8957 47.5133 32.9302H45.4972C45.4972 34.6827 46.4986 36.1995 47.9558 36.943L48.872 35.1471ZM48.3459 38.1833C48.7161 37.5195 49.0088 36.9952 49.2688 36.5792L47.559 35.5108C47.2666 35.9787 46.9468 36.5527 46.5851 37.2013L48.3459 38.1833Z" fill="white"/>
<path d="M37.7695 54.7715H62.2319" stroke="white" stroke-width="2.01613" stroke-linecap="round"/>
<path d="M40.4129 75.1289V68.0908H43.1897C43.7212 68.0908 44.1748 68.1859 44.5506 68.376C44.9286 68.5639 45.2161 68.8308 45.4132 69.1767C45.6125 69.5204 45.7121 69.9248 45.7121 70.3899C45.7121 70.8572 45.6113 71.2593 45.4097 71.5961C45.2081 71.9306 44.916 72.1872 44.5334 72.3659C44.1531 72.5446 43.6926 72.6339 43.1519 72.6339H41.2927V71.438H42.9113C43.1954 71.438 43.4314 71.3991 43.6193 71.3212C43.8071 71.2433 43.9469 71.1264 44.0385 70.9706C44.1325 70.8148 44.1794 70.6213 44.1794 70.3899C44.1794 70.1562 44.1325 69.9591 44.0385 69.7988C43.9469 69.6384 43.806 69.517 43.6158 69.4345C43.428 69.3497 43.1908 69.3073 42.9045 69.3073H41.901V75.1289H40.4129ZM44.2138 71.926L45.963 75.1289H44.3203L42.6089 71.926H44.2138ZM49.0568 75.232C48.5138 75.232 48.0464 75.122 47.6547 74.9021C47.2652 74.6799 46.9651 74.366 46.7543 73.9605C46.5435 73.5527 46.4381 73.0704 46.4381 72.5137C46.4381 71.9707 46.5435 71.4941 46.7543 71.084C46.9651 70.6739 47.2618 70.3543 47.6444 70.1252C48.0293 69.8961 48.4806 69.7816 48.9984 69.7816C49.3466 69.7816 49.6708 69.8377 49.9709 69.95C50.2734 70.0599 50.5368 70.226 50.7613 70.4483C50.9882 70.6705 51.1646 70.95 51.2906 71.2868C51.4166 71.6213 51.4796 72.0131 51.4796 72.4621V72.8642H47.0223V71.9569H50.1015C50.1015 71.7462 50.0557 71.5594 49.9641 71.3968C49.8724 71.2341 49.7453 71.107 49.5826 71.0153C49.4222 70.9214 49.2355 70.8744 49.0224 70.8744C48.8002 70.8744 48.6032 70.926 48.4313 71.0291C48.2618 71.1299 48.1289 71.2662 48.0327 71.438C47.9365 71.6076 47.8872 71.7966 47.8849 72.0051V72.8676C47.8849 73.1288 47.933 73.3545 48.0293 73.5446C48.1278 73.7348 48.2664 73.8814 48.4451 73.9845C48.6238 74.0876 48.8357 74.1392 49.0809 74.1392C49.2435 74.1392 49.3924 74.1163 49.5276 74.0704C49.6628 74.0246 49.7785 73.9559 49.8747 73.8642C49.9709 73.7726 50.0442 73.6603 50.0946 73.5275L51.4487 73.6168C51.3799 73.9421 51.239 74.2262 51.026 74.4691C50.8152 74.7096 50.5426 74.8975 50.2081 75.0327C49.8759 75.1656 49.4921 75.232 49.0568 75.232ZM53.9402 75.2286C53.6034 75.2286 53.3033 75.1701 53.0398 75.0533C52.7763 74.9342 52.5678 74.7589 52.4143 74.5275C52.2631 74.2938 52.1875 74.0029 52.1875 73.6546C52.1875 73.3614 52.2414 73.1151 52.349 72.9157C52.4567 72.7164 52.6034 72.5561 52.7889 72.4346C52.9745 72.3132 53.1853 72.2216 53.4213 72.1597C53.6595 72.0978 53.9093 72.0543 54.1704 72.0291C54.4774 71.997 54.7249 71.9672 54.9127 71.9398C55.1006 71.91 55.2369 71.8664 55.3217 71.8092C55.4065 71.7519 55.4488 71.6671 55.4488 71.5549V71.5342C55.4488 71.3166 55.3801 71.1482 55.2427 71.0291C55.1075 70.9099 54.915 70.8504 54.6653 70.8504C54.4018 70.8504 54.1922 70.9088 54.0364 71.0256C53.8806 71.1402 53.7775 71.2845 53.7271 71.4586L52.3731 71.3487C52.4418 71.0279 52.577 70.7507 52.7786 70.517C52.9802 70.281 53.2403 70.1 53.5587 69.974C53.8795 69.8457 54.2506 69.7816 54.6722 69.7816C54.9654 69.7816 55.2461 69.8159 55.5141 69.8847C55.7845 69.9534 56.0239 70.0599 56.2324 70.2043C56.4432 70.3486 56.6093 70.5342 56.7307 70.761C56.8521 70.9855 56.9128 71.2547 56.9128 71.5686V75.1289H55.5245V74.3969H55.4832C55.3984 74.5619 55.285 74.7074 55.143 74.8334C55.0009 74.9571 54.8303 75.0544 54.6309 75.1255C54.4316 75.1942 54.2014 75.2286 53.9402 75.2286ZM54.3595 74.2182C54.5748 74.2182 54.765 74.1758 54.9299 74.0911C55.0949 74.004 55.2243 73.8872 55.3183 73.7405C55.4122 73.5939 55.4592 73.4278 55.4592 73.2422V72.6821C55.4133 72.7118 55.3503 72.7393 55.2701 72.7645C55.1922 72.7874 55.104 72.8092 55.0055 72.8298C54.907 72.8482 54.8085 72.8653 54.71 72.8814C54.6115 72.8951 54.5221 72.9077 54.4419 72.9192C54.2701 72.9444 54.12 72.9845 53.9917 73.0395C53.8634 73.0944 53.7638 73.1689 53.6928 73.2628C53.6217 73.3545 53.5862 73.469 53.5862 73.6065C53.5862 73.8058 53.6584 73.9582 53.8027 74.0636C53.9494 74.1667 54.1349 74.2182 54.3595 74.2182ZM59.5126 68.0908V75.1289H58.0486V68.0908H59.5126ZM33.816 79.0908V86.1289H32.3279V79.0908H33.816ZM36.9579 86.2148C36.5569 86.2148 36.1938 86.1117 35.8685 85.9055C35.5454 85.697 35.2888 85.3912 35.0987 84.988C34.9108 84.5824 34.8169 84.0853 34.8169 83.4965C34.8169 82.8916 34.9143 82.3888 35.109 81.9878C35.3037 81.5846 35.5626 81.2833 35.8857 81.084C36.211 80.8824 36.5673 80.7816 36.9544 80.7816C37.25 80.7816 37.4963 80.832 37.6933 80.9328C37.8926 81.0313 38.053 81.155 38.1744 81.3039C38.2981 81.4506 38.3921 81.5949 38.4562 81.737H38.5009V79.0908H39.9615V86.1289H38.5181V85.2835H38.4562C38.3875 85.4301 38.2901 85.5756 38.1641 85.72C38.0404 85.862 37.8789 85.98 37.6796 86.0739C37.4825 86.1679 37.242 86.2148 36.9579 86.2148ZM37.4218 85.0498C37.6578 85.0498 37.8571 84.9857 38.0198 84.8574C38.1847 84.7268 38.3107 84.5446 38.3978 84.311C38.4872 84.0773 38.5318 83.8035 38.5318 83.4896C38.5318 83.1757 38.4883 82.9031 38.4012 82.6717C38.3142 82.4403 38.1882 82.2616 38.0232 82.1356C37.8583 82.0096 37.6578 81.9466 37.4218 81.9466C37.1813 81.9466 36.9785 82.0119 36.8135 82.1425C36.6486 82.2731 36.5237 82.4541 36.439 82.6854C36.3542 82.9168 36.3118 83.1849 36.3118 83.4896C36.3118 83.7966 36.3542 84.0681 36.439 84.3041C36.526 84.5378 36.6509 84.7211 36.8135 84.8539C36.9785 84.9845 37.1813 85.0498 37.4218 85.0498ZM43.5707 86.232C43.0277 86.232 42.5604 86.122 42.1686 85.9021C41.7791 85.6799 41.479 85.366 41.2682 84.9605C41.0574 84.5527 40.952 84.0704 40.952 83.5137C40.952 82.9707 41.0574 82.4941 41.2682 82.084C41.479 81.6739 41.7757 81.3543 42.1583 81.1252C42.5432 80.8961 42.9945 80.7816 43.5123 80.7816C43.8605 80.7816 44.1847 80.8377 44.4849 80.95C44.7873 81.0599 45.0507 81.226 45.2753 81.4483C45.5021 81.6705 45.6785 81.95 45.8045 82.2868C45.9305 82.6213 45.9935 83.0131 45.9935 83.4621V83.8642H41.5363V82.9569H44.6154C44.6154 82.7462 44.5696 82.5594 44.478 82.3968C44.3863 82.2341 44.2592 82.107 44.0965 82.0153C43.9361 81.9214 43.7494 81.8744 43.5364 81.8744C43.3141 81.8744 43.1171 81.926 42.9453 82.0291C42.7757 82.1299 42.6428 82.2662 42.5466 82.438C42.4504 82.6076 42.4011 82.7966 42.3988 83.0051V83.8676C42.3988 84.1288 42.447 84.3545 42.5432 84.5446C42.6417 84.7348 42.7803 84.8814 42.959 84.9845C43.1377 85.0876 43.3496 85.1392 43.5948 85.1392C43.7574 85.1392 43.9064 85.1163 44.0415 85.0704C44.1767 85.0246 44.2924 84.9559 44.3886 84.8642C44.4849 84.7726 44.5582 84.6603 44.6086 84.5275L45.9626 84.6168C45.8939 84.9421 45.753 85.2262 45.5399 85.4691C45.3291 85.7096 45.0565 85.8975 44.722 86.0327C44.3898 86.1656 44.006 86.232 43.5707 86.232ZM48.4129 83.0772V86.1289H46.9489V80.8503H48.3441V81.7816H48.406C48.5228 81.4746 48.7187 81.2318 48.9937 81.0531C49.2686 80.8721 49.6019 80.7816 49.9937 80.7816C50.3603 80.7816 50.6799 80.8618 50.9525 81.0221C51.2251 81.1825 51.4371 81.4116 51.5883 81.7095C51.7395 82.005 51.8151 82.3578 51.8151 82.7679V86.1289H50.3511V83.0291C50.3534 82.7061 50.2709 82.4541 50.1037 82.2731C49.9364 82.0898 49.7062 81.9981 49.4129 81.9981C49.2159 81.9981 49.0418 82.0405 48.8906 82.1253C48.7416 82.2101 48.6248 82.3338 48.54 82.4964C48.4575 82.6568 48.4152 82.8504 48.4129 83.0772ZM55.7766 80.8503V81.95H52.5978V80.8503H55.7766ZM53.3195 79.5857H54.7834V84.5068C54.7834 84.642 54.8041 84.7474 54.8453 84.823C54.8865 84.8963 54.9438 84.9479 55.0171 84.9777C55.0927 85.0074 55.1798 85.0223 55.2783 85.0223C55.347 85.0223 55.4158 85.0166 55.4845 85.0051C55.5532 84.9914 55.6059 84.9811 55.6426 84.9742L55.8728 86.0636C55.7995 86.0865 55.6964 86.1129 55.5635 86.1427C55.4307 86.1747 55.2691 86.1942 55.079 86.2011C54.7262 86.2148 54.4169 86.1679 54.1511 86.0602C53.8876 85.9525 53.6826 85.7852 53.536 85.5584C53.3893 85.3316 53.3172 85.0452 53.3195 84.6993V79.5857ZM56.7303 86.1289V80.8503H58.1942V86.1289H56.7303ZM57.4657 80.1699C57.248 80.1699 57.0613 80.0977 56.9055 79.9534C56.752 79.8067 56.6753 79.6315 56.6753 79.4276C56.6753 79.226 56.752 79.053 56.9055 78.9086C57.0613 78.762 57.248 78.6887 57.4657 78.6887C57.6833 78.6887 57.8689 78.762 58.0224 78.9086C58.1782 79.053 58.2561 79.226 58.2561 79.4276C58.2561 79.6315 58.1782 79.8067 58.0224 79.9534C57.8689 80.0977 57.6833 80.1699 57.4657 80.1699ZM62.2056 80.8503V81.95H58.9477V80.8503H62.2056ZM59.6935 86.1289V80.4689C59.6935 80.0862 59.7679 79.7689 59.9168 79.5169C60.068 79.2649 60.2742 79.0759 60.5354 78.9499C60.7966 78.8239 61.0933 78.7609 61.4255 78.7609C61.65 78.7609 61.8551 78.7781 62.0406 78.8124C62.2285 78.8468 62.3683 78.8777 62.4599 78.9052L62.1987 80.0049C62.1414 79.9866 62.0704 79.9694 61.9857 79.9534C61.9032 79.9373 61.8184 79.9293 61.7313 79.9293C61.516 79.9293 61.3659 79.9797 61.2812 80.0805C61.1964 80.179 61.154 80.3176 61.154 80.4963V86.1289H59.6935ZM64.0038 88.1084C63.8182 88.1084 63.6441 88.0935 63.4814 88.0637C63.3211 88.0362 63.1882 88.0007 63.0828 87.9572L63.4127 86.8643C63.5845 86.917 63.7392 86.9457 63.8766 86.9502C64.0164 86.9548 64.1367 86.9228 64.2375 86.854C64.3406 86.7853 64.4242 86.6684 64.4883 86.5035L64.5743 86.2801L62.6807 80.8503H64.2203L65.3131 84.7268H65.3681L66.4713 80.8503H68.0212L65.9695 86.6994C65.871 86.9835 65.737 87.2309 65.5674 87.4417C65.4002 87.6547 65.1883 87.8186 64.9317 87.9331C64.6751 88.05 64.3658 88.1084 64.0038 88.1084Z" fill="white"/>
</svg>
