<svg width="50" height="50" viewBox="0 0 50 50" fill="none" xmlns="http://www.w3.org/2000/svg">
<path d="M17.7455 45.3578L17.7455 45.3578C16.723 46.2355 15.7346 47.0514 14.9688 47.6571C14.7488 47.8312 14.5502 47.9854 14.3767 48.1173C14.4484 47.962 14.5357 47.778 14.6419 47.5602C15.4532 45.8961 17.1438 42.6913 20.5709 36.1944L20.6668 36.0127C20.6668 36.0127 20.6668 36.0127 20.6668 36.0127C21.4952 34.4423 22.2497 32.9877 22.7983 31.9082C23.0721 31.3695 23.2977 30.9182 23.4564 30.5904C23.5349 30.4283 23.6023 30.2855 23.6522 30.1734C23.6763 30.1194 23.7037 30.056 23.7277 29.9936C23.7391 29.9639 23.7574 29.9147 23.7751 29.8564L23.7754 29.8555C23.7805 29.8396 23.8433 29.6456 23.8433 29.4035C23.8433 28.7697 23.4704 28.3839 23.2983 28.2398C23.1193 28.09 22.9465 28.0155 22.8721 27.9855C22.7099 27.9201 22.5603 27.8903 22.4894 27.8771C22.3225 27.846 22.1284 27.8264 21.9423 27.8118C21.5532 27.7813 20.9955 27.7582 20.2806 27.7402C18.8419 27.7041 16.67 27.687 13.7191 27.687C9.42219 27.687 7.17545 27.6855 5.97901 27.5867C6.01429 27.5506 6.05298 27.5117 6.09539 27.4698C6.80045 26.7742 8.14879 25.6335 10.7663 23.457C14.1026 20.6828 15.7667 19.2669 24.5736 11.7114C30.6076 6.5347 34.5392 3.20535 35.8758 2.13793C35.9731 2.06027 36.0721 1.98559 36.1697 1.91554C35.9751 2.33232 35.6947 2.90497 35.2939 3.69978C34.1501 5.96766 32.0862 9.92562 28.403 16.9583C27.9725 17.7805 27.5864 18.5411 27.3107 19.1063C27.174 19.3865 27.0583 19.6311 26.9768 19.8155C26.938 19.9033 26.8957 20.0026 26.8621 20.0948C26.8479 20.1339 26.8178 20.2182 26.7942 20.3193C26.7841 20.3629 26.7586 20.4768 26.7535 20.6227C26.751 20.6955 26.751 20.8324 26.7872 20.9989C26.8208 21.1533 26.9145 21.4673 27.1994 21.7492L27.1994 21.7492L27.2052 21.7548C27.4204 21.9655 27.6451 22.055 27.6969 22.0756L27.6996 22.0767C27.7839 22.1103 27.8536 22.1292 27.8885 22.1381C27.961 22.1566 28.0202 22.1659 28.0442 22.1695C28.0993 22.1779 28.1482 22.1825 28.1738 22.1847C28.2322 22.1899 28.2989 22.1939 28.3627 22.1972C28.4951 22.2042 28.6778 22.2113 28.8992 22.2186C29.3448 22.2333 29.9792 22.2498 30.7531 22.267C32.3024 22.3015 34.4266 22.3393 36.7526 22.3721C39.0725 22.4048 41.2287 22.4441 42.8331 22.481C43.4799 22.4958 44.0348 22.5103 44.4734 22.5236C44.2928 22.6915 44.0735 22.8904 43.8087 23.1259C42.6569 24.1504 40.7481 25.7756 37.6743 28.3625C36.3497 29.4773 34.2887 31.2269 33.0919 32.2524L34.0678 33.3914L33.0918 32.2524C31.8989 33.2745 30.486 34.4761 29.9528 34.9222C28.8518 35.8432 23.4907 40.4264 17.7455 45.3578ZM13.732 48.578C13.7322 48.5777 13.7373 48.5746 13.7467 48.5696C13.7365 48.5757 13.7318 48.5783 13.732 48.578ZM5.19027 27.4691C5.1903 27.4691 5.19155 27.4696 5.1939 27.4705C5.1914 27.4696 5.19023 27.4692 5.19027 27.4691ZM45.1299 21.8663C45.1418 21.8486 45.1452 21.8463 45.1339 21.8612C45.1328 21.8626 45.1315 21.8643 45.1299 21.8663Z" stroke="#212121" stroke-width="3"/>
</svg>
