<svg width="50" height="50" viewBox="0 0 50 50" fill="none" xmlns="http://www.w3.org/2000/svg">
<path d="M32.068 8.44445L31.0645 9.55939V9.55939L32.068 8.44445ZM40.3154 15.8672L39.312 16.9821L40.3154 15.8672ZM45.1118 21.1537L43.7416 21.764V21.764L45.1118 21.1537ZM6.60679 43.3919L7.66745 42.3312H7.66745L6.60679 43.3919ZM43.3919 43.3919L42.3312 42.3312L43.3919 43.3919ZM29.166 44.3327H20.8327V47.3327H29.166V44.3327ZM5.66602 29.166V20.8327H2.66602V29.166H5.66602ZM44.3327 28.2554V29.166H47.3327V28.2554H44.3327ZM31.0645 9.55939L39.312 16.9821L41.3189 14.7522L33.0714 7.3295L31.0645 9.55939ZM47.3327 28.2554C47.3327 24.7325 47.363 22.5213 46.4821 20.5435L43.7416 21.764C44.3024 23.0232 44.3327 24.4675 44.3327 28.2554H47.3327ZM39.312 16.9821C42.1275 19.5161 43.1808 20.5048 43.7416 21.764L46.4821 20.5435C45.6012 18.5656 43.9375 17.1089 41.3189 14.7522L39.312 16.9821ZM20.8947 5.66602C24.1854 5.66602 25.4428 5.68917 26.5645 6.11961L27.6393 3.31875C25.8779 2.64286 23.9582 2.66602 20.8947 2.66602V5.66602ZM33.0714 7.32951C30.8054 5.29013 29.4004 3.99456 27.6393 3.31875L26.5645 6.11961C27.6864 6.55013 28.6311 7.36929 31.0645 9.55939L33.0714 7.32951ZM20.8327 44.3327C16.8619 44.3327 14.0347 44.3295 11.8886 44.041C9.78567 43.7582 8.56269 43.2265 7.66745 42.3312L5.54613 44.4526C7.09167 45.9981 9.05326 46.6867 11.4889 47.0142C13.8813 47.3359 16.9467 47.3327 20.8327 47.3327V44.3327ZM2.66602 29.166C2.66602 33.052 2.66283 36.1174 2.98449 38.5098C3.31195 40.9454 4.00059 42.907 5.54613 44.4526L7.66745 42.3312C6.77222 41.436 6.24047 40.213 5.95774 38.1101C5.6692 35.964 5.66602 33.1368 5.66602 29.166H2.66602ZM29.166 47.3327C33.052 47.3327 36.1174 47.3359 38.5098 47.0142C40.9454 46.6867 42.907 45.9981 44.4526 44.4526L42.3312 42.3312C41.436 43.2265 40.213 43.7582 38.1101 44.041C35.964 44.3295 33.1368 44.3327 29.166 44.3327V47.3327ZM44.3327 29.166C44.3327 33.1368 44.3295 35.964 44.041 38.1101C43.7582 40.213 43.2265 41.436 42.3312 42.3312L44.4526 44.4526C45.9981 42.907 46.6867 40.9454 47.0142 38.5098C47.3359 36.1174 47.3327 33.052 47.3327 29.166H44.3327ZM5.66602 20.8327C5.66602 16.8619 5.6692 14.0347 5.95774 11.8886C6.24047 9.78567 6.77222 8.56269 7.66745 7.66745L5.54613 5.54613C4.00059 7.09167 3.31195 9.05326 2.98449 11.4889C2.66283 13.8813 2.66602 16.9467 2.66602 20.8327H5.66602ZM20.8947 2.66602C16.988 2.66602 13.9076 2.66286 11.5053 2.98437C9.06099 3.3115 7.09284 3.99942 5.54613 5.54613L7.66745 7.66745C8.56152 6.77339 9.78829 6.24092 11.9032 5.95786C14.0602 5.66917 16.9034 5.66602 20.8947 5.66602V2.66602Z" fill="#212121"/>
<path d="M12.5 30.209H29.1667" stroke="#212121" stroke-width="3" stroke-linecap="round"/>
<path d="M12.5 37.5H23.9583" stroke="#212121" stroke-width="3" stroke-linecap="round"/>
<path d="M27.084 5.20898V10.4173C27.084 15.3278 27.084 17.783 28.6095 19.3085C30.135 20.834 32.5902 20.834 37.5006 20.834H45.834" stroke="#212121" stroke-width="3"/>
</svg>
