<svg width="50" height="50" viewBox="0 0 50 50" fill="none" xmlns="http://www.w3.org/2000/svg">
<path d="M32.068 8.44445L31.399 9.18774L32.068 8.44445ZM40.3154 15.8672L39.6465 16.6104L40.3154 15.8672ZM45.1118 21.1537L44.1983 21.5606V21.5606L45.1118 21.1537ZM6.60679 43.3919L7.3139 42.6848H7.3139L6.60679 43.3919ZM43.3919 43.3919L42.6848 42.6848L43.3919 43.3919ZM29.166 44.8327H20.8327V46.8327H29.166V44.8327ZM5.16602 29.166V20.8327H3.16602V29.166H5.16602ZM44.8327 28.2554V29.166H46.8327V28.2554H44.8327ZM31.399 9.18774L39.6465 16.6104L40.9844 15.1239L32.7369 7.70115L31.399 9.18774ZM46.8327 28.2554C46.8327 24.6883 46.8529 22.605 46.0253 20.7469L44.1983 21.5606C44.8125 22.9395 44.8327 24.5116 44.8327 28.2554H46.8327ZM39.6465 16.6104C42.4292 19.1149 43.5842 20.1816 44.1983 21.5606L46.0253 20.7469C45.1978 18.8888 43.6358 17.5101 40.9844 15.1239L39.6465 16.6104ZM20.8947 5.16602C24.1476 5.16602 25.5153 5.18145 26.7436 5.6528L27.4602 3.78556C25.8054 3.15058 23.9961 3.16602 20.8947 3.16602V5.16602ZM32.7369 7.70115C30.4431 5.63665 29.1148 4.42049 27.4602 3.78556L26.7436 5.6528C27.9721 6.1242 28.9935 7.02277 31.399 9.18774L32.7369 7.70115ZM20.8327 44.8327C16.876 44.8327 14.0092 44.8306 11.822 44.5365C9.6636 44.2463 8.31752 43.6884 7.3139 42.6848L5.89969 44.099C7.33684 45.5362 9.17533 46.1987 11.5555 46.5187C13.9069 46.8348 16.9326 46.8327 20.8327 46.8327V44.8327ZM3.16602 29.166C3.16602 33.0661 3.16389 36.0918 3.48003 38.4432C3.80004 40.8234 4.46253 42.6619 5.89969 44.099L7.3139 42.6848C6.31028 41.6812 5.75238 40.3351 5.4622 38.1767C5.16814 35.9895 5.16602 33.1227 5.16602 29.166H3.16602ZM29.166 46.8327C33.0661 46.8327 36.0918 46.8348 38.4432 46.5187C40.8234 46.1987 42.6619 45.5362 44.099 44.099L42.6848 42.6848C41.6812 43.6884 40.3351 44.2463 38.1767 44.5365C35.9895 44.8306 33.1227 44.8327 29.166 44.8327V46.8327ZM44.8327 29.166C44.8327 33.1227 44.8306 35.9895 44.5365 38.1767C44.2463 40.3351 43.6884 41.6812 42.6848 42.6848L44.099 44.099C45.5362 42.6619 46.1987 40.8234 46.5187 38.4432C46.8348 36.0918 46.8327 33.0661 46.8327 29.166H44.8327ZM5.16602 20.8327C5.16602 16.876 5.16814 14.0092 5.4622 11.822C5.75238 9.6636 6.31028 8.31752 7.3139 7.3139L5.89969 5.89969C4.46253 7.33684 3.80004 9.17533 3.48003 11.5555C3.16389 13.9069 3.16602 16.9326 3.16602 20.8327H5.16602ZM20.8947 3.16602C16.9739 3.16602 13.933 3.16391 11.5716 3.47995C9.18221 3.79974 7.33762 4.46175 5.89969 5.89969L7.3139 7.3139C8.31674 6.31106 9.66707 5.75268 11.8369 5.46228C14.0348 5.16812 16.9175 5.16602 20.8947 5.16602V3.16602Z" fill="#D8D8E2"/>
<path d="M27.084 5.20898V10.4173C27.084 15.3278 27.084 17.783 28.6095 19.3085C30.135 20.834 32.5902 20.834 37.5006 20.834H45.834" stroke="#D8D8E2" stroke-width="2"/>
<path d="M17.7077 28.1243L17.7077 38.541M17.7077 38.541L21.8743 34.6348M17.7077 38.541L13.541 34.6348" stroke="#D8D8E2" stroke-width="2" stroke-linecap="round" stroke-linejoin="round"/>
</svg>
