<svg width="60" height="60" viewBox="0 0 60 60" fill="none" xmlns="http://www.w3.org/2000/svg">
<circle cx="30" cy="30" r="30" fill="#5051F2"/>
<circle cx="30" cy="30" r="29" stroke="white" stroke-opacity="0.32" stroke-width="2"/>
<path d="M37.7817 28.4241C39.0005 29.8797 38.7471 31.66 38.7471 33.2312C38.7471 37.5581 32.9738 38.7697 29.9997 38.7697C27.0256 38.7697 21.2523 37.5581 21.2523 33.2312C21.2523 31.66 20.9989 29.8797 22.2177 28.4241M37.7817 28.4241C37.5684 28.1694 37.3102 27.9247 36.9976 27.6928M37.7817 28.4241C38.5489 28.8707 38.745 27.1995 38.7471 26.6543V24.5775C38.7471 22.7775 37.5225 22.1544 36.4728 22.1544C35.4231 22.1544 33.3237 23.8851 32.6239 23.8851C31.7842 23.8851 31.6224 23.7121 29.9997 23.7121C28.377 23.7121 28.2153 23.8851 27.3755 23.8851C26.6757 23.8851 24.5763 22.1543 23.5266 22.1543C22.477 22.1543 21.2523 22.7774 21.2523 24.5774V26.6543C21.2545 27.1995 21.4505 28.8707 22.2177 28.4241M22.2177 28.4241C22.431 28.1694 22.6893 27.9247 23.0018 27.6928" stroke="white" stroke-width="1.5" stroke-linecap="round"/>
<path d="M30.9243 34.3851C30.9243 34.5125 30.511 34.6158 30.0012 34.6158C29.4914 34.6158 29.0781 34.5125 29.0781 34.3851C29.0781 34.2576 29.4914 34.1543 30.0012 34.1543C30.511 34.1543 30.9243 34.2576 30.9243 34.3851Z" stroke="white" stroke-width="1.5"/>
<path d="M33.6926 31.845C33.6926 32.3548 33.486 32.768 33.2311 32.768C32.9762 32.768 32.7696 32.3548 32.7696 31.845C32.7696 31.3352 32.9762 30.9219 33.2311 30.9219C33.486 30.9219 33.6926 31.3352 33.6926 31.845Z" stroke="white" stroke-width="1.5"/>
<path d="M27.2317 31.845C27.2317 32.3548 27.0251 32.768 26.7702 32.768C26.5153 32.768 26.3086 32.3548 26.3086 31.845C26.3086 31.3352 26.5153 30.9219 26.7702 30.9219C27.0251 30.9219 27.2317 31.3352 27.2317 31.845Z" stroke="white" stroke-width="1.5"/>
<path d="M41.0751 33.6926C40.5476 33.4289 38.2619 32.7695 37.3828 32.7695" stroke="white" stroke-width="1.5" stroke-linecap="round"/>
<path d="M39.2302 36.4621C38.6763 36.1984 37.384 35.5391 36.4609 35.5391" stroke="white" stroke-width="1.5" stroke-linecap="round"/>
<path d="M18.9219 33.6926C19.4493 33.4289 21.7351 32.7695 22.6142 32.7695" stroke="white" stroke-width="1.5" stroke-linecap="round"/>
<path d="M20.7695 36.4621C21.3234 36.1984 22.6157 35.5391 23.5388 35.5391" stroke="white" stroke-width="1.5" stroke-linecap="round"/>
</svg>
