<svg width="60" height="60" viewBox="0 0 60 60" fill="none" xmlns="http://www.w3.org/2000/svg">
<circle cx="30" cy="30" r="30" fill="#44F268"/>
<circle cx="30" cy="30" r="29" stroke="white" stroke-opacity="0.32" stroke-width="2"/>
<path d="M21 28.4167C21 25.2191 21 23.6203 21.3775 23.0824C21.755 22.5445 23.2583 22.03 26.2649 21.0008L26.8377 20.8047C28.405 20.2682 29.1886 20 30 20C30.8114 20 31.595 20.2682 33.1623 20.8047L33.7351 21.0008C36.7417 22.03 38.245 22.5445 38.6225 23.0824C39 23.6203 39 25.2191 39 28.4167C39 28.8996 39 29.4234 39 29.9914C39 35.6294 34.761 38.3655 32.1014 39.5273C31.38 39.8424 31.0193 40 30 40C28.9807 40 28.62 39.8424 27.8986 39.5273C25.239 38.3655 21 35.6294 21 29.9914C21 29.4234 21 28.8996 21 28.4167Z" stroke="white" stroke-width="1.5"/>
<ellipse cx="30" cy="27" rx="2" ry="2" stroke="white" stroke-width="1.5"/>
<path d="M34 33C34 34.1046 34 35 30 35C26 35 26 34.1046 26 33C26 31.8954 27.7909 31 30 31C32.2091 31 34 31.8954 34 33Z" stroke="white" stroke-width="1.5"/>
</svg>
