<svg width="60" height="60" viewBox="0 0 60 60" fill="none" xmlns="http://www.w3.org/2000/svg">
<circle cx="30" cy="30" r="30" fill="#F5D549"/>
<circle cx="30" cy="30" r="29" stroke="white" stroke-opacity="0.32" stroke-width="2"/>
<path d="M37.8706 30.3884L37.1249 30.3082V30.3082L37.8706 30.3884ZM37.6872 32.0931L38.4329 32.1733V32.1733L37.6872 32.0931ZM22.3128 32.0931L21.5671 32.1733L22.3128 32.0931ZM22.1294 30.3884L22.8751 30.3082L22.1294 30.3884ZM26.7601 28.934L27.4151 29.2993L26.7601 28.934ZM28.5495 25.7254L27.8945 25.3601L28.5495 25.7254ZM31.4505 25.7254L30.7954 26.0907L31.4505 25.7254ZM33.2399 28.934L33.895 28.5686V28.5686L33.2399 28.934ZM34.0038 29.9592L33.7015 30.6456L33.7015 30.6456L34.0038 29.9592ZM35.4705 29.2451L34.9412 28.7138L35.4705 29.2451ZM34.4533 30.0219L34.3506 29.2789L34.3506 29.2789L34.4533 30.0219ZM24.5295 29.2451L24.0002 29.7765L24.5295 29.2451ZM25.5467 30.0219L25.6494 29.2789L25.6494 29.2789L25.5467 30.0219ZM25.9962 29.9592L26.2985 30.6456L26.2985 30.6456L25.9962 29.9592ZM23.7121 38.1532L24.2123 37.5943H24.2123L23.7121 38.1532ZM36.2879 38.1532L35.7877 37.5943L36.2879 38.1532ZM36.8645 27.9801L37.432 27.4898L36.8645 27.9801ZM30.9077 24.7826L30.5668 24.1146L30.9077 24.7826ZM29.0923 24.7827L29.4332 24.1146L29.0923 24.7827ZM37.1249 30.3082L36.9415 32.0129L38.4329 32.1733L38.6163 30.4686L37.1249 30.3082ZM31.0879 38.25H28.9121V39.75H31.0879V38.25ZM23.0585 32.0129L22.8751 30.3082L21.3837 30.4686L21.5671 32.1733L23.0585 32.0129ZM27.4151 29.2993L29.2046 26.0907L27.8945 25.3601L26.105 28.5686L27.4151 29.2993ZM30.7954 26.0907L32.5849 29.2993L33.895 28.5686L32.1055 25.3601L30.7954 26.0907ZM32.5849 29.2993C32.7467 29.5893 32.8956 29.8582 33.0399 30.0638C33.1885 30.2753 33.3911 30.5089 33.7015 30.6456L34.306 29.2728C34.3619 29.2973 34.3524 29.3226 34.2675 29.2018C34.1784 29.0749 34.0727 28.8873 33.895 28.5686L32.5849 29.2993ZM34.9412 28.7138C34.6825 28.9715 34.529 29.1231 34.4082 29.2208C34.2931 29.3139 34.2906 29.2872 34.3506 29.2789L34.556 30.7648C34.8918 30.7184 35.1507 30.5495 35.3517 30.3869C35.547 30.2289 35.7642 30.0112 35.9998 29.7765L34.9412 28.7138ZM33.7015 30.6456C33.9698 30.7637 34.2657 30.8049 34.556 30.7648L34.3506 29.2789C34.3353 29.281 34.3199 29.2789 34.306 29.2728L33.7015 30.6456ZM24.0002 29.7765C24.2358 30.0112 24.453 30.2289 24.6483 30.3869C24.8493 30.5495 25.1082 30.7184 25.444 30.7648L25.6494 29.2789C25.7094 29.2872 25.7069 29.3139 25.5918 29.2208C25.471 29.1231 25.3175 28.9715 25.0588 28.7138L24.0002 29.7765ZM26.105 28.5686C25.9273 28.8873 25.8216 29.0749 25.7325 29.2018C25.6476 29.3226 25.6381 29.2973 25.694 29.2728L26.2985 30.6456C26.6089 30.5089 26.8115 30.2753 26.9601 30.0638C27.1044 29.8583 27.2533 29.5893 27.4151 29.2993L26.105 28.5686ZM25.444 30.7648C25.7343 30.8049 26.0302 30.7637 26.2985 30.6456L25.694 29.2728C25.6801 29.2789 25.6647 29.281 25.6494 29.2789L25.444 30.7648ZM28.9121 38.25C27.4742 38.25 26.4672 38.2486 25.6986 38.1502C24.9509 38.0545 24.5285 37.8774 24.2123 37.5943L23.2119 38.712C23.8417 39.2758 24.6014 39.522 25.5082 39.6381C26.3941 39.7514 27.514 39.75 28.9121 39.75V38.25ZM21.5671 32.1733C21.7153 33.5507 21.8328 34.8999 22.0332 35.994C22.1343 36.5459 22.2618 37.0659 22.4383 37.5172C22.6134 37.9648 22.8549 38.3925 23.2119 38.712L24.2123 37.5943C24.0962 37.4904 23.964 37.3 23.8353 36.9708C23.708 36.6454 23.6014 36.2299 23.5087 35.7238C23.3215 34.7018 23.2125 33.4443 23.0585 32.0129L21.5671 32.1733ZM36.9415 32.0129C36.7875 33.4443 36.6785 34.7018 36.4913 35.7238C36.3986 36.2299 36.292 36.6454 36.1647 36.9708C36.036 37.3 35.9038 37.4904 35.7877 37.5943L36.7881 38.712C37.1451 38.3925 37.3866 37.9648 37.5617 37.5172C37.7382 37.0659 37.8657 36.5459 37.9668 35.994C38.1672 34.8999 38.2847 33.5507 38.4329 32.1733L36.9415 32.0129ZM31.0879 39.75C32.486 39.75 33.6059 39.7514 34.4918 39.6381C35.3986 39.522 36.1583 39.2758 36.7881 38.712L35.7877 37.5943C35.4715 37.8774 35.0491 38.0545 34.3014 38.1502C33.5328 38.2486 32.5258 38.25 31.0879 38.25V39.75ZM28.75 23C28.75 22.3096 29.3096 21.75 30 21.75V20.25C28.4812 20.25 27.25 21.4812 27.25 23H28.75ZM30 21.75C30.6904 21.75 31.25 22.3096 31.25 23H32.75C32.75 21.4812 31.5188 20.25 30 20.25V21.75ZM38.75 27C38.75 27.4142 38.4142 27.75 38 27.75V29.25C39.2426 29.25 40.25 28.2426 40.25 27H38.75ZM37.25 27C37.25 26.5858 37.5858 26.25 38 26.25V24.75C36.7574 24.75 35.75 25.7574 35.75 27H37.25ZM38 26.25C38.4142 26.25 38.75 26.5858 38.75 27H40.25C40.25 25.7574 39.2426 24.75 38 24.75V26.25ZM22 27.75C21.5858 27.75 21.25 27.4142 21.25 27H19.75C19.75 28.2426 20.7574 29.25 22 29.25V27.75ZM21.25 27C21.25 26.5858 21.5858 26.25 22 26.25V24.75C20.7574 24.75 19.75 25.7574 19.75 27H21.25ZM22 26.25C22.4142 26.25 22.75 26.5858 22.75 27H24.25C24.25 25.7574 23.2426 24.75 22 24.75V26.25ZM38 27.75C37.997 27.75 37.994 27.75 37.991 27.7499L37.9736 29.2498C37.9824 29.2499 37.9912 29.25 38 29.25V27.75ZM38.6163 30.4686C38.6646 30.0187 38.707 29.6258 38.7302 29.298C38.753 28.9769 38.7616 28.6689 38.7256 28.4003L37.2389 28.5995C37.2536 28.7093 37.2553 28.8908 37.234 29.192C37.2131 29.4865 37.1743 29.8486 37.1249 30.3082L38.6163 30.4686ZM37.991 27.7499C37.7681 27.7474 37.5689 27.6483 37.432 27.4898L36.2969 28.4704C36.703 28.9405 37.3032 29.2421 37.9736 29.2498L37.991 27.7499ZM37.432 27.4898C37.3181 27.358 37.25 27.1879 37.25 27H35.75C35.75 27.5614 35.9566 28.0765 36.2969 28.4704L37.432 27.4898ZM35.9998 29.7765C36.6773 29.1017 37.0262 28.7616 37.2584 28.6183L36.4705 27.3419C36.0506 27.6011 35.547 28.1103 34.9412 28.7138L35.9998 29.7765ZM22.75 27C22.75 27.1879 22.6819 27.358 22.568 27.4898L23.7031 28.4704C24.0434 28.0765 24.25 27.5614 24.25 27H22.75ZM25.0588 28.7138C24.453 28.1103 23.9494 27.6011 23.5295 27.3419L22.7416 28.6183C22.9738 28.7616 23.3227 29.1017 24.0002 29.7765L25.0588 28.7138ZM22.568 27.4898C22.4311 27.6483 22.2319 27.7474 22.009 27.7499L22.0264 29.2498C22.6968 29.2421 23.297 28.9405 23.7031 28.4704L22.568 27.4898ZM22.009 27.7499C22.006 27.75 22.003 27.75 22 27.75V29.25C22.0088 29.25 22.0176 29.2499 22.0264 29.2498L22.009 27.7499ZM22.8751 30.3082C22.8257 29.8486 22.7869 29.4865 22.766 29.192C22.7447 28.8908 22.7464 28.7093 22.7611 28.5995L21.2744 28.4003C21.2384 28.6689 21.247 28.9769 21.2698 29.298C21.293 29.6258 21.3354 30.0187 21.3837 30.4686L22.8751 30.3082ZM31.25 23C31.25 23.485 30.9739 23.9069 30.5668 24.1146L31.2485 25.4507C32.1381 24.9969 32.75 24.0705 32.75 23H31.25ZM30.5668 24.1146C30.3975 24.2009 30.2056 24.25 30 24.25V25.75C30.448 25.75 30.873 25.6423 31.2485 25.4507L30.5668 24.1146ZM32.1055 25.3601C31.8992 24.9902 31.7138 24.6575 31.5437 24.3852L30.2716 25.1801C30.4176 25.4137 30.5828 25.7095 30.7954 26.0907L32.1055 25.3601ZM30 24.25C29.7944 24.25 29.6025 24.2009 29.4332 24.1146L28.7515 25.4507C29.127 25.6423 29.552 25.75 30 25.75V24.25ZM29.4332 24.1146C29.0261 23.9069 28.75 23.485 28.75 23H27.25C27.25 24.0705 27.8619 24.9969 28.7515 25.4507L29.4332 24.1146ZM29.2046 26.0907C29.4172 25.7095 29.5824 25.4137 29.7284 25.1801L28.4563 24.3852C28.2862 24.6575 28.1008 24.9902 27.8945 25.3601L29.2046 26.0907Z" fill="white"/>
<path d="M23 35.5H37" stroke="white" stroke-width="1.5" stroke-linecap="round"/>
</svg>
