<svg width="60" height="60" viewBox="0 0 60 60" fill="none" xmlns="http://www.w3.org/2000/svg">
<circle cx="30" cy="30" r="30" fill="#212121"/>
<circle cx="30" cy="30" r="29" stroke="white" stroke-opacity="0.32" stroke-width="2"/>
<path d="M39 34.5762C39 36.5092 37.433 38.0762 35.5 38.0762C33.567 38.0762 32 36.5092 32 34.5762C32 32.6432 33.567 31.0762 35.5 31.0762C37.433 31.0762 39 32.6432 39 34.5762Z" stroke="white" stroke-width="1.5"/>
<path d="M20 28.0781H40" stroke="white" stroke-width="1.5" stroke-linecap="round"/>
<path d="M22 28.0762L22.6138 25.621C23.1595 23.4383 23.4323 22.3469 24.2461 21.7116C25.0599 21.0762 26.1848 21.0762 28.4347 21.0762H31.5653C33.8152 21.0762 34.9401 21.0762 35.7539 21.7116C36.5677 22.3469 36.8405 23.4383 37.3862 25.621L38 28.0762" stroke="white" stroke-width="1.5" stroke-linecap="round"/>
<path d="M28 34.5762C28 36.5092 26.433 38.0762 24.5 38.0762C22.567 38.0762 21 36.5092 21 34.5762C21 32.6432 22.567 31.0762 24.5 31.0762C26.433 31.0762 28 32.6432 28 34.5762Z" stroke="white" stroke-width="1.5"/>
<path d="M28 34.5775L28.6584 34.2484C29.5029 33.8261 30.4971 33.8261 31.3416 34.2484L32 34.5775" stroke="white" stroke-width="1.5" stroke-linecap="round"/>
</svg>
