<svg width="60" height="60" viewBox="0 0 60 60" fill="none" xmlns="http://www.w3.org/2000/svg">
<circle cx="30" cy="30" r="30" fill="#CA5CF2"/>
<circle cx="30" cy="30" r="29" stroke="white" stroke-opacity="0.32" stroke-width="2"/>
<path fill-rule="evenodd" clip-rule="evenodd" d="M29.6316 18.021C26.7378 18.1905 23.884 19.3669 21.9054 21.2061C21.4645 21.6159 21.0904 22.041 20.7463 22.5232C20.3956 23.0147 20.2844 23.2523 20.3128 23.4496C20.3433 23.6611 20.4788 23.8566 20.663 23.9547C20.7485 24.0003 20.7824 24.0065 20.9448 24.0066C21.0986 24.0067 21.1447 23.9992 21.2206 23.9617C21.3503 23.8977 21.4429 23.7987 21.5753 23.5826C22.0682 22.7775 22.942 21.9091 23.9376 21.2347C25.61 20.102 27.5495 19.4449 29.6414 19.3024C30.0552 19.2743 31.0293 19.291 31.4293 19.3332C33.8334 19.5867 36.0084 20.532 38.0633 22.2166C38.4401 22.5255 38.4533 22.5348 38.5593 22.5663C38.7008 22.6084 38.8531 22.6021 38.9827 22.5486C39.1406 22.4836 39.2353 22.4004 39.3113 22.2601C39.3728 22.1464 39.3776 22.1247 39.3776 21.9622C39.3776 21.6886 39.3254 21.6055 38.9598 21.297C38.5666 20.9651 37.9261 20.4899 37.5023 20.2155C37.08 19.9421 36.9869 19.8848 36.6958 19.7195C34.4788 18.4605 32.0594 17.8788 29.6316 18.021ZM29.4454 20.9879C27.4948 21.1735 25.6975 21.9231 24.0542 23.2362C22.7777 24.2563 21.8419 25.5489 21.2728 27.0782C20.8665 28.1702 20.6695 29.3537 20.6692 30.7047C20.669 32.294 20.9271 33.8308 21.5047 35.6795C21.6961 36.2921 22.0765 37.2987 22.2672 37.6973C22.4122 38.0002 22.5773 38.1133 22.8744 38.1133C23.2264 38.1133 23.5014 37.83 23.498 37.4708C23.497 37.3582 23.4802 37.3045 23.346 36.984C22.5855 35.1676 22.1527 33.5192 21.9811 31.7853C21.934 31.3089 21.9342 30.1531 21.9814 29.7116C22.1932 27.7332 22.8892 26.1804 24.1405 24.8947C25.3329 23.6696 26.8848 22.7966 28.5337 22.4234C29.4192 22.223 30.4012 22.1811 31.354 22.3031C34.1378 22.6597 36.7837 24.4189 38.0308 26.7423C38.762 28.1046 39.0288 29.4272 38.8026 30.5684C38.6875 31.1493 38.4131 31.6909 38.0472 32.0596C37.7778 32.3311 37.5244 32.4931 37.201 32.6006C36.7577 32.748 36.2891 32.7203 35.8192 32.5187C35.4876 32.3766 35.1084 32.1007 34.8235 31.7945C34.5012 31.4482 34.3467 31.1577 33.9745 30.1984C33.6524 29.3683 33.4268 28.8853 33.1701 28.4763C32.7175 27.7554 32.1759 27.2865 31.4741 27.0078C31.0185 26.8269 30.3345 26.7344 29.7797 26.7785C28.9838 26.8418 28.3533 27.0806 27.8146 27.5229C27.1315 28.0837 26.691 28.9105 26.5291 29.9356C26.4786 30.2552 26.4789 31.019 26.5297 31.3472C26.6657 32.2274 27.1029 33.3837 27.6304 34.2583C28.7858 36.1742 30.5951 37.662 33.0384 38.7054C33.4712 38.8902 34.0239 39.0985 34.158 39.1273C34.4413 39.1881 34.7553 39.0081 34.8661 38.7214C34.9099 38.6079 34.908 38.3927 34.862 38.2716C34.7786 38.0515 34.6807 37.9768 34.2733 37.8221C32.6355 37.2003 31.4458 36.514 30.3773 35.5746C30.131 35.3581 29.6408 34.858 29.4781 34.6573C28.7793 33.7953 28.3412 33.014 28.0273 32.0697C27.823 31.4551 27.7663 31.1467 27.7661 30.6487C27.7658 29.806 27.9908 29.1591 28.4519 28.6765C28.8907 28.2173 29.4409 28.0218 30.2049 28.0537C30.8733 28.0815 31.3079 28.2593 31.7136 28.6708C32.0638 29.0261 32.3436 29.5467 32.7897 30.6735C33.1747 31.6457 33.3264 31.9527 33.612 32.3378C33.7826 32.5679 34.1761 32.9676 34.4124 33.1509C35.2288 33.7844 36.1263 34.0546 37.023 33.9368C38.5417 33.7374 39.7092 32.5238 40.0576 30.7825C40.1909 30.1163 40.1869 29.342 40.0463 28.5823C39.8578 27.5641 39.3454 26.3357 38.7259 25.4167C38.4967 25.0766 38.0884 24.5657 37.8324 24.2987C37.7503 24.2131 37.6533 24.1108 37.617 24.0714C37.5806 24.0321 37.4562 23.9118 37.3406 23.8042C35.6687 22.2474 33.5572 21.2665 31.3177 21.0062C30.9578 20.9643 29.8104 20.9531 29.4454 20.9879ZM29.7191 23.913C28.0143 24.025 26.4369 24.7892 25.387 26.0115C24.7651 26.7356 24.3556 27.4774 24.0154 28.4957C23.7402 29.3196 23.6194 30.0625 23.6198 30.9286C23.6201 31.7506 23.7065 32.3866 23.9212 33.1483C24.3912 34.8153 25.3727 36.466 26.8505 38.0744C27.4281 38.703 28.6206 39.8145 28.9709 40.0507C29.0803 40.1245 29.2767 40.1688 29.4072 40.1492C29.7137 40.1032 29.9428 39.838 29.9425 39.5296C29.9422 39.2594 29.8771 39.1525 29.5428 38.8741C28.9181 38.3536 28.0927 37.5589 27.5999 37.0035C26.2147 35.4421 25.3866 33.965 25.0439 32.4441C24.7386 31.0889 24.8583 29.7485 25.4037 28.4168C25.7983 27.4534 26.3554 26.7037 27.0758 26.167C27.9532 25.5132 29.004 25.1847 30.2173 25.1847C30.79 25.1847 31.2131 25.2345 31.7154 25.3612C33.2126 25.7387 34.4 26.561 35.0793 27.6907C35.5175 28.4194 35.8626 29.4004 35.9684 30.2179C35.9989 30.454 36.0463 30.573 36.1529 30.6814C36.2872 30.8178 36.4249 30.8773 36.6063 30.8773C36.8597 30.8773 37.0696 30.7493 37.1827 30.5257C37.2357 30.4209 37.2398 30.3975 37.2383 30.2082C37.2349 29.7829 37.0336 28.9473 36.7738 28.2796C36.565 27.7429 36.2816 27.1827 36.0159 26.7813C34.8465 25.0146 32.5463 23.8802 30.1796 23.9031C29.9798 23.905 29.7725 23.9095 29.7191 23.913ZM29.9295 29.7677C29.666 29.854 29.4762 30.1074 29.4762 30.3725C29.4762 30.5257 29.6629 31.1453 29.8785 31.7074C30.5447 33.4448 31.751 34.8077 33.5043 35.8038C34.6336 36.4455 36.0418 36.9598 37.6091 37.303C38.218 37.4363 38.3444 37.4557 38.4622 37.4339C38.6739 37.3947 38.8377 37.2737 38.9316 37.0873C38.9812 36.9888 38.9885 36.9531 38.9885 36.8088C38.9886 36.6165 38.9507 36.513 38.8324 36.3818C38.7105 36.2466 38.6236 36.2087 38.2691 36.136C35.9278 35.6562 34.1824 34.9139 32.9457 33.872C32.7118 33.6749 32.2761 33.2383 32.1003 33.0246C31.5462 32.3514 31.1442 31.5733 30.8463 30.5976C30.7048 30.1343 30.6724 30.0525 30.5935 29.9602C30.5578 29.9184 30.4737 29.8549 30.4067 29.8191C30.3084 29.7666 30.2583 29.7528 30.1477 29.7476C30.0667 29.7438 29.9774 29.752 29.9295 29.7677Z" fill="white" stroke="white" stroke-width="0.2"/>
</svg>
