<svg width="40" height="40" viewBox="0 0 40 40" fill="none" xmlns="http://www.w3.org/2000/svg">
<path d="M20.0002 13.3334V20.0001M20.0002 26.6667H20.0169M17.6924 4.8196L3.9843 28.4973C3.22395 29.8106 2.84378 30.4673 2.89997 31.0062C2.94898 31.4763 3.19527 31.9035 3.57753 32.1814C4.01579 32.5001 4.77456 32.5001 6.2921 32.5001H33.7084C35.2259 32.5001 35.9847 32.5001 36.423 32.1814C36.8052 31.9035 37.0515 31.4763 37.1005 31.0062C37.1567 30.4673 36.7765 29.8106 36.0162 28.4973L22.308 4.81959C21.5504 3.51099 21.1716 2.85669 20.6774 2.63693C20.2463 2.44524 19.7542 2.44524 19.3231 2.63693C18.8289 2.85669 18.4501 3.51099 17.6924 4.8196Z" stroke="#212121" stroke-width="4" stroke-linecap="round" stroke-linejoin="round"/>
</svg>
