<svg xmlns="http://www.w3.org/2000/svg" width="22" height="22" viewBox="0 0 22 22" fill="none">
  <path d="M11 20C15.9706 20 20 15.9706 20 11C20 6.02944 15.9706 2 11 2C6.02944 2 2 6.02944 2 11C2 15.9706 6.02944 20 11 20Z" stroke="#212121" stroke-width="2.5" stroke-linecap="round" stroke-linejoin="round"/>
  <path d="M3.00005 8H19.0001M3 14H19.0001M9.92186 19C8.61151 16.5431 7.92187 13.7962 7.92187 11C7.92187 8.20377 8.61151 5.45687 9.92186 3M12.0775 19C13.3878 16.5431 14.0775 13.7962 14.0775 11C14.0775 8.20377 13.3878 5.45687 12.0775 3" stroke="#212121" stroke-width="2" stroke-linecap="round" stroke-linejoin="round"/>
</svg>