<svg width="80" height="80" viewBox="0 0 80 80" fill="none" xmlns="http://www.w3.org/2000/svg">
<rect width="80" height="80" rx="40" fill="#EDEDF3"/>
<path d="M40.0013 35.6673C44.7878 35.6673 48.668 31.7871 48.668 27.0007C48.668 22.2142 44.7878 18.334 40.0013 18.334C35.2148 18.334 31.3346 22.2142 31.3346 27.0007C31.3346 31.7871 35.2148 35.6673 40.0013 35.6673Z" fill="white"/>
<path d="M40.0013 61.6673C22.668 61.6673 22.668 57.3021 22.668 51.9173C22.668 46.5325 30.4284 42.1673 40.0013 42.1673C45.1351 42.1673 49.7477 43.4228 52.9215 45.4176C47.5735 45.4605 43.2513 49.8092 43.2513 55.1673C43.2513 57.5755 44.1244 59.7798 45.5713 61.4809C43.9487 61.6032 42.1023 61.6673 40.0013 61.6673Z" fill="white"/>
<path d="M57.2227 50.9434L48.7727 59.3932" stroke="white" stroke-width="1.5" stroke-linecap="round"/>
<circle cx="53" cy="55.168" r="6.5" stroke="white" stroke-width="1.5"/>
</svg>
