<svg width="24" height="24" viewBox="0 0 24 24" fill="none" xmlns="http://www.w3.org/2000/svg">
<path d="M12 21C16.9706 21 21 16.9706 21 12C21 7.02944 16.9706 3 12 3C7.02944 3 3 7.02944 3 12C3 16.9706 7.02944 21 12 21Z" stroke="#212121" stroke-width="2" stroke-linecap="round" stroke-linejoin="round"/>
<path d="M4.00005 9H20.0001M4 15H20.0001M10.9219 20C9.61151 17.5431 8.92187 14.7962 8.92187 12C8.92187 9.20377 9.61151 6.45687 10.9219 4M13.0775 20C14.3878 17.5431 15.0775 14.7962 15.0775 12C15.0775 9.20377 14.3878 6.45687 13.0775 4" stroke="#212121" stroke-width="2" stroke-linecap="round" stroke-linejoin="round"/>
</svg>
