<svg width="32" height="32" viewBox="0 0 32 32" fill="none" xmlns="http://www.w3.org/2000/svg">
    <rect width="32" height="32" rx="16" fill="#EDEDF3"/>
    <path fill-rule="evenodd" clip-rule="evenodd" d="M15.767 6.98666L15.6282 7.13935L13.8237 9.54152L12.0192 11.9437L11.4064 12.758L10.8834 13.453C10.8238 13.5323 10.7724 13.6175 10.7302 13.7073L10.7194 13.7304C10.6862 13.8009 10.6883 13.8829 10.725 13.9516C10.7634 14.0235 10.8176 14.0857 10.8835 14.1336L13.2687 15.8645L15.6414 17.5864C15.7163 17.6408 15.7961 17.688 15.8798 17.7275L15.8947 17.7345C15.965 17.7677 16.0463 17.7682 16.117 17.7357C16.191 17.7016 16.2616 17.6604 16.3276 17.6126L18.7228 15.8779L21.1251 14.1381C21.1861 14.094 21.2379 14.0385 21.2777 13.9747L21.2831 13.9662C21.3183 13.9099 21.3294 13.8419 21.314 13.7774C21.298 13.7109 21.2686 13.6483 21.2275 13.5937L20.4087 12.5047L19.5277 11.333L17.8771 9.13437L16.274 6.99891C16.2425 6.95698 16.2059 6.91911 16.1651 6.88618C16.1253 6.85405 16.0759 6.83622 16.0248 6.83555L16.0047 6.83529C15.9418 6.83446 15.8815 6.86065 15.8392 6.90722L15.767 6.98666ZM18.3168 10.7005L20.5913 13.7322V13.7575V13.7828L18.299 15.4413L16.0066 17.0999L13.7135 15.4402L11.4203 13.7805L11.4315 13.7453L11.4427 13.7101L13.7149 10.6798L15.9696 7.67283C15.9801 7.65893 15.9983 7.65337 16.0147 7.65907C16.0326 7.66531 16.0483 7.67675 16.0597 7.69193L18.3168 10.7005ZM10.3847 16.8117C10.3294 16.8336 10.2826 16.8726 10.2511 16.9231L10.2338 16.9507L10.2321 16.9533C10.1913 17.0186 10.1805 17.0982 10.2024 17.172C10.2251 17.2488 10.2606 17.3214 10.3071 17.3866L13.0323 21.2028L15.7707 25.0376C15.8076 25.0892 15.8613 25.1263 15.9226 25.1424C15.9843 25.1586 16.0495 25.1548 16.1088 25.1317L16.1107 25.131C16.1716 25.1072 16.2244 25.0664 16.2627 25.0135L19.0191 21.2063L21.7712 17.4051C21.8121 17.3485 21.8343 17.2804 21.8344 17.2106C21.8346 17.1411 21.8103 17.073 21.7666 17.0189L21.7614 17.0124C21.7207 16.962 21.6645 16.9265 21.6015 16.9115C21.5393 16.8965 21.4736 16.9066 21.4187 16.9395L21.3836 16.9606L21.2628 17.033L18.6342 19.1218L16.0055 21.2106L13.3385 19.0404L10.7575 16.9401C10.7004 16.8937 10.6376 16.8547 10.5707 16.8241L10.5532 16.8161C10.5 16.7917 10.4391 16.7901 10.3847 16.8117ZM14.0431 20.391L15.8076 21.8257C15.8705 21.8769 15.9525 21.8985 16.0325 21.8849C16.1151 21.8708 16.1928 21.8362 16.2583 21.784L17.994 20.405L19.8296 18.9466L19.9061 18.8887L19.9826 18.8308L19.9496 18.8887L19.9167 18.9466L17.9779 21.6236L16.039 24.3006H16.0068H15.9745L14.0284 21.5747L12.0823 18.8487V18.8214V18.7942L12.1309 18.8349L12.1795 18.8757L14.0431 20.391Z" fill="#212121" stroke="#212121" stroke-linejoin="round"/>
</svg>
