<svg width="34" height="34" viewBox="0 0 34 34" fill="none" xmlns="http://www.w3.org/2000/svg">
    <rect x="0.5" y="0.5" width="33" height="33" rx="16.5" stroke="#F7F7FB"/>
    <g clip-path="url(#clip0_12187_5308)">
        <path d="M22.424 8.92L18.6681 14.5C18.4084 14.88 18.9079 15.34 19.2675 15.02L22.9634 11.8C23.0633 11.72 23.2031 11.78 23.2031 11.92V21.98C23.2031 22.12 23.0233 22.18 22.9434 22.08L11.7558 8.68C11.3962 8.24 10.8768 8 10.2974 8H9.89789C8.85905 8 8 8.86 8 9.92V24.08C8 25.14 8.85905 26 9.91787 26C10.5771 26 11.1964 25.66 11.556 25.08L15.3119 19.5C15.5716 19.12 15.0721 18.66 14.7125 18.98L11.0166 22.18C10.9168 22.26 10.7769 22.2 10.7769 22.06V12.02C10.7769 11.88 10.9567 11.82 11.0366 11.92L22.2242 25.32C22.5838 25.76 23.1232 26 23.6826 26H24.0821C25.141 26 26 25.14 26 24.08V9.92C26 8.86 25.141 8 24.0821 8C23.4029 8 22.7836 8.34 22.424 8.92Z" fill="black"/>
    </g>
    <defs>
        <clipPath id="clip0_12187_5308">
            <rect width="18" height="18" fill="white" transform="translate(8 8)"/>
        </clipPath>
    </defs>
</svg>
