<svg width="32" height="32" viewBox="0 0 32 32" fill="none" xmlns="http://www.w3.org/2000/svg">
    <rect x="0.5" y="0.5" width="31" height="31" rx="15.5" fill="white" stroke="#EDEDF3"/>
    <g clip-path="url(#clip0_9084_1455)">
        <path d="M16.0001 22.9662C18.3301 22.9662 20.2189 24.093 20.2189 25.4831C20.2189 26.8731 18.3301 28 16.0001 28C13.6701 28 11.7812 26.8731 11.7812 25.4831C11.7812 24.093 13.6701 22.9662 16.0001 22.9662Z" fill="#E6007A"/>
        <path d="M16.0001 4.00134C18.3301 4.00134 20.2189 5.12819 20.2189 6.51824C20.2189 7.9083 18.3301 9.03516 16.0001 9.03516C13.6701 9.03516 11.7812 7.9083 11.7812 6.51824C11.7812 5.12819 13.6701 4.00134 16.0001 4.00134Z" fill="#E6007A"/>
        <path d="M10.1198 19.483C11.2848 21.5528 11.2773 23.7945 10.103 24.49C8.92863 25.1855 7.03223 24.0714 5.86723 22.0016C4.70223 19.9318 4.70979 17.6901 5.88412 16.9946C7.05845 16.2991 8.95485 17.4132 10.1198 19.483Z" fill="#E6007A"/>
        <path d="M26.1287 10.0003C27.2937 12.0701 27.2868 14.3114 26.1132 15.0065C24.9397 15.7015 23.0439 14.587 21.8789 12.5172C20.7139 10.4474 20.7209 8.2061 21.8944 7.51108C23.0679 6.81605 24.9637 7.93052 26.1287 10.0003Z" fill="#E6007A"/>
        <path d="M10.103 7.51197C11.2773 8.20746 11.2848 10.4492 10.1198 12.519C8.95485 14.5888 7.05845 15.7028 5.88412 15.0074C4.70979 14.3119 4.70223 12.0701 5.86723 10.0004C7.03223 7.93056 8.92863 6.81647 10.103 7.51197Z" fill="#E6007A"/>
        <path d="M26.1152 16.9935C27.2887 17.6886 27.2956 19.9299 26.1306 21.9997C24.9656 24.0695 23.0699 25.1839 21.8964 24.4889C20.7228 23.7939 20.7159 21.5526 21.8809 19.4828C23.0459 17.413 24.9417 16.2985 26.1152 16.9935Z" fill="#E6007A"/>
    </g>
    <defs>
        <clipPath id="clip0_9084_1455">
            <rect width="24" height="24" fill="white" transform="matrix(1 0 0 -1 4 28)"/>
        </clipPath>
    </defs>
</svg>
